<svg width="48" height="48" viewBox="0 0 48 48" fill="none" xmlns="http://www.w3.org/2000/svg">
<g clip-path="url(#clip0_136_3378)">
<path d="M23.9969 47.9939C37.2501 47.9939 47.9939 37.2501 47.9939 23.9969C47.9939 10.7438 37.2501 0 23.9969 0C10.7438 0 0 10.7438 0 23.9969C0 37.2501 10.7438 47.9939 23.9969 47.9939Z" fill="white"/>
<path d="M24.6133 33.2466C24.0825 33.2466 23.7347 33.0697 23.3808 32.7158L15.9798 25.3148C15.272 24.607 15.272 23.5514 15.9798 22.8498C16.6876 22.1481 17.7431 22.142 18.4448 22.8498L24.6133 29.0183L38.3538 15.2779C39.0615 14.5701 40.1171 14.5701 40.8187 15.2779C41.5204 15.9857 41.5265 17.0412 40.8187 17.7429L25.8397 32.7219C25.6628 33.0758 25.132 33.2527 24.6072 33.2527L24.6133 33.2466Z" fill="#454F5B"/>
<path d="M15.8089 33.247C15.2781 33.247 14.9303 33.0701 14.5764 32.7162L7.17536 25.3151C6.46759 24.6074 6.46759 23.5518 7.17536 22.8502C7.88312 22.1424 8.93867 22.1424 9.64034 22.8502L17.0414 30.2512C17.7491 30.959 17.7491 32.0145 17.0414 32.7162C16.8644 33.0701 16.3336 33.247 15.8089 33.247Z" fill="#FF4748"/>
<path d="M25.1442 24.0884C24.6133 24.0884 24.2656 23.9114 23.9117 23.5575C23.2039 22.8498 23.2039 21.7942 23.9117 21.0926L29.5494 15.2779C30.2572 14.5701 31.3127 14.5701 32.0144 15.2779C32.7161 15.9857 32.7222 17.0412 32.0144 17.7429L26.3767 23.5575C26.0228 23.9114 25.6689 24.0884 25.1442 24.0884Z" fill="#00AB55"/>
</g>
<defs>
<clipPath id="clip0_136_3378">
<rect width="48" height="48" fill="white"/>
</clipPath>
</defs>
</svg>
