<svg width="54" height="54" viewBox="0 0 54 54" fill="none" xmlns="http://www.w3.org/2000/svg">
<path d="M35.2402 51.7436C35.2402 52.3414 35.0123 52.92 34.5944 53.3443C34.1765 53.7686 33.6067 54 33.0179 54H13.0737C6.95754 54 2 48.9471 2 42.7564V11.2436C2 5.05286 6.97654 0 13.0737 0H23.0838C27.2246 0 31.1184 1.63929 34.0436 4.60929L41.7553 12.4586C42.3631 13.0757 42.914 13.7314 43.4078 14.445C43.7307 14.9271 43.8637 15.525 43.7497 16.1036C43.6547 16.6821 43.3318 17.2029 42.857 17.5307C42.3821 17.8779 41.8123 18.0129 41.2235 17.9164C40.6536 17.82 40.1408 17.5114 39.7989 17.0486C39.438 16.5471 39.0391 16.065 38.6212 15.6407L30.8905 7.79143C30.1877 7.07786 29.4089 6.48 28.5542 5.97857V15.7371C28.5542 16.9714 29.5419 17.9936 30.7765 17.9936H37.4246C38.0134 17.9936 38.5832 18.225 38.9821 18.6493C39.381 19.0736 39.6279 19.6521 39.6279 20.2307C39.6279 20.8093 39.4 21.4071 38.9821 21.8121C38.5642 22.2364 37.9944 22.4679 37.4246 22.4679H30.7765C27.1106 22.4679 24.1285 19.44 24.1285 15.7179V4.55143C23.7676 4.51286 23.4067 4.49357 23.0458 4.49357H13.0358C9.36983 4.49357 6.38771 7.52143 6.38771 11.2436V42.7371C6.38771 46.4593 9.36983 49.4871 13.0358 49.4871H32.9799C33.5687 49.4871 34.1385 49.7186 34.5564 50.1429C34.9743 50.5671 35.2022 51.1457 35.2022 51.7243L35.2402 51.7436Z" fill="#454F5B"/>
<path d="M47.8336 36.6042L41.0906 35.4663C40.6917 35.4085 40.3308 35.1963 40.0649 34.8685C39.7989 34.5599 39.666 34.1549 39.666 33.7499C39.666 32.5156 40.6537 31.4935 41.8883 31.4935H46.9218C47.7196 31.4935 48.4414 31.9178 48.8403 32.6121C48.9732 32.8821 49.1632 33.1135 49.4101 33.3063C49.638 33.4992 49.904 33.6342 50.1889 33.7113C50.4738 33.7885 50.7777 33.8271 51.0626 33.7885C51.3665 33.7499 51.6515 33.6535 51.8984 33.4992C52.1643 33.3449 52.3732 33.1521 52.5632 32.9013C52.7341 32.6506 52.8671 32.3806 52.9431 32.0913C53.0191 31.8021 53.0191 31.4935 52.9811 31.1849C52.9431 30.8956 52.8291 30.6063 52.6772 30.3363C52.0883 29.3142 51.2526 28.4656 50.2459 27.8678C49.2392 27.2699 48.0995 26.9613 46.9218 26.9613H46.333V24.7049C46.333 24.1071 46.1051 23.5285 45.6872 23.1235C45.2693 22.6992 44.6995 22.4678 44.1297 22.4678C43.5598 22.4678 42.971 22.6992 42.5531 23.1235C42.1353 23.5478 41.9073 24.1263 41.9073 24.7049V26.9613C38.2414 26.9613 35.2593 29.9892 35.2593 33.7113C35.2593 36.7778 37.4246 39.3621 40.3878 39.8635L47.1308 41.0013C47.5297 41.0592 47.8906 41.2713 48.1565 41.5992C48.4224 41.9078 48.5554 42.3128 48.5554 42.7178C48.5554 43.9521 47.5677 44.9742 46.333 44.9742H41.2995C40.5017 44.9742 39.7799 44.5499 39.3811 43.8556C39.2291 43.6049 39.0392 43.3735 38.8112 43.1999C38.5833 43.0263 38.3174 42.8913 38.0325 42.8142C37.7475 42.7371 37.4626 42.7178 37.1777 42.7563C36.8928 42.7949 36.6079 42.8913 36.361 43.0456C36.114 43.1999 35.8861 43.3928 35.7151 43.6242C35.5442 43.8556 35.4112 44.1256 35.3353 44.4149C35.2593 44.7042 35.2403 44.9935 35.2783 45.2828C35.3163 45.5721 35.4112 45.8613 35.5632 46.1121C36.152 47.1342 36.9878 47.9828 37.9945 48.5806C39.0012 49.1785 40.1598 49.4871 41.3185 49.4871H41.9073V51.7435C41.9073 52.3413 42.1353 52.9199 42.5531 53.3249C42.971 53.7492 43.5408 53.9806 44.1297 53.9806C44.7185 53.9806 45.2883 53.7492 45.6872 53.3249C46.1051 52.9006 46.333 52.3221 46.333 51.7435V49.4871C49.9989 49.4871 52.9811 46.4592 52.9811 42.7371C52.9811 39.6706 50.8157 37.0863 47.8526 36.5849L47.8336 36.6042Z" fill="#00AB55"/>
<path d="M16.3979 33.7499H28.5923C29.1812 33.7499 29.751 33.5185 30.1689 33.0942C30.5868 32.6699 30.8147 32.0913 30.8147 31.4935C30.8147 30.8956 30.5868 30.3171 30.1689 29.9121C29.751 29.4878 29.1812 29.2563 28.5923 29.2563H16.3979C14.9354 29.2563 13.5298 29.8542 12.4851 30.9149C11.4404 31.9756 10.8706 33.4028 10.8516 34.8878V39.3813C10.8516 42.4863 13.3398 45.0128 16.3979 45.0128H28.5923C29.1812 45.0128 29.751 44.7813 30.1689 44.3571C30.5868 43.9328 30.8147 43.3542 30.8147 42.7756C30.8147 42.1971 30.5868 41.5992 30.1689 41.1749C29.751 40.7506 29.1812 40.5192 28.5923 40.5192H16.3979C16.113 40.5192 15.8281 40.4035 15.6192 40.1913C15.4102 39.9792 15.2963 39.6899 15.2963 39.4006V34.9071C15.2963 34.6178 15.4102 34.3285 15.6192 34.1163C15.8281 33.9042 16.113 33.7885 16.3979 33.7885V33.7499Z" fill="#FF4748"/>
<path d="M13.074 24.7436H17.4997C18.0885 24.7436 18.6583 24.5121 19.0572 24.0879C19.4751 23.6636 19.703 23.085 19.703 22.5064C19.703 21.9279 19.4751 21.33 19.0572 20.9057C18.6393 20.4814 18.0695 20.25 17.4997 20.25H13.074C12.4851 20.25 11.9153 20.4814 11.5164 20.9057C11.0985 21.33 10.8706 21.9086 10.8706 22.5064C10.8706 23.1043 11.0985 23.6829 11.5164 24.0879C11.9343 24.4929 12.5041 24.7436 13.074 24.7436Z" fill="#FF4748"/>
<path d="M13.074 15.7565H17.4997C18.0885 15.7565 18.6583 15.5251 19.0572 15.1008C19.4751 14.6765 19.703 14.0979 19.703 13.5194C19.703 12.9408 19.4751 12.3429 19.0572 11.9379C18.6393 11.5137 18.0695 11.2822 17.4997 11.2822H13.074C12.4851 11.2822 11.9153 11.5137 11.5164 11.9379C11.0985 12.3622 10.8706 12.9408 10.8706 13.5194C10.8706 14.0979 11.0985 14.6958 11.5164 15.1008C11.9343 15.5251 12.5041 15.7565 13.074 15.7565Z" fill="#FF4748"/>
</svg>
