<svg width="54" height="54" viewBox="0 0 54 54" fill="none" xmlns="http://www.w3.org/2000/svg">
<g clip-path="url(#clip0_60_256)">
<path d="M39.243 10.8266V7.21774H45.4444C46.1292 7.21774 46.6838 6.67867 46.6838 6.01441V1.20333C46.6838 0.537947 46.1292 0 45.4444 0H8.24052C7.55573 0 7 0.537947 7 1.20333V6.01441C7 6.67867 7.55573 7.21774 8.24052 7.21774H14.4408V18.0444C14.4408 18.7086 14.9965 19.2477 15.6813 19.2477H19.4017V27.6676C19.4017 28.3319 19.9563 28.871 20.641 28.871H21.8816C21.8816 30.857 21.8897 32.2904 21.8955 33.337H22.5861C23.3104 32.6411 24.0626 32.1799 24.3614 32.0096V28.871H29.3223V31.8799C29.3665 31.8979 29.4119 31.916 29.456 31.9351C29.456 31.9351 30.4268 32.4392 31.3651 33.337H31.7894C31.7941 32.2893 31.8022 30.8559 31.8022 28.871H33.0427C33.7275 28.871 34.2832 28.3319 34.2832 27.6676V26.4654H38.6233C43.075 26.6312 46.8233 23.2648 46.9942 18.9466C47.1651 14.6283 43.6958 10.9924 39.243 10.8266ZM9.47987 4.8122V2.40554H44.2039V4.8122H9.47987ZM31.8022 26.4654H21.8816V19.2477C21.8816 16.5895 24.1022 14.4355 26.8425 14.4355C29.5828 14.4355 31.8022 16.5895 31.8022 19.2477V26.4654ZM33.8484 16.841C32.4661 13.0878 28.2074 11.1322 24.3382 12.4732C22.2385 13.2017 20.5852 14.8043 19.8353 16.841H16.9207V7.21774H36.7631V16.841H33.8484ZM38.6233 24.0588H34.2832V19.2477H38.0036C38.6884 19.2477 39.243 18.7086 39.243 18.0444V13.2931C42.06 13.593 44.1958 15.8971 44.2039 18.6455C44.1969 21.6329 41.7031 24.052 38.6233 24.0588Z" fill="#454F5B"/>
<path d="M26.8423 23.452C24.4519 23.452 22.5068 21.5653 22.5068 19.2477C22.5068 16.9301 24.4519 15.0422 26.8423 15.0422C29.2326 15.0422 31.1777 16.929 31.1777 19.2477C31.1777 21.5664 29.2326 23.452 26.8423 23.452ZM26.8423 17.0192C25.5762 17.0192 24.5449 18.0184 24.5449 19.2477C24.5449 20.477 25.575 21.475 26.8423 21.475C28.1095 21.475 29.1396 20.4758 29.1396 19.2477C29.1396 18.0196 28.1095 17.0192 26.8423 17.0192Z" fill="#FF4748"/>
<path d="M39.8582 43.5885L32.1582 36.1193C31.8722 35.3986 31.378 34.7851 30.8711 34.3013C30.0387 33.5051 29.1784 33.0585 29.1784 33.0585C29.1388 33.0416 29.0993 33.0258 29.0598 33.01C27.6856 32.4653 26.1416 32.4822 24.779 33.0585C24.779 33.0585 24.736 33.0811 24.6604 33.125C24.3953 33.2762 23.728 33.6855 23.0862 34.3024C22.591 34.7772 22.112 35.3772 21.8422 36.0787L14.1422 43.5468C13.8073 43.875 13.7271 44.3734 13.9445 44.7851C18.7183 54.1839 18.3555 53.9494 19.2798 53.9494C27.6937 53.9494 26.9787 55.1764 22.7874 45.6591C26.4392 42.1066 24.779 43.2806 26.9775 43.2806C29.176 43.2806 27.4949 42.0852 31.1676 45.6591C26.9775 55.1448 26.2183 53.9494 34.6764 53.9494C35.6449 53.9494 35.4798 53.7148 40.0547 44.8268C40.2709 44.4163 40.1919 43.9178 39.857 43.5896L39.8582 43.5885ZM20.6982 44.6554C19.9937 45.349 20.3017 45.4651 23.1072 51.8145H19.9611L16.2209 44.5595L21.7213 39.224C22.0085 40.2909 22.6316 41.245 23.5036 41.9555L20.6994 44.6554H20.6982ZM26.9775 41.1446C25.1557 41.1446 23.678 39.7124 23.678 37.944C23.678 36.1757 25.1557 34.7434 26.9775 34.7434C28.7994 34.7434 30.277 36.1768 30.277 37.944C30.277 39.7112 28.8005 41.1446 26.9775 41.1446ZM33.9951 51.8145H30.8491L33.4882 45.8294C33.873 44.9542 33.2685 44.6768 30.5072 41.9995C31.378 41.289 32.0012 40.3349 32.2895 39.268L37.7899 44.6024L33.9951 51.8145Z" fill="#00AB55"/>
</g>
<defs>
<clipPath id="clip0_60_256">
<rect width="40" height="54" fill="white" transform="translate(7)"/>
</clipPath>
</defs>
</svg>
