<svg width="54" height="54" viewBox="0 0 54 54" fill="none" xmlns="http://www.w3.org/2000/svg">
<g clip-path="url(#clip0_141_5343)">
<g clip-path="url(#clip1_141_5343)">
<path d="M2.98784 21.1426C3.37336 21.3003 3.81146 21.3003 4.19699 21.1426L8.92845 19.1449C9.73455 18.8032 10.1113 17.8744 9.7696 17.0683C9.42788 16.2622 8.49911 15.8854 7.69301 16.2272L6.53643 16.7178C10.1288 8.54292 18.2599 3.16307 27.2935 3.16307C37.6327 3.16307 46.6575 10.1551 49.251 20.1613C49.435 20.871 50.0746 21.3442 50.7844 21.3442C50.9158 21.3442 51.0472 21.3266 51.1787 21.2916C52.0286 21.0725 52.5368 20.2139 52.3177 19.3639C49.3649 7.96463 39.0784 0 27.2935 0C16.9369 0 7.63168 6.19471 3.57489 15.5963L3.04041 14.3346C2.69869 13.5285 1.76992 13.1517 0.963821 13.4934C0.15772 13.8351 -0.219044 14.7639 0.122673 15.57L2.1204 20.3015C2.28688 20.687 2.59355 20.9937 2.97907 21.1514L2.98784 21.1426Z" fill="#FF4748"/>
<path d="M53.8773 38.1145L51.8796 33.383C51.7131 32.9975 51.4064 32.6908 51.0209 32.5331C50.6354 32.3754 50.1973 32.3754 49.8117 32.5331L45.0803 34.5308C44.2742 34.8725 43.8974 35.8013 44.2391 36.6074C44.5809 37.4135 45.5096 37.7903 46.3157 37.4485L47.6388 36.8878C44.134 45.2817 35.8977 50.8281 26.7152 50.8281C16.3761 50.8281 7.35125 43.836 4.75771 33.8299C4.53866 32.9799 3.67999 32.4717 2.83008 32.6908C1.98017 32.9098 1.47197 33.7685 1.69102 34.6184C4.64381 46.0265 14.9304 53.9911 26.7064 53.9911C37.1244 53.9911 46.4734 47.7263 50.4952 38.2284L50.9596 39.3324C51.2137 39.9369 51.8007 40.2962 52.4141 40.2962C52.6156 40.2962 52.8259 40.2524 53.0274 40.1735C53.8335 39.8318 54.2103 38.903 53.8685 38.0969L53.8773 38.1145Z" fill="#00AB55"/>
<path d="M23.8238 44.4145C24.4547 44.6423 25.1557 44.4496 25.5762 43.9326L38.8331 27.8982C39.2274 27.4251 39.3062 26.7679 39.0434 26.2159C38.7805 25.6639 38.2285 25.3047 37.6152 25.3047H31.8498V10.9701C31.8498 10.3042 31.4292 9.70836 30.8071 9.48054C30.1763 9.25273 29.4753 9.4455 29.0547 9.96245L15.7979 25.9969C15.2371 26.6715 15.3335 27.6704 16.0082 28.2224C16.2886 28.459 16.6478 28.5816 17.0158 28.5816H22.7812V42.925C22.7812 43.5909 23.2017 44.1867 23.8238 44.4145ZM20.3716 25.4186L28.678 15.3686V26.8993C28.678 27.7755 29.3877 28.4852 30.2639 28.4852H34.2506L25.9442 38.5352V27.0045C25.9442 26.1283 25.2345 25.4186 24.3583 25.4186H20.3716Z" fill="#454F5B"/>
</g>
</g>
<defs>
<clipPath id="clip0_141_5343">
<rect width="54" height="54" fill="white"/>
</clipPath>
<clipPath id="clip1_141_5343">
<rect width="54" height="54" fill="white"/>
</clipPath>
</defs>
</svg>
