<svg width="54" height="54" viewBox="0 0 54 54" fill="none" xmlns="http://www.w3.org/2000/svg">
<g clip-path="url(#clip0_113_9084)">
<path d="M18.2099 40.6398C16.9788 40.8551 15.7189 40.7977 14.5307 40.4533C13.1421 40.0371 11.8966 39.2478 10.9231 38.1572L6.32764 42.7637H8.96178C10.2073 42.7637 11.2094 43.7682 11.2094 45.0166V47.6571L18.2099 40.6398Z" fill="#FF4748"/>
<path d="M47.6723 42.7637L43.0912 38.1716C42.132 39.2479 40.8865 40.0372 39.4979 40.439C38.2953 40.7834 37.0212 40.8551 35.79 40.6255L42.7906 47.6428V45.0024C42.7906 43.7539 43.7927 42.7494 45.0382 42.7494H47.6723V42.7637Z" fill="#00AB55"/>
<path d="M36.4631 19.5164L29.1906 27.3373C26.7855 29.8199 22.8199 29.8773 20.3433 27.4664C20.3146 27.4377 20.3003 27.4234 20.2717 27.3947L16.9504 24.0654C16.0771 23.19 16.0771 21.755 16.9504 20.8797C17.8236 20.0043 19.2552 20.0043 20.1285 20.8797L23.4498 24.2089C24.1513 24.8834 25.2537 24.8834 25.9551 24.2089L33.1704 16.4454C34.0294 15.5557 35.461 15.527 36.3486 16.4024C37.2075 17.249 37.2648 18.6123 36.4631 19.5164Z" fill="#454F5B"/>
<path d="M53.0552 41.8024L45.1241 33.8524C45.2529 32.8909 45.2243 31.9294 45.0096 30.9967C44.8664 30.3509 45.167 29.6621 45.7826 29.2746C46.9136 28.5428 47.8441 27.5383 48.474 26.3472C49.1183 25.1705 49.4475 23.8502 49.4475 22.5157C49.4475 21.1524 49.1183 19.8322 48.474 18.6698C47.8298 17.4787 46.8993 16.4886 45.7683 15.7423C45.167 15.3549 44.8664 14.6661 45.0096 14.0203C45.3102 12.6714 45.2673 11.2794 44.8807 9.95919C44.122 7.36179 42.0891 5.32406 39.4979 4.5635C38.1808 4.17604 36.7922 4.13299 35.4465 4.43434C34.8166 4.57785 34.1151 4.27649 33.7285 3.67378C33.0127 2.55446 32.0249 1.63604 30.8224 0.961582C28.4459 -0.344291 25.5827 -0.344291 23.2206 0.961582C22.0467 1.60734 21.0446 2.54011 20.3001 3.65943C19.9136 4.26214 19.2264 4.5635 18.5822 4.43434C17.2365 4.13299 15.8478 4.17604 14.5308 4.5635C11.9396 5.32406 9.9067 7.36179 9.14795 9.95919C8.76142 11.2794 8.71848 12.6857 9.01911 14.0203C9.16227 14.6661 8.86164 15.3549 8.26036 15.7423C7.1294 16.4742 6.19886 17.4787 5.55464 18.6698C4.91042 19.8465 4.58115 21.1667 4.58115 22.5013C4.58115 23.8502 4.91042 25.1705 5.55464 26.3472C6.19886 27.5239 7.1294 28.5284 8.26036 29.2746C8.86164 29.6621 9.17659 30.3509 9.01911 30.9967C8.81869 31.9294 8.77574 32.8765 8.90458 33.8237L0.94488 41.8024C0.014339 42.7065 -0.257665 44.0984 0.257711 45.3039C0.744456 46.5093 1.91837 47.2985 3.20681 47.2842H6.71423V50.8C6.71423 52.809 8.34626 54.0145 9.93534 54.0145C10.78 54.0145 11.553 53.6844 12.1686 53.0673L21.9751 43.2374L22.0037 43.1944C22.3903 43.4957 22.7625 43.8114 23.2063 44.0554C24.3802 44.7155 25.6973 45.0312 27.0143 45.0312C28.3314 45.0312 29.6485 44.7012 30.8224 44.0554C31.2519 43.8114 31.6241 43.5101 31.9963 43.2087L41.8028 53.0673C42.4184 53.6844 43.1914 54.0145 44.0361 54.0145C45.6252 54.0145 47.2572 52.809 47.2572 50.8V47.2842H50.7646C52.0817 47.2842 53.2126 46.5236 53.728 45.3039C54.2291 44.0841 53.9714 42.7495 53.0408 41.8167L53.0552 41.8024ZM11.2095 47.6573V45.0169C11.2095 43.7684 10.2073 42.7639 8.96185 42.7639H6.3277L10.9231 38.1574C11.8823 39.2337 13.1421 40.0373 14.5308 40.4535C15.7333 40.7979 16.9788 40.8696 18.21 40.64L11.2095 47.6573ZM29.9634 38.918C29.6485 39.4059 29.2047 39.8221 28.6464 40.1234C27.6299 40.6687 26.4131 40.6687 25.3966 40.1234C24.8383 39.8077 24.3945 39.4059 24.0796 38.918C22.92 37.1099 20.9443 36.0623 18.8972 36.0623C18.4677 36.0623 18.0239 36.1054 17.5944 36.2058C17.0074 36.335 16.4062 36.3206 15.7763 36.1341C14.6883 35.8183 13.7863 34.9143 13.4714 33.838C13.2853 33.2066 13.271 32.5895 13.3998 32.0155C13.9581 29.5329 12.8701 26.9212 10.6941 25.5149C10.193 25.1992 9.79218 24.7543 9.49154 24.1946C9.21954 23.7067 9.07638 23.1327 9.09069 22.53C9.09069 21.9417 9.23385 21.3676 9.49154 20.8797C9.77786 20.3488 10.193 19.8896 10.6941 19.5595C12.8844 18.1532 13.9725 15.5271 13.3998 13.0588C13.271 12.4705 13.2853 11.8534 13.4714 11.2364C13.7863 10.1457 14.6883 9.24168 15.7763 8.92597C16.3632 8.75377 16.9931 8.72507 17.5944 8.85422C20.0711 9.41388 22.6766 8.32326 24.0796 6.14202C24.4088 5.63976 24.8669 5.22361 25.3966 4.9366C26.4131 4.39129 27.6299 4.39129 28.6464 4.9366C29.1761 5.22361 29.6342 5.63976 29.9634 6.14202C31.3807 8.33761 33.9862 9.42823 36.4486 8.85422C37.0499 8.72507 37.6798 8.73942 38.2667 8.92597C39.3691 9.25603 40.228 10.117 40.5716 11.2364C40.7577 11.8678 40.772 12.4848 40.6432 13.0588C40.0849 15.5414 41.1729 18.1532 43.3489 19.5595C43.85 19.8896 44.2651 20.3488 44.5515 20.8797C44.8235 21.3963 44.9666 21.9704 44.9523 22.5444C44.9523 23.1184 44.8235 23.6924 44.5515 24.1946C44.2508 24.7543 43.8357 25.1992 43.3489 25.5149C41.1586 26.9212 40.0705 29.5329 40.6432 32.0155C40.772 32.6039 40.7577 33.221 40.5716 33.838C40.2566 34.9286 39.3547 35.8327 38.2667 36.1484C37.6368 36.3206 37.0212 36.3493 36.4486 36.2202C33.9862 35.6605 31.3664 36.7511 29.9634 38.9324V38.918ZM45.0382 42.7782C43.7927 42.7782 42.7906 43.7827 42.7906 45.0312V47.6717L35.7901 40.6544C37.0212 40.884 38.2954 40.8122 39.4979 40.4678C40.8866 40.0517 42.1177 39.2768 43.0912 38.2005L47.6723 42.7926H45.0382V42.7782Z" fill="#454F5B"/>
</g>
<defs>
<clipPath id="clip0_113_9084">
<rect width="54" height="54" fill="white"/>
</clipPath>
</defs>
</svg>
