<svg width="54" height="54" viewBox="0 0 54 54" fill="none" xmlns="http://www.w3.org/2000/svg">
<g clip-path="url(#clip0_141_5425)">
<g clip-path="url(#clip1_141_5425)">
<path d="M47.2579 24.6711C46.7119 24.2142 45.9501 24.1 45.2899 24.3792C44.6297 24.6584 44.1853 25.293 44.1345 26.0037C43.9059 29.5825 41.5443 32.1588 39.0557 34.8873C35.5767 38.6946 31.7042 42.9588 34.8657 49.8119C34.3578 49.9769 33.85 50.1165 33.3548 50.2434C32.3263 50.4845 31.7042 51.5125 31.9454 52.5405C32.1486 53.4161 32.9358 53.9999 33.7992 53.9999C33.9515 53.9999 34.0912 53.9872 34.2436 53.9491C35.4625 53.6573 36.5925 53.2765 37.659 52.807C39.5382 53.5557 41.3538 53.9491 43.0425 53.9491C46.5977 53.9491 49.6195 52.312 51.6383 49.152C55.7141 42.743 54.711 30.9151 47.2706 24.6838L47.2579 24.6711ZM48.4133 47.096C46.9278 49.4439 44.7185 50.4338 41.9633 50.0784C45.1375 47.2864 47.3976 43.1618 48.9466 37.4001C49.2259 36.3849 48.6165 35.3442 47.6007 35.065C46.585 34.7858 45.5438 35.395 45.2645 36.4103C43.5123 42.8826 40.9856 46.2711 38.2685 48.1494C36.2243 43.6441 38.5224 41.1059 41.8617 37.4636C43.8044 35.3442 45.9247 33.0091 47.0802 30.0521C50.8511 35.2554 51.1051 42.8573 48.4006 47.1087L48.4133 47.096Z" fill="#454F5B"/>
<path d="M42.6872 12.6656C41.8238 11.7646 40.935 10.9777 39.9955 10.2924C39.1067 4.06115 35.3611 0.241178 29.8252 4.95045e-05C22.2452 -0.329915 12.4939 6.45974 10.8179 16.016C10.691 16.7267 10.983 17.4374 11.5544 17.8689C12.1257 18.3004 12.9002 18.3639 13.5351 18.0466C16.7474 16.4602 20.1629 17.209 23.7688 18.0085C25.7876 18.4527 27.908 18.9223 30.003 18.9223C33.1264 18.9223 36.1991 17.8816 38.8019 14.1885C39.1956 14.5439 39.5765 14.9119 39.9193 15.28C40.3002 15.6734 40.7954 15.8764 41.3032 15.8764C41.773 15.8764 42.2428 15.6988 42.611 15.3561C43.3728 14.6327 43.4109 13.4271 42.6872 12.6656ZM24.5814 14.3028C22.4356 13.8332 20.1375 13.3256 17.7632 13.3256C17.0267 13.3256 16.2903 13.3763 15.5412 13.4905C18.1568 7.62731 24.6322 3.59159 29.6475 3.82003C32.4281 3.93425 34.3834 5.34294 35.45 7.9192C31.4504 6.56127 26.7399 6.67549 20.9755 8.2111C19.9597 8.47761 19.3503 9.51826 19.6296 10.5335C19.8962 11.5488 20.9501 12.158 21.9531 11.8788C28.4413 10.1528 32.6439 10.6604 35.6277 12.0565C32.7455 16.0795 29.4062 15.3561 24.5814 14.2901V14.3028Z" fill="#FF4748"/>
<path d="M25.0383 49.5708C22.0546 47.5783 21.0007 44.2533 19.8834 40.7379C18.3344 35.8392 16.5568 30.3567 9.0656 29.6587C9.16718 29.151 9.28145 28.6434 9.43381 28.1231C9.73854 27.1205 9.15448 26.0544 8.15142 25.7499C7.14837 25.458 6.08183 26.0291 5.7771 27.0316C5.42159 28.2246 5.20574 29.3795 5.07877 30.5343C0.126969 34.4178 -1.32048 39.583 1.2443 44.4944C3.99953 49.7611 11.1733 53.9999 18.5248 53.9999C20.569 53.9999 22.6386 53.67 24.6193 52.9466C25.2923 52.7054 25.7747 52.0963 25.8509 51.3856C25.9398 50.6749 25.6097 49.9769 25.0129 49.5708H25.0383ZM4.63438 42.7304C3.33929 40.2683 3.58053 37.857 5.29462 35.6361C5.82789 38.2758 7.0087 40.8648 8.87515 43.4791C9.24336 43.9994 9.82742 44.2787 10.4242 44.2787C10.8051 44.2787 11.1987 44.1644 11.5288 43.9233C12.3795 43.3141 12.5826 42.1212 11.9732 41.2709C10.0687 38.6058 9.04021 36.0549 8.82436 33.4279C13.7254 33.9228 14.7665 37.1844 16.2521 41.8674C17.1154 44.6086 18.0677 47.6164 20.0611 50.1038C13.6746 50.7764 6.95791 47.1849 4.62168 42.7177L4.63438 42.7304Z" fill="#00AB55"/>
</g>
</g>
<defs>
<clipPath id="clip0_141_5425">
<rect width="54" height="54" fill="white"/>
</clipPath>
<clipPath id="clip1_141_5425">
<rect width="54" height="54" fill="white"/>
</clipPath>
</defs>
</svg>
