<svg width="54" height="54" viewBox="0 0 54 54" fill="none" xmlns="http://www.w3.org/2000/svg">
<g clip-path="url(#clip0_141_5391)">
<path d="M26.5 39.7499C23.5355 39.7499 20.5961 38.7601 18.1993 36.8306C14.2147 33.6249 12.4209 28.349 13.6218 23.3796C13.853 22.3596 14.868 21.7215 15.8829 21.9526C16.9029 22.1838 17.5411 23.1987 17.3099 24.2137C17.3099 24.2338 17.2999 24.2539 17.2949 24.269C16.4407 27.8365 17.7169 31.5748 20.5659 33.8761C23.4149 36.1674 27.52 36.5894 30.781 34.9313C34.0269 33.2782 36.1071 29.7258 35.9564 26.0829C35.8057 22.5154 33.4943 19.179 30.2082 17.7822C28.2938 16.9732 26.1684 16.8124 24.1535 17.3199C23.1385 17.5812 22.1085 16.9682 21.8522 15.9532C21.5909 14.9382 22.2039 13.9082 23.2189 13.6519C26.0377 12.9384 29.0123 13.1645 31.6905 14.3001C36.3634 16.2848 39.5239 20.8472 39.74 25.9221C39.951 31.1075 37.1221 35.9463 32.4994 38.3028C30.6403 39.2475 28.5852 39.7399 26.5 39.7399V39.7499Z" fill="#00AB55"/>
<path d="M18.094 20.7569C17.0489 20.7569 16.1997 19.9077 16.1997 18.8626C16.1997 18.3652 16.3957 17.8878 16.7474 17.5311L17.4106 16.8578C18.1442 16.1141 19.3451 16.1041 20.0888 16.8377C20.8324 17.5713 20.8425 18.7722 20.1089 19.5158L19.4456 20.1891C19.0889 20.5509 18.6065 20.7519 18.099 20.7519L18.094 20.7569Z" fill="#FF4748"/>
<path d="M26.5 9.46644C25.4549 9.46644 24.6057 8.61727 24.6057 7.57215V1.89429C24.6057 0.849166 25.4549 0 26.5 0C27.5451 0 28.3943 0.849166 28.3943 1.89429V7.57215C28.3943 8.61727 27.5451 9.46644 26.5 9.46644ZM26.5 53.005C25.4549 53.005 24.6057 52.1559 24.6057 51.1107V45.4329C24.6057 44.3877 25.4549 43.5386 26.5 43.5386C27.5451 43.5386 28.3943 44.3877 28.3943 45.4329V51.1107C28.3943 52.1559 27.5451 53.005 26.5 53.005ZM7.57215 28.3943H1.89429C0.849166 28.3943 0 27.5451 0 26.5C0 25.4549 0.849166 24.6057 1.89429 24.6057H7.57215C8.61727 24.6057 9.46644 25.4549 9.46644 26.5C9.46644 27.5451 8.61727 28.3943 7.57215 28.3943ZM51.1107 28.3943H45.4329C44.3877 28.3943 43.5386 27.5451 43.5386 26.5C43.5386 25.4549 44.3877 24.6057 45.4329 24.6057H51.1107C52.1559 24.6057 53.005 25.4549 53.005 26.5C53.005 27.5451 52.1559 28.3943 51.1107 28.3943ZM13.1143 15.0086C12.6119 15.0086 12.1295 14.8076 11.7778 14.4559L7.76308 10.4412C7.00939 9.71265 6.98929 8.51678 7.71786 7.76308C8.44643 7.00939 9.6423 6.98929 10.396 7.71786C10.4111 7.73293 10.4261 7.74801 10.4412 7.76308L14.4559 11.7778C15.1945 12.5164 15.1945 13.7173 14.4559 14.4559C14.0992 14.8127 13.6218 15.0086 13.1194 15.0086H13.1143ZM43.9004 45.7947C43.3979 45.7947 42.9155 45.5937 42.5638 45.2419L38.5491 41.2272C37.7954 40.4987 37.7753 39.3028 38.5039 38.5491C39.2325 37.7954 40.4283 37.7753 41.182 38.5039C41.1971 38.519 41.2122 38.534 41.2272 38.5491L45.2419 42.5638C45.9806 43.3024 45.9806 44.5033 45.2419 45.2419C44.8852 45.5987 44.4078 45.7947 43.9054 45.7947H43.9004ZM9.09964 45.7947C8.05451 45.7947 7.20535 44.9455 7.20535 43.9004C7.20535 43.3979 7.40633 42.9155 7.75806 42.5638L11.7728 38.5491C12.5013 37.7954 13.6972 37.7753 14.4509 38.5039C15.2046 39.2325 15.2247 40.4283 14.4961 41.182C14.481 41.1971 14.466 41.2122 14.4509 41.2272L10.4362 45.2419C10.0694 45.6087 9.58201 45.7947 9.09964 45.7947ZM39.8857 15.0086C38.8405 15.0086 37.9914 14.1595 37.9914 13.1143C37.9914 12.6119 38.1924 12.1295 38.5441 11.7778L42.5588 7.76308C43.2873 7.00939 44.4832 6.98929 45.2369 7.71786C45.9906 8.44643 46.0107 9.6423 45.2821 10.396C45.2671 10.4111 45.252 10.4261 45.2369 10.4412L41.2222 14.4559C40.8655 14.8127 40.3881 15.0086 39.8857 15.0086Z" fill="#454F5B"/>
</g>
<defs>
<clipPath id="clip0_141_5391">
<rect width="53" height="53" fill="white"/>
</clipPath>
</defs>
</svg>
