<svg width="54" height="54" viewBox="0 0 54 54" fill="none" xmlns="http://www.w3.org/2000/svg">
<g clip-path="url(#clip0_113_9106)">
<path d="M22.5007 51.7533C22.5007 52.9913 21.492 54 20.2541 54H11.256C5.05476 54 0.01125 48.9565 0.01125 42.7553V11.2447C-0.000212566 5.04352 5.0433 0 11.2445 0H29.2407C35.4419 0 40.4855 5.04352 40.4855 11.2447V15.7495C40.4855 16.9875 39.4768 17.9962 38.2388 17.9962C37.0009 17.9962 35.9921 16.9875 35.9921 15.7495V11.2447C35.9921 7.51942 32.966 4.49331 29.2407 4.49331H11.2445C7.51921 4.49331 4.4931 7.51942 4.4931 11.2447V42.7438C4.4931 46.4691 7.51921 49.4952 11.2445 49.4952H20.2426C21.4806 49.4952 22.4893 50.5039 22.4893 51.7419L22.5007 51.7533Z" fill="#454F5B"/>
<path d="M31.4993 13.5028C31.4993 12.2648 30.4906 11.2561 29.2526 11.2561H11.2564C10.0185 11.2561 9.00977 12.2648 9.00977 13.5028C9.00977 14.7407 10.0185 15.7494 11.2564 15.7494H29.2526C30.4906 15.7494 31.4993 14.7407 31.4993 13.5028Z" fill="#00AB55"/>
<path d="M22.5012 24.7476C22.5012 23.5097 21.4925 22.501 20.2545 22.501H11.2564C10.0185 22.501 9.00977 23.5097 9.00977 24.7476C9.00977 25.9856 10.0185 26.9943 11.2564 26.9943H20.2545C21.4925 26.9943 22.5012 25.9856 22.5012 24.7476Z" fill="#00AB55"/>
<path d="M11.2447 33.7456C10.0068 33.7456 8.99805 34.7543 8.99805 35.9923C8.99805 37.2302 10.0068 38.2389 11.2447 38.2389H15.7495C16.9874 38.2389 17.9961 37.2302 17.9961 35.9923C17.9961 34.7543 16.9874 33.7456 15.7495 33.7456H11.2447Z" fill="#00AB55"/>
<path d="M38.2505 22.501C29.5619 22.501 22.501 29.5734 22.501 38.2505C22.501 46.9276 29.5734 54 38.2505 54C46.9276 54 54 46.9276 54 38.2505C54 29.5734 46.9276 22.501 38.2505 22.501ZM38.2505 49.5067C32.0493 49.5067 27.0058 44.4632 27.0058 38.262C27.0058 32.0607 32.0493 27.0172 38.2505 27.0172C44.4517 27.0172 49.4952 32.0607 49.4952 38.262C49.4952 44.4632 44.4517 49.5067 38.2505 49.5067Z" fill="#454F5B"/>
<path d="M42.3198 35.4537L37.3222 40.2565C37.0012 40.5775 36.474 40.5775 36.153 40.2565L33.6083 37.7691C32.7257 36.898 31.2929 36.9094 30.4217 37.8035C29.5506 38.6976 29.562 40.119 30.4561 40.9901L33.0008 43.4889C34.0324 44.4976 35.385 45.002 36.7376 45.002C38.0902 45.002 39.4427 44.4976 40.4515 43.4889L45.4262 38.7091C46.3203 37.8494 46.3547 36.428 45.495 35.5225C44.6353 34.6169 43.2139 34.594 42.3084 35.4537H42.3198Z" fill="#FF4748"/>
</g>
<defs>
<clipPath id="clip0_113_9106">
<rect width="54" height="54" fill="white"/>
</clipPath>
</defs>
</svg>
