<svg width="54" height="54" viewBox="0 0 54 54" fill="none" xmlns="http://www.w3.org/2000/svg">
<g clip-path="url(#clip0_141_5405)">
<g clip-path="url(#clip1_141_5405)">
<path d="M53.8295 13.6411C53.4355 12.8638 52.4878 12.5443 51.7104 12.9383L45.385 16.101C44.6077 16.495 44.2882 17.4427 44.6822 18.2201C45.0762 18.9975 46.0239 19.3169 46.8013 18.9229L53.1267 15.7602C53.904 15.3662 54.2235 14.4185 53.8295 13.6411Z" fill="#FF4748"/>
<path d="M53.1267 31.9145L46.8013 28.7518C46.0239 28.3578 45.0656 28.6772 44.6822 29.4546C44.2882 30.232 44.6077 31.1903 45.385 31.5737L51.7104 34.7364C52.4878 35.1304 53.4461 34.8109 53.8295 34.0336C54.2235 33.2562 53.904 32.2978 53.1267 31.9145Z" fill="#FF4748"/>
<path d="M36.4934 25.4187H12.6614V17.4001C12.6614 13.0341 16.2607 9.48807 20.6799 9.48807C25.0992 9.48807 28.592 13.0341 28.592 17.4001V20.5628C28.592 21.436 29.3055 22.1495 30.1787 22.1495H36.504C37.3772 22.1495 38.0907 21.436 38.0907 20.5628V17.4001C38.0694 7.80556 30.2639 0 20.6693 0C11.0215 0 3.16269 7.80556 3.16269 17.4001V25.6849C1.32045 26.3345 0 28.0915 0 30.1574V49.2506C0 51.8702 2.12976 54 4.74936 54H36.4934C39.113 54 41.2428 51.8702 41.2428 49.2506V30.1574C41.2428 27.5378 39.113 25.408 36.4934 25.408V25.4187ZM6.32538 17.4001C6.32538 9.55196 12.7572 3.16269 20.6693 3.16269C28.5813 3.16269 34.9067 9.55196 34.9067 17.4001V18.9868H31.744V17.4001C31.744 11.2984 26.7711 6.32538 20.6693 6.32538C14.5675 6.32538 9.48807 11.2984 9.48807 17.4001V25.4187H6.32538V17.4001ZM38.0694 49.2506C38.0694 50.1238 37.3559 50.8373 36.4827 50.8373H4.74936C3.87616 50.8373 3.16269 50.1238 3.16269 49.2506V30.1574C3.16269 29.2842 3.87616 28.5707 4.74936 28.5707H36.4934C37.3666 28.5707 38.0801 29.2842 38.0801 30.1574V49.2506H38.0694Z" fill="#454F5B"/>
<path d="M20.6693 31.7441C18.0497 31.7441 15.9199 33.8739 15.9199 36.4935C15.9199 38.5594 17.2404 40.3164 19.0826 40.966V46.0881C19.0826 46.9613 19.7961 47.6747 20.6693 47.6747C21.5425 47.6747 22.2559 46.9613 22.2559 46.0881V40.966C24.0982 40.3164 25.4186 38.5594 25.4186 36.4935C25.4186 33.8739 23.2889 31.7441 20.6693 31.7441ZM20.6693 38.0695C19.7961 38.0695 19.0826 37.3561 19.0826 36.4828C19.0826 35.6096 19.7961 34.8962 20.6693 34.8962C21.5425 34.8962 22.2559 35.6096 22.2559 36.4828C22.2559 37.3561 21.5425 38.0695 20.6693 38.0695Z" fill="#00AB55"/>
<path d="M52.4135 22.2559H46.0881C45.2149 22.2559 44.5015 22.9693 44.5015 23.8425C44.5015 24.7157 45.2149 25.4292 46.0881 25.4292H52.4135C53.2867 25.4292 54.0002 24.7157 54.0002 23.8425C54.0002 22.9693 53.2867 22.2559 52.4135 22.2559Z" fill="#FF4748"/>
</g>
</g>
<defs>
<clipPath id="clip0_141_5405">
<rect width="54" height="54" fill="white"/>
</clipPath>
<clipPath id="clip1_141_5405">
<rect width="54" height="54" fill="white"/>
</clipPath>
</defs>
</svg>
