<svg width="54" height="54" viewBox="0 0 54 54" fill="none" xmlns="http://www.w3.org/2000/svg">
<g clip-path="url(#clip0_63_415)">
<g clip-path="url(#clip1_63_415)">
<path d="M38.2368 48.0231C34.8017 49.8636 30.9163 50.836 27.0002 50.836C21.8575 50.836 16.9638 49.2171 12.899 46.2228L13.6415 46.1574C14.5116 46.0815 15.1561 45.3137 15.0801 44.4435C15.0042 43.5734 14.2374 42.929 13.3663 43.006L8.89016 43.3973C8.89016 43.3973 8.88488 43.3973 8.88277 43.3973C8.84586 43.4004 8.80895 43.4068 8.77098 43.4131C8.75621 43.4152 8.74145 43.4163 8.72668 43.4194C8.67605 43.4289 8.62648 43.4416 8.57691 43.4563C8.5516 43.4637 8.52734 43.4732 8.50203 43.4827C8.47777 43.4912 8.45352 43.4985 8.43031 43.508C8.40184 43.5196 8.37441 43.5333 8.34594 43.5471C8.32695 43.5555 8.30797 43.5639 8.29004 43.5734C8.25523 43.5924 8.22148 43.6124 8.18773 43.6335C8.17719 43.6399 8.16664 43.6451 8.15715 43.6515C8.11391 43.6799 8.07172 43.7116 8.03059 43.7443C8.02426 43.7496 8.01898 43.7548 8.01371 43.7601C7.97891 43.7886 7.94621 43.8181 7.91457 43.8497C7.91352 43.8508 7.91141 43.8519 7.91035 43.854C7.89875 43.8656 7.8882 43.8782 7.8766 43.8909C7.8534 43.9151 7.83125 43.9394 7.81016 43.9647C7.79328 43.9847 7.77852 44.0058 7.7627 44.0269C7.74793 44.047 7.73211 44.067 7.71734 44.0881C7.70152 44.1124 7.68676 44.1366 7.67199 44.1609C7.66039 44.1809 7.64773 44.1999 7.63719 44.2199C7.62348 44.2442 7.61187 44.2695 7.60027 44.2948C7.58973 44.3159 7.57918 44.3381 7.57074 44.3592C7.5602 44.3834 7.55176 44.4077 7.54332 44.4319C7.53488 44.4562 7.52539 44.4804 7.51695 44.5058C7.50957 44.5279 7.5043 44.5511 7.49902 44.5733C7.49164 44.6007 7.48426 44.6281 7.47898 44.6555C7.47477 44.6777 7.4716 44.6998 7.46844 44.722C7.46422 44.7504 7.45895 44.7789 7.45578 44.8074C7.45367 44.8317 7.45262 44.857 7.45051 44.8812C7.44945 44.9076 7.44734 44.934 7.44629 44.9603C7.44629 44.993 7.4484 45.0247 7.44945 45.0563C7.44945 45.0742 7.44945 45.0911 7.45156 45.109L7.84285 49.5851C7.91457 50.4088 8.60539 51.029 9.4175 51.029C9.46391 51.029 9.51031 51.0269 9.55672 51.0227C10.4268 50.9467 11.0713 50.1789 10.9953 49.3088L10.9426 48.7097C15.5632 52.1417 21.1393 53.9969 27.0002 53.9969C31.4362 53.9969 35.8385 52.8947 39.7313 50.8096C40.5012 50.3972 40.7913 49.4385 40.3789 48.6676C39.9665 47.8976 39.0078 47.6076 38.2368 48.02V48.0231Z" fill="#00AB55"/>
<path d="M15.7633 5.97691C19.1984 4.13648 23.0839 3.16406 26.9999 3.16406C32.1426 3.16406 37.0364 4.78301 41.1011 7.77727L40.3597 7.84266C39.4896 7.91859 38.8451 8.68641 38.9211 9.55652C38.9928 10.3802 39.6836 11.0004 40.4957 11.0004C40.5421 11.0004 40.5885 10.9983 40.6349 10.9941L45.111 10.6028C45.111 10.6028 45.1153 10.6028 45.1174 10.6028C45.1522 10.5996 45.1859 10.5943 45.2207 10.5891C45.2365 10.587 45.2534 10.5848 45.2692 10.5817C45.3178 10.5722 45.3652 10.5606 45.4127 10.5469C45.4137 10.5469 45.4158 10.5469 45.4169 10.5458C45.5593 10.5047 45.6964 10.4414 45.8251 10.3602C45.8293 10.3581 45.8335 10.356 45.8377 10.3528C45.8641 10.3359 45.8894 10.3159 45.9147 10.2969C45.9316 10.2843 45.9495 10.2727 45.9664 10.2589C45.9843 10.2442 46.0012 10.2284 46.0181 10.2136C46.0413 10.1936 46.0645 10.1735 46.0856 10.1524C46.0877 10.1503 46.0898 10.1482 46.0919 10.1461C46.1067 10.1313 46.1193 10.1155 46.1341 10.0997C46.151 10.0807 46.1689 10.0638 46.1858 10.0448C46.1879 10.0417 46.19 10.0385 46.1921 10.0364C46.2111 10.0132 46.228 9.99 46.2459 9.96574C46.2596 9.94781 46.2733 9.92988 46.286 9.91195C46.3049 9.88453 46.3208 9.85605 46.3376 9.82652C46.3471 9.8107 46.3566 9.79488 46.3651 9.77906C46.3819 9.74848 46.3967 9.71684 46.4104 9.6852C46.4178 9.67043 46.4252 9.65461 46.4315 9.63984C46.4452 9.6082 46.4558 9.57551 46.4674 9.54387C46.4726 9.52699 46.48 9.51117 46.4842 9.4943C46.4937 9.46371 46.5011 9.43207 46.5085 9.40148C46.5127 9.3825 46.519 9.36352 46.5222 9.34453C46.5285 9.315 46.5317 9.28652 46.5359 9.25699C46.5391 9.23484 46.5433 9.21375 46.5454 9.1916C46.5486 9.16313 46.5496 9.13465 46.5507 9.10723C46.5517 9.08402 46.5539 9.06082 46.5539 9.03867C46.5539 9.00914 46.5517 8.97855 46.5507 8.94902C46.5507 8.93004 46.5507 8.91105 46.5486 8.89102L46.1573 4.41492C46.0814 3.5448 45.3146 2.90145 44.4434 2.97633C43.5733 3.05227 42.9289 3.82008 43.0048 4.6902L43.0576 5.28926C38.437 1.8552 32.8608 0 26.9999 0C22.565 0 18.1627 1.10215 14.2688 3.18727C13.4989 3.59965 13.2089 4.55836 13.6212 5.32934C14.0336 6.09926 14.9923 6.3893 15.7633 5.97691Z" fill="#FF4748"/>
<path d="M3.16406 27C3.16406 21.8574 4.78301 16.9636 7.77727 12.8989L7.84266 13.6414C7.91437 14.4651 8.6052 15.0852 9.4173 15.0852C9.46371 15.0852 9.51012 15.0831 9.55652 15.0789C10.4266 15.003 11.0711 14.2351 10.9951 13.365L10.6038 8.88894C10.6038 8.88894 10.6038 8.88472 10.6038 8.88261C10.5996 8.84148 10.5933 8.79929 10.587 8.75815C10.5848 8.74761 10.5848 8.73706 10.5827 8.72651C10.5732 8.67589 10.5606 8.62526 10.5458 8.57569C10.5395 8.55354 10.5311 8.53351 10.5237 8.51136C10.5142 8.48394 10.5057 8.45651 10.4952 8.42909C10.4836 8.39956 10.4688 8.37108 10.4551 8.34261C10.4467 8.32468 10.4393 8.30569 10.4298 8.28776C10.4087 8.24874 10.3866 8.21077 10.3623 8.17386C10.3581 8.16753 10.3549 8.16015 10.3507 8.15382C10.3222 8.11058 10.2906 8.06839 10.2579 8.02726C10.2526 8.01987 10.2452 8.01355 10.24 8.00722C10.2115 7.97452 10.183 7.94183 10.1524 7.91124C10.1503 7.90913 10.1493 7.90808 10.1482 7.90597C10.1355 7.89331 10.1208 7.88171 10.1071 7.86905C10.0839 7.84796 10.0617 7.82687 10.0385 7.80683C10.0164 7.7889 9.99316 7.77202 9.96996 7.75515C9.95203 7.74144 9.93516 7.72773 9.91617 7.71612C9.8898 7.69819 9.86238 7.68132 9.83391 7.6655C9.81809 7.65601 9.80121 7.64546 9.78539 7.63702C9.75691 7.6212 9.72738 7.60749 9.69891 7.59378C9.68203 7.58534 9.6641 7.5769 9.64723 7.56952C9.61875 7.55792 9.59027 7.54737 9.56074 7.53683C9.5407 7.52944 9.52172 7.52206 9.50168 7.51573C9.47426 7.5073 9.44578 7.49991 9.41836 7.49358C9.39621 7.48831 9.37406 7.48198 9.35191 7.47776C9.32449 7.47249 9.29707 7.46827 9.26965 7.46405C9.24645 7.46089 9.22324 7.45667 9.19898 7.45351C9.17051 7.45034 9.14098 7.44929 9.11145 7.44823C9.0893 7.44718 9.06609 7.44507 9.04395 7.44507C9.0123 7.44507 8.97961 7.44718 8.94797 7.44823C8.93004 7.44823 8.91211 7.44823 8.89418 7.45034L4.41809 7.84163C3.54797 7.91757 2.90355 8.68538 2.97949 9.5555C3.05543 10.4256 3.82219 11.0669 4.69336 10.9941L5.29242 10.9414C1.8552 15.563 0 21.1391 0 27C0 31.435 1.10215 35.8373 3.18727 39.7301C3.47203 40.2627 4.01836 40.5654 4.58367 40.5654C4.83574 40.5654 5.09203 40.5053 5.32934 40.3777C6.09926 39.9653 6.3893 39.0066 5.97691 38.2356C4.13648 34.8005 3.16406 30.915 3.16406 26.999V27Z" fill="#454F5B"/>
<path d="M27 21.1992C23.8011 21.1992 21.1992 23.8011 21.1992 27C21.1992 30.1989 23.8011 32.8008 27 32.8008C30.1989 32.8008 32.8008 30.1989 32.8008 27C32.8008 23.8011 30.1989 21.1992 27 21.1992ZM27 29.6367C25.5456 29.6367 24.3633 28.4544 24.3633 27C24.3633 25.5456 25.5456 24.3633 27 24.3633C28.4544 24.3633 29.6367 25.5456 29.6367 27C29.6367 28.4544 28.4544 29.6367 27 29.6367Z" fill="#454F5B"/>
<path d="M40.5485 29.3667L39.1573 28.2213C38.7914 27.9197 38.5804 27.4746 38.5804 27C38.5804 26.5254 38.7903 26.0803 39.1573 25.7787L40.5485 24.6333C41.1454 24.1418 41.2994 23.2907 40.9134 22.6209L37.7493 17.1408C37.3623 16.4711 36.548 16.1789 35.8245 16.45L34.137 17.0817C33.693 17.2484 33.2015 17.2072 32.7912 16.9699C32.3799 16.7326 32.0994 16.3276 32.0213 15.8604L31.7249 14.0832C31.5973 13.3207 30.9382 12.7617 30.164 12.7617H23.8359C23.0628 12.7617 22.4026 13.3207 22.275 14.0832L21.9786 15.8604C21.9005 16.3287 21.62 16.7326 21.2097 16.9699C20.7984 17.2072 20.308 17.2473 19.8639 17.0817L18.1764 16.45C17.4519 16.1789 16.6376 16.4711 16.2516 17.1408L13.0876 22.6209C12.7005 23.2907 12.8555 24.1418 13.4525 24.6333L14.8436 25.7787C15.2096 26.0803 15.4205 26.5254 15.4205 27C15.4205 27.4746 15.2107 27.9197 14.8436 28.2213L13.4525 29.3667C12.8555 29.8582 12.7016 30.7093 13.0876 31.3791L16.2516 36.8592C16.6387 37.5289 17.4529 37.8211 18.1764 37.55L19.8639 36.9183C20.308 36.7516 20.7984 36.7928 21.2097 37.0301C21.621 37.2674 21.9016 37.6724 21.9796 38.1407L22.276 39.9178C22.4036 40.6804 23.0628 41.2393 23.8369 41.2393H30.1651C30.9382 41.2393 31.5984 40.6804 31.726 39.9178L32.0224 38.1407C32.1004 37.6724 32.381 37.2674 32.7923 37.0301C33.2036 36.7928 33.694 36.7527 34.1381 36.9183L35.8256 37.55C36.5501 37.8211 37.3644 37.5289 37.7504 36.8592L40.9144 31.3791C41.3015 30.7093 41.1465 29.8582 40.5495 29.3667H40.5485ZM35.679 34.117L35.2466 33.9546C33.9134 33.4557 32.4411 33.577 31.2082 34.2889C29.9752 35.0009 29.1336 36.2148 28.8994 37.6186L28.8235 38.0742H25.1753L25.0994 37.6186C24.8653 36.2137 24.0236 35.0009 22.7907 34.2889C21.5578 33.577 20.0865 33.4557 18.7523 33.9546L18.3199 34.117L16.4963 30.9582L16.8528 30.665C17.9518 29.7601 18.5825 28.4249 18.5825 27.0011C18.5825 25.5772 17.9518 24.242 16.8528 23.3371L16.4963 23.0439L18.3199 19.8851L18.7523 20.0475C20.0854 20.5474 21.5578 20.4251 22.7907 19.7132C24.0236 19.0013 24.8653 17.7873 25.0994 16.3835L25.1753 15.9279H28.8235L28.8994 16.3835C29.1336 17.7884 29.9752 19.0013 31.2082 19.7132C32.4411 20.4251 33.9134 20.5464 35.2466 20.0475L35.679 19.8851L37.5025 23.0439L37.146 23.3371C36.0471 24.242 35.4164 25.5772 35.4164 27.0011C35.4164 28.4249 36.0471 29.7601 37.146 30.665L37.5025 30.9582L35.679 34.117Z" fill="#454F5B"/>
<path d="M49.3121 43.006L48.7131 43.0587C52.145 38.4381 54.0002 32.862 54.0002 27.0011C54.0002 22.5661 52.8981 18.1639 50.813 14.271C50.4006 13.5011 49.4419 13.211 48.6709 13.6234C47.901 14.0358 47.6109 14.9945 48.0233 15.7644C49.8637 19.1996 50.8362 23.085 50.8362 27.0011C50.8362 32.1437 49.2172 37.0375 46.223 41.1023L46.1576 40.3598C46.0816 39.4896 45.3149 38.8452 44.4437 38.9222C43.5736 38.9982 42.9292 39.766 43.0051 40.6361L43.3964 45.1122C43.3964 45.1122 43.3964 45.1175 43.3964 45.1196C43.3996 45.1491 43.4038 45.1776 43.408 45.2061C43.4112 45.2271 43.4133 45.2493 43.4175 45.2704C43.4249 45.3084 43.4344 45.3453 43.4449 45.3832C43.4481 45.3948 43.4502 45.4075 43.4533 45.4191C43.4924 45.553 43.5504 45.6817 43.6253 45.803C43.6326 45.8146 43.639 45.8273 43.6464 45.8389C43.6601 45.86 43.6759 45.8789 43.6906 45.9C43.7075 45.9232 43.7233 45.9464 43.7402 45.9675C43.7508 45.9812 43.7634 45.9939 43.775 46.0076C43.7982 46.035 43.8214 46.0614 43.8467 46.0878C43.8489 46.0899 43.8499 46.0909 43.851 46.093C43.8626 46.1046 43.8752 46.1141 43.8868 46.1257C43.909 46.1458 43.929 46.1669 43.9522 46.1869C43.9554 46.1901 43.9596 46.1922 43.9638 46.1954C43.9765 46.2059 43.9902 46.2154 44.0028 46.2259C44.0292 46.246 44.0545 46.266 44.0819 46.2839C44.0999 46.2966 44.1178 46.3071 44.1368 46.3187C44.16 46.3335 44.1832 46.3472 44.2064 46.3599C44.2264 46.3715 44.2475 46.382 44.2686 46.3926C44.2918 46.4042 44.314 46.4147 44.3372 46.4242C44.3593 46.4337 44.3804 46.4432 44.4026 46.4516C44.4268 46.4611 44.4511 46.4696 44.4753 46.477C44.4964 46.4843 44.5175 46.4907 44.5397 46.497C44.5671 46.5044 44.5945 46.5107 44.6219 46.517C44.6409 46.5212 44.6599 46.5265 44.6799 46.5297C44.7137 46.536 44.7474 46.5402 44.7812 46.5445C44.7949 46.5466 44.8086 46.5487 44.8223 46.5497C44.8708 46.5539 44.9194 46.5571 44.9689 46.5571C45.0143 46.5571 45.0607 46.555 45.1071 46.5508L49.5832 46.1595C50.4533 46.0836 51.0977 45.3157 51.0218 44.4456C50.9458 43.5755 50.1791 42.9311 49.3079 43.0081L49.3121 43.006Z" fill="#454F5B"/>
</g>
</g>
<defs>
<clipPath id="clip0_63_415">
<rect width="54" height="54" fill="white"/>
</clipPath>
<clipPath id="clip1_63_415">
<rect width="54" height="54" fill="white"/>
</clipPath>
</defs>
</svg>
