<svg width="61" height="61" viewBox="0 0 61 61" fill="none" xmlns="http://www.w3.org/2000/svg">
<g clip-path="url(#clip0_60_187)">
<path d="M18.1663 31.103C19.4602 31.103 20.5124 30.0507 20.5124 28.7568C20.5124 26.3544 22.4668 24.4 24.8692 24.4C27.2717 24.4 29.226 26.3544 29.226 28.7568V29.1967C29.2225 30.5845 28.4811 31.8936 27.2963 32.6104L25.1883 33.875C23.5519 34.8639 22.5301 36.6669 22.5243 38.5825V40.8231C22.5243 42.117 23.5765 43.1693 24.8704 43.1693C26.1643 43.1693 27.2166 42.117 27.2166 40.8231V38.586C27.2166 38.3057 27.3679 38.0406 27.606 37.8963L29.7117 36.6317C32.2995 35.0703 33.9113 32.2233 33.9195 29.1991V28.7557C33.9195 23.7666 29.8607 19.7065 24.8704 19.7065C19.8801 19.7065 15.8213 23.7654 15.8213 28.7557C15.8213 30.0496 16.8735 31.1018 18.1674 31.1018L18.1663 31.103Z" fill="#00AB55"/>
<path d="M24.8692 9.38452C11.156 9.38452 1.34716e-05 20.5405 1.34716e-05 34.2526C-0.00467884 38.7678 1.21649 43.182 3.53567 47.0485L0.10911 57.9499C0.0375519 58.1775 0.00118655 58.4133 0.00118655 58.6526C0.00118655 59.279 0.244014 59.8691 0.687437 60.3125C1.13086 60.7559 1.71974 60.9999 2.34617 61.0011C2.82244 61.0011 3.28228 60.858 3.67526 60.5882L11.4715 55.2307C15.4729 57.7798 20.0901 59.123 24.8692 59.123C38.5825 59.123 49.7385 47.967 49.7385 34.2538C49.7385 20.5405 38.5825 9.38452 24.8692 9.38452ZM8.33707 47.4227C8.55174 46.7435 8.44851 46.0138 8.05553 45.4203C5.85601 42.1016 4.69232 38.2399 4.69232 34.2526C4.69232 23.1271 13.7438 14.0757 24.8692 14.0757C35.9947 14.0757 45.0462 23.1271 45.0462 34.2526C45.0462 45.378 35.9947 54.4295 24.8669 54.4295C24.8505 54.4295 24.8352 54.4295 24.8176 54.4295C20.5429 54.4295 16.2976 53.0324 12.8569 50.4938C12.4511 50.1959 11.9701 50.0375 11.468 50.0375C10.9659 50.0375 10.5319 50.1806 10.1389 50.4504L6.62555 52.8646L8.33707 47.4215V47.4227Z" fill="#454F5B"/>
<path d="M60.8908 48.5654L57.4619 37.664C59.7776 33.8034 60.9999 29.3891 60.9999 24.8693C60.9999 11.156 49.844 2.55862e-05 36.133 2.55862e-05C31.192 -0.00701288 26.4118 1.43822 22.3072 4.18908L22.2849 4.20433C21.2749 4.9246 21.0004 6.31118 21.6596 7.36226C22.347 8.45791 23.7981 8.78989 24.8938 8.10247L24.9173 8.08722C28.2335 5.86658 32.1117 4.69233 36.1319 4.69233C47.2573 4.69233 56.3088 13.7438 56.3088 24.8704C56.3135 28.8542 55.1498 32.7148 52.9456 36.0346C52.5526 36.6282 52.4494 37.3578 52.664 38.0359L54.3767 43.4836L52.5526 42.2308C51.4863 41.4976 50.0234 41.7686 49.2903 42.8349C48.5571 43.9013 48.8281 45.3641 49.8944 46.0984L57.327 51.2037C57.72 51.4735 58.1798 51.6166 58.6561 51.6166C58.8943 51.6166 59.13 51.5802 59.3588 51.5087C59.9571 51.321 60.4451 50.9116 60.7348 50.3555C61.0246 49.7995 61.0809 49.1649 60.8932 48.5666L60.8908 48.5654Z" fill="#FF4748"/>
<path d="M24.8691 48.8C26.1648 48.8 27.2153 47.7496 27.2153 46.4538C27.2153 45.1581 26.1648 44.1077 24.8691 44.1077C23.5734 44.1077 22.5229 45.1581 22.5229 46.4538C22.5229 47.7496 23.5734 48.8 24.8691 48.8Z" fill="#00AB55"/>
</g>
<defs>
<clipPath id="clip0_60_187">
<rect width="61" height="61" fill="white"/>
</clipPath>
</defs>
</svg>
