<svg width="54" height="54" viewBox="0 0 54 54" fill="none" xmlns="http://www.w3.org/2000/svg">
<g clip-path="url(#clip0_138_4761)">
<path d="M21.4636 36.3825L28.9231 14.004C29.2022 13.182 28.7525 12.2826 27.915 12.0034C27.0931 11.7243 26.1936 12.174 25.9145 13.0115L18.455 35.39C18.1758 36.2119 18.6256 37.1114 19.463 37.3905C19.6336 37.4526 19.8042 37.4681 19.9593 37.4681C20.6261 37.4681 21.2465 37.0494 21.4636 36.3825ZM32.6451 29.4348C35.266 29.4348 37.3906 27.3101 37.3906 24.6892C37.3906 22.0683 35.266 19.9437 32.6451 19.9437C30.0242 19.9437 27.8995 22.0683 27.8995 24.6892C27.8995 27.3101 30.0242 29.4348 32.6451 29.4348ZM32.6451 23.1074C33.5136 23.1074 34.2269 23.8208 34.2269 24.6892C34.2269 25.5577 33.5136 26.2711 32.6451 26.2711C31.7766 26.2711 31.0632 25.5577 31.0632 24.6892C31.0632 23.8208 31.7766 23.1074 32.6451 23.1074ZM14.7485 19.9437C12.1276 19.9437 10.0029 22.0683 10.0029 24.6892C10.0029 27.3101 12.1276 29.4348 14.7485 29.4348C17.3694 29.4348 19.494 27.3101 19.494 24.6892C19.494 22.0683 17.3694 19.9437 14.7485 19.9437ZM14.7485 26.2711C13.88 26.2711 13.1666 25.5577 13.1666 24.6892C13.1666 23.8208 13.88 23.1074 14.7485 23.1074C15.6169 23.1074 16.3303 23.8208 16.3303 24.6892C16.3303 25.5577 15.6169 26.2711 14.7485 26.2711Z" fill="#FF4748"/>
<path d="M19.1994 47.5642C19.1994 47.5642 20.378 48.3861 22.3786 48.4016C23.8053 48.3551 25.2321 47.7968 26.3177 46.7112L45.7031 27.3258C45.9512 27.0777 46.1063 26.7675 46.1528 26.4263L47.5486 16.7026L48.1844 12.2672L48.4016 10.7629C48.4791 10.2666 48.3085 9.77036 47.9518 9.41367L44.602 6.06387L47.9518 2.71407C48.5721 2.09374 48.5721 1.10121 47.9518 0.480875C47.3315 -0.139458 46.3389 -0.139458 45.7186 0.480875L42.3688 3.83067L39.019 0.480875C38.6623 0.124183 38.1661 -0.0309 37.6698 0.0311333L22.0064 2.26433C21.6652 2.31086 21.355 2.46594 21.1069 2.71407L1.70597 22.084C-0.558241 24.3482 -0.558241 28.0237 1.70597 30.2879L18.1138 46.6957C18.4395 47.0214 18.8117 47.316 19.1994 47.5487V47.5642ZM3.93917 24.3327L22.9524 5.30397L37.3131 3.25687L40.1046 6.04837L37.8714 8.28156L36.7548 7.16496C36.1345 6.54463 35.1419 6.54463 34.5216 7.16496C33.9013 7.7853 33.9013 8.77783 34.5216 9.39816L39.0035 13.8801C39.3137 14.1902 39.7169 14.3453 40.1201 14.3453C40.5233 14.3453 40.9265 14.1902 41.2367 13.8801C41.857 13.2597 41.857 12.2672 41.2367 11.6469L40.1201 10.5303L42.3533 8.29707L45.1448 11.0886L43.0977 25.4493L24.0845 44.4625C23.5882 44.9588 22.9214 45.2379 22.2235 45.2379C21.5256 45.2379 20.8588 44.9588 20.3625 44.4625L3.93917 28.0547C2.91562 27.0311 2.91562 25.3562 3.93917 24.3327Z" fill="#454F5B"/>
<path d="M53.6898 19.6181L51.6117 16.5784C50.8207 15.4308 49.0373 15.8806 48.8667 17.2608C48.8667 17.2608 48.8667 17.2918 48.8667 17.3073C48.8357 17.6485 48.9132 17.9742 49.0838 18.2689L50.8518 21.0914V48.1999C50.8518 49.6577 49.6731 50.8363 48.2153 50.8363H25.0149C24.348 50.8363 23.7432 50.5882 23.2935 50.185C22.8592 49.8128 22.3009 49.6422 21.7736 49.8438C21.6806 49.8748 21.572 49.9214 21.4635 49.9679C20.4709 50.3556 20.2383 51.6273 20.9982 52.3717C22.0373 53.3797 23.4485 54.0156 25.0304 54.0156H48.2308C51.4411 54.0156 54.031 51.4257 54.031 48.2154V20.5641C54.031 20.2229 53.9224 19.8817 53.7208 19.6181H53.6898Z" fill="#00AB55"/>
</g>
<defs>
<clipPath id="clip0_138_4761">
<rect width="54" height="54" fill="white"/>
</clipPath>
</defs>
</svg>
