<svg width="54" height="54" viewBox="0 0 54 54" fill="none" xmlns="http://www.w3.org/2000/svg">
<g clip-path="url(#clip0_62_365)">
<path d="M38.2943 3H6.81953C3.06005 3 0 6.02158 0 9.73381V40.8129C0 44.5252 3.06005 47.5468 6.81953 47.5468H28.8694C29.3874 47.5468 29.8453 47.2975 30.1316 46.9165C30.6497 46.4611 30.9764 45.7975 30.9764 45.0604V6.10791H38.2943C40.3194 6.10791 41.9664 7.73417 41.9664 9.73381V24.5309C41.9664 25.3888 42.6724 26.0838 43.5412 26.0838C44.4089 26.0838 45.1127 25.3888 45.1138 24.5309V9.73381C45.1138 6.02158 42.0538 3 38.2943 3ZM3.14748 40.8129V9.73381C3.14748 7.73417 4.79335 6.10791 6.81953 6.10791H14.1374V44.4388H6.81953C4.79444 44.4388 3.14748 42.8126 3.14748 40.8129ZM27.8268 43.3424V44.4388H17.2849V6.10791H27.8268V43.3424Z" fill="#454F5B"/>
<path d="M6.85986 40.46C6.85986 41.318 7.56586 42.0129 8.43469 42.0129C9.30244 42.0129 10.0062 41.318 10.0073 40.46V10.2809C10.0073 9.42299 9.30134 8.72803 8.43251 8.72803C7.56477 8.72803 6.86096 9.42299 6.85986 10.2809V40.46Z" fill="#00AB55"/>
<path d="M52.2177 32.726L44.9206 29.1065C44.0059 28.6533 42.9272 28.6533 42.0125 29.1065L34.7175 32.726C33.6028 33.2709 32.9077 34.4029 32.9318 35.6299C32.9722 38.4044 33.7766 47.7044 42.3359 50.8037C43.066 51.0659 43.866 51.0659 44.5949 50.8037C53.1543 47.7044 53.9565 38.4044 53.9991 35.6299C54.0264 34.4029 53.3313 33.2698 52.2177 32.726ZM43.5152 47.8878H43.419C36.9284 45.5364 36.124 38.5004 36.1306 35.5047L43.5075 31.8853L50.8549 35.5857C50.809 38.5004 50.0046 45.5342 43.5141 47.8878H43.5152Z" fill="#FF4748"/>
</g>
<defs>
<clipPath id="clip0_62_365">
<rect width="54" height="48" fill="white" transform="translate(0 3)"/>
</clipPath>
</defs>
</svg>
