<svg width="61" height="60" viewBox="0 0 61 60" fill="none" xmlns="http://www.w3.org/2000/svg">
<g clip-path="url(#clip0_46_154)">
<path d="M9.53335 -0.000105696L16.2062 -0.000105113C17.5205 -0.000104998 18.5906 1.04845 18.5906 2.34515C18.5906 3.64184 17.5245 4.6904 16.2062 4.6904L9.53335 4.6904C6.90488 4.6904 4.76874 6.79152 4.76874 9.37689L4.76874 15.9404C4.76874 17.2331 3.7027 18.2856 2.3844 18.2856C1.0661 18.2856 6.30342e-05 17.2371 6.31475e-05 15.9404L6.37213e-05 9.37689C6.41734e-05 4.20614 4.27641 0.00389355 9.52928 0.00389401L9.53335 -0.000105696Z" fill="#454F5B"/>
<path d="M30.5 -1.02958e-05L53.8511 -8.25438e-06C57.7938 -7.90969e-06 61 3.15367 61 7.03174L61 30C61 33.8781 57.7938 37.0317 53.8511 37.0317L39.2114 37.0317C37.8971 37.0317 36.827 35.9832 36.827 34.6865C36.827 33.3898 37.8931 32.3412 39.2114 32.3412L53.8511 32.3412C55.1653 32.3412 56.2354 31.2887 56.2354 29.996L56.2354 7.02774C56.2354 5.73505 55.1653 4.68249 53.8511 4.68249L30.5 4.68248C29.1858 4.68248 28.1157 5.73505 28.1157 7.02774L28.1157 21.4274C28.1157 22.7201 27.0496 23.7727 25.7313 23.7727C24.413 23.7727 23.347 22.7241 23.347 21.4274L23.347 7.02774C23.347 3.14967 26.5532 -0.00400844 30.4959 -0.0040081L30.5 -1.02958e-05Z" fill="#FF4748"/>
<path d="M2.38422 22.9682C3.69845 22.9682 4.76856 24.0168 4.76856 25.3135L4.76855 34.6865C4.76855 35.9792 3.70252 37.0317 2.38422 37.0317C1.06591 37.0317 -0.000122932 35.9832 -0.000122819 34.6865L-0.000122 25.3135C-0.000121887 24.0208 1.06591 22.9682 2.38422 22.9682Z" fill="#454F5B"/>
<path d="M2.3844 41.7182C3.69864 41.7182 4.76874 42.7667 4.76874 44.0634L4.76874 50.6269C4.76874 53.2123 6.90488 55.3134 9.53335 55.3134L16.2062 55.3134C17.5205 55.3134 18.5906 56.362 18.5906 57.6587C18.5906 58.9553 17.5245 60.0039 16.2062 60.0039L9.53335 60.0039C4.27641 60.0039 0.00412787 55.7977 0.00412832 50.6309L0.0041289 44.0674C0.00412901 42.7747 1.07017 41.7222 2.38847 41.7222L2.3844 41.7182Z" fill="#454F5B"/>
<path d="M58.6157 41.7183C59.9299 41.7183 61 42.7668 61 44.0635L61 50.627C61 55.7938 56.7237 60 51.4708 60L44.7979 60C43.4837 60 42.4136 58.9514 42.4136 57.6547C42.4136 56.3581 43.4796 55.3095 44.7979 55.3095L51.4708 55.3095C54.0993 55.3095 56.2354 53.2084 56.2354 50.623L56.2354 44.0595C56.2354 42.7668 57.3014 41.7142 58.6197 41.7142L58.6157 41.7183Z" fill="#454F5B"/>
<path d="M25.7354 55.3134L35.2646 55.3134C36.5788 55.3134 37.6489 56.362 37.6489 57.6587C37.6489 58.9553 36.5829 60.0039 35.2646 60.0039L25.7354 60.0039C24.4211 60.0039 23.351 58.9553 23.351 57.6587C23.351 56.362 24.4171 55.3134 25.7354 55.3134Z" fill="#454F5B"/>
<path d="M11.9134 50.627L19.0624 50.627C20.3766 50.627 21.4467 49.5784 21.4467 48.2817C21.4467 46.985 20.3807 45.9364 19.0624 45.9364L17.6668 45.9364L42.4135 21.5955L42.4135 22.9682C42.4135 24.2609 43.4795 25.3135 44.7978 25.3135C46.1161 25.3135 47.1821 24.2649 47.1821 22.9682L47.1821 15.9365C47.1821 14.6438 46.1161 13.5912 44.7978 13.5912L37.6488 13.5912C36.3346 13.5912 35.2645 14.6398 35.2645 15.9365C35.2645 17.2331 36.3305 18.2817 37.6488 18.2817L39.0445 18.2817L14.2978 42.6227L14.2978 41.25C14.2978 39.9573 13.2318 38.9047 11.9134 38.9047C10.5951 38.9047 9.52911 39.9533 9.52911 41.2499L9.52911 48.2817C9.52911 49.5744 10.5951 50.6269 11.9134 50.627Z" fill="#00AB55"/>
</g>
<defs>
<clipPath id="clip0_46_154">
<rect width="61" height="60" fill="white" transform="translate(61 60) rotate(-180)"/>
</clipPath>
</defs>
</svg>
