<svg width="54" height="54" viewBox="0 0 54 54" fill="none" xmlns="http://www.w3.org/2000/svg">
<g clip-path="url(#clip0_60_254)">
<path d="M5.9072 31.7461H5.90404C5.03077 31.744 4.32309 31.0342 4.3252 30.1609C4.33786 24.1229 6.69715 18.4465 10.9664 14.1772C11.5845 13.5591 12.5854 13.5591 13.2034 14.1772C13.8214 14.7952 13.8214 15.7972 13.2034 16.4142C9.52893 20.0887 7.49975 24.9729 7.48815 30.1683C7.48604 31.0406 6.77836 31.7472 5.90615 31.7472L5.9072 31.7461Z" fill="#454F5B"/>
<path d="M48.0938 31.746C47.2216 31.746 46.5139 31.0404 46.5118 30.1671C46.5002 24.9717 44.471 20.0875 40.7965 16.4129C40.1785 15.7949 40.1785 14.7929 40.7965 14.1759C41.4146 13.5579 42.4165 13.5579 43.0335 14.1759C47.3038 18.4453 49.6621 24.1227 49.6747 30.1597C49.6768 31.033 48.9702 31.7428 48.0959 31.7449H48.0927L48.0938 31.746Z" fill="#454F5B"/>
<path d="M27.0008 52.8895C25.4863 52.8895 23.9718 52.7366 22.4667 52.4307C21.6104 52.2567 21.0577 51.4214 21.2317 50.565C21.4057 49.7086 22.24 49.1549 23.0974 49.3299C25.6877 49.8562 28.3149 49.8562 30.9051 49.3299C31.7615 49.1559 32.5968 49.7086 32.7708 50.565C32.9449 51.4214 32.3922 52.2567 31.5358 52.4307C30.0319 52.7366 28.5163 52.8895 27.0018 52.8895H27.0008Z" fill="#454F5B"/>
<path d="M36.1192 16.7643L35.1394 12.8345C34.6965 11.0573 33.4667 9.64723 31.8753 8.93848C32.4606 8.03356 32.8013 6.95566 32.8013 5.80078C32.8013 2.60191 30.1994 0 27.0006 0C23.8018 0 21.1999 2.60191 21.1999 5.80078C21.1999 6.95672 21.5406 8.03356 22.1259 8.93848C20.5344 9.64723 19.3047 11.0573 18.8617 12.8345L17.8819 16.7643C17.6847 17.5574 17.8598 18.3811 18.3629 19.0255C18.8659 19.6699 19.6232 20.0391 20.4406 20.0391H33.5606C34.378 20.0391 35.1352 19.6699 35.6383 19.0255C36.1414 18.3811 36.3165 17.5574 36.1192 16.7643ZM27.0006 3.16406C28.455 3.16406 29.6373 4.34637 29.6373 5.80078C29.6373 7.2552 28.455 8.4375 27.0006 8.4375C25.5462 8.4375 24.3639 7.2552 24.3639 5.80078C24.3639 4.34637 25.5462 3.16406 27.0006 3.16406ZM21.1155 16.875L21.9319 13.6002C22.2251 12.4232 23.2776 11.6016 24.4905 11.6016H29.5107C30.7236 11.6016 31.7761 12.4232 32.0693 13.6002L32.8856 16.875H21.1155Z" fill="#FF4748"/>
<path d="M18.3165 50.7253L17.3367 46.7955C16.8938 45.0184 15.664 43.6082 14.0725 42.8995C14.6579 41.9946 14.9985 40.9167 14.9985 39.7607C14.9985 36.5619 12.3967 33.96 9.19785 33.96C5.99905 33.96 3.39718 36.5619 3.39718 39.7607C3.39718 40.9167 3.73784 41.9935 4.32318 42.8984C2.73169 43.6072 1.50195 45.0173 1.05899 46.7945L0.0792015 50.7253C-0.118021 51.5184 0.0570535 52.3421 0.56013 52.9865C1.06321 53.6309 1.82046 54.0001 2.63782 54.0001H15.7579C16.5752 54.0001 17.3325 53.6309 17.8356 52.9865C18.3386 52.3421 18.5137 51.5184 18.3165 50.7253ZM9.19785 37.1251C10.6522 37.1251 11.8345 38.3074 11.8345 39.7618C11.8345 41.2162 10.6522 42.3985 9.19785 42.3985C7.74347 42.3985 6.56118 41.2162 6.56118 39.7618C6.56118 38.3074 7.74347 37.1251 9.19785 37.1251ZM3.31281 50.836L4.12912 47.5612C4.42232 46.3842 5.47488 45.5626 6.68774 45.5626H11.708C12.9208 45.5626 13.9734 46.3842 14.2666 47.5612L15.0829 50.836H3.31281Z" fill="#454F5B"/>
<path d="M53.921 50.7252L52.9412 46.7954C52.4982 45.0183 51.2685 43.6082 49.677 42.8994C50.2624 41.9945 50.603 40.9166 50.603 39.7617C50.603 36.5629 48.0011 33.9609 44.8023 33.9609C41.6035 33.9609 39.0017 36.5629 39.0017 39.7617C39.0017 40.9177 39.3423 41.9945 39.9277 42.9005C38.3372 43.6092 37.1064 45.0193 36.6635 46.7965L35.6837 50.7262C35.4865 51.5194 35.6615 52.3431 36.1646 52.9875C36.6677 53.6319 37.4249 54.0011 38.2423 54.0011H51.3624C52.1797 54.0011 52.937 53.6319 53.4401 52.9875C53.9431 52.3431 54.1182 51.5194 53.921 50.7262V50.7252ZM44.8023 37.125C46.2567 37.125 47.439 38.3073 47.439 39.7617C47.439 41.2161 46.2567 42.3984 44.8023 42.3984C43.348 42.3984 42.1657 41.2161 42.1657 39.7617C42.1657 38.3073 43.348 37.125 44.8023 37.125ZM38.9173 50.8359L39.7336 47.5611C40.0268 46.3841 41.0794 45.5625 42.2922 45.5625H47.3125C48.5253 45.5625 49.5779 46.3841 49.8711 47.5611L50.6874 50.8359H38.9173Z" fill="#00AB55"/>
<path d="M24.5579 37.6081C24.1381 37.6081 23.7363 37.4415 23.4389 37.1451L20.6071 34.3133C19.989 33.6953 19.989 32.6933 20.6071 32.0763C21.2251 31.4583 22.227 31.4583 22.844 32.0763L24.5568 33.7891L31.1538 27.1921C31.7718 26.574 32.7737 26.574 33.3907 27.1921C34.0087 27.8101 34.0087 28.812 33.3907 29.429L25.6758 37.1451C25.3794 37.4415 24.9766 37.6081 24.5568 37.6081H24.5579Z" fill="#454F5B"/>
</g>
<defs>
<clipPath id="clip0_60_254">
<rect width="54" height="54" fill="white"/>
</clipPath>
</defs>
</svg>
