<svg width="54" height="54" viewBox="0 0 54 54" fill="none" xmlns="http://www.w3.org/2000/svg">
<g clip-path="url(#clip0_141_5242)">
<path d="M12.5943 40.0129V18.5684C12.5943 17.6404 11.8558 16.8796 10.9368 16.8796C10.0178 16.8796 9.27927 17.6321 9.27927 18.5684V40.0129C7.81867 40.6651 6.79297 42.1532 6.79297 43.8755C6.79297 46.1997 8.64744 48.0975 10.9368 48.0975C13.2262 48.0975 15.0806 46.208 15.0806 43.8755C15.0806 42.1449 14.0549 40.6651 12.5943 40.0129Z" fill="#00AB55"/>
<path d="M17.5671 36.3261V6.74686C17.5671 3.02647 14.5885 0 10.937 0C7.28549 0 4.31506 3.02647 4.31506 6.74686V36.3261C2.19802 38.249 1 40.9494 1 43.8755C1 49.4603 5.45564 54 10.937 54C16.4183 54 20.874 49.4603 20.874 43.8755C20.874 40.9494 19.676 38.249 17.5589 36.3261H17.5671ZM10.9452 50.6224C7.2937 50.6224 4.32327 47.5959 4.32327 43.8755C4.32327 41.7353 5.29153 39.7622 6.97368 38.4747C7.39217 38.157 7.63833 37.6554 7.63833 37.1287V6.74686C7.63833 4.88249 9.12355 3.36925 10.9534 3.36925C12.7832 3.36925 14.2685 4.88249 14.2685 6.74686V37.1203C14.2685 37.647 14.5146 38.1486 14.9331 38.4663C16.6153 39.7538 17.5835 41.7269 17.5835 43.8672C17.5835 47.5876 14.6131 50.614 10.9616 50.614L10.9452 50.6224Z" fill="#454F5B"/>
<path d="M37.4411 8.43579C32.8706 8.43579 29.1616 12.2231 29.1616 16.8715C29.1616 21.5199 32.8788 25.3071 37.4411 25.3071C42.0034 25.3071 45.7205 21.5199 45.7205 16.8715C45.7205 12.2231 42.0034 8.43579 37.4411 8.43579ZM37.4411 21.9379C34.7004 21.9379 32.4685 19.6638 32.4685 16.8715C32.4685 14.0791 34.7004 11.805 37.4411 11.805C40.1817 11.805 42.4137 14.0791 42.4137 16.8715C42.4137 19.6638 40.1817 21.9379 37.4411 21.9379Z" fill="#FF4748"/>
<path d="M37.4412 5.59313C38.352 5.59313 39.0988 4.84069 39.0988 3.90432V1.68881C39.0988 0.760799 38.3603 0 37.4412 0C36.5222 0 35.7837 0.752438 35.7837 1.68881V3.90432C35.7837 4.83233 36.5222 5.59313 37.4412 5.59313Z" fill="#FF4748"/>
<path d="M37.4412 28.158C36.5304 28.158 35.7837 28.9104 35.7837 29.8468V32.0623C35.7837 32.9903 36.5222 33.7511 37.4412 33.7511C38.3603 33.7511 39.0988 32.9986 39.0988 32.0623V29.8468C39.0988 28.9188 38.3603 28.158 37.4412 28.158Z" fill="#FF4748"/>
<path d="M26.3636 16.8797C26.3636 15.9517 25.6251 15.1909 24.706 15.1909H22.5316C21.6207 15.1909 20.874 15.9434 20.874 16.8797C20.874 17.8161 21.6125 18.5685 22.5316 18.5685H24.706C25.6169 18.5685 26.3636 17.8161 26.3636 16.8797Z" fill="#FF4748"/>
<path d="M52.3428 15.1909H50.1683C49.2574 15.1909 48.5107 15.9434 48.5107 16.8797C48.5107 17.8161 49.2492 18.5685 50.1683 18.5685H52.3428C53.2536 18.5685 54.0003 17.8161 54.0003 16.8797C54.0003 15.9434 53.2618 15.1909 52.3428 15.1909Z" fill="#FF4748"/>
<path d="M27.2333 8.86195C27.8816 9.52243 28.9319 9.52243 29.5719 8.86195C30.2202 8.20148 30.2202 7.13134 29.5719 6.47923L28.0621 4.94091C27.4138 4.28044 26.3635 4.28044 25.7235 4.94091C25.0752 5.60139 25.0752 6.67152 25.7235 7.32363L27.2333 8.86195Z" fill="#FF4748"/>
<path d="M47.649 24.8889C47.0008 24.2284 45.9504 24.2284 45.3104 24.8889C44.6622 25.5494 44.6622 26.6195 45.3104 27.2716L46.8202 28.8099C47.132 29.1276 47.5505 29.3032 47.9936 29.3032C49.4542 29.3032 50.2091 27.489 49.167 26.4189L47.6654 24.8805L47.649 24.8889Z" fill="#FF4748"/>
<path d="M27.2333 24.8889L25.7235 26.4272C25.0752 27.0877 25.0752 28.1578 25.7235 28.8099C26.3717 29.4704 27.422 29.4704 28.0621 28.8099L29.5719 27.2716C30.2202 26.6112 30.2202 25.541 29.5719 24.8889C28.9237 24.2284 27.8734 24.2284 27.2333 24.8889Z" fill="#FF4748"/>
<path d="M46.4757 9.35522C46.9024 9.35522 47.3209 9.18801 47.6491 8.86195L49.159 7.32363C49.8072 6.66316 49.8072 5.59303 49.159 4.94091C48.5107 4.28044 47.4604 4.28044 46.8204 4.94091L45.3105 6.47923C44.2602 7.54937 45.0234 9.36358 46.4839 9.36358L46.4757 9.35522Z" fill="#FF4748"/>
</g>
<defs>
<clipPath id="clip0_141_5242">
<rect width="53" height="54" fill="white" transform="translate(1)"/>
</clipPath>
</defs>
</svg>
