<svg width="54" height="54" viewBox="0 0 54 54" fill="none" xmlns="http://www.w3.org/2000/svg">
<g clip-path="url(#clip0_141_5365)">
<path d="M39.3361 10.4566C38.6269 5.60444 34.4977 2 29.6479 2C27.4289 2 25.267 2.76248 23.5284 4.1719L16.8142 9.60166C15.6131 10.5721 14.1262 11.092 12.5934 11.092H11.564C5.99358 11.092 1.25814 15.2047 0.434584 20.7731C-0.148767 24.909 -0.148767 29.1026 0.434584 33.2384C1.26958 38.8068 5.99358 42.9196 11.564 42.9196H12.5934C14.1262 42.9196 15.6131 43.451 16.8142 44.4099L23.5284 49.8396C27.7491 53.2477 33.9144 52.5661 37.2886 48.2916C38.3753 46.9168 39.0844 45.2879 39.3361 43.5434C40.1139 38.0675 40.5028 32.5337 40.5028 27C40.5028 21.4663 40.1139 15.9325 39.3361 10.4566ZM34.8752 42.908C34.4405 45.8309 31.7411 47.841 28.8586 47.402C27.9321 47.2634 27.0628 46.8822 26.3308 46.293L19.6051 40.8632C17.6034 39.2574 15.1327 38.3794 12.582 38.3678H11.5526C8.22404 38.3678 5.37591 35.9187 4.87263 32.5915C4.34647 28.8831 4.34647 25.1169 4.87263 21.4085C5.37591 18.0813 8.2126 15.6206 11.5526 15.6322H12.582C15.1327 15.6322 17.6148 14.7542 19.6051 13.1368L26.3308 7.70702C28.6184 5.8586 31.947 6.23983 33.7771 8.55037C34.3605 9.28974 34.7379 10.1562 34.8752 11.092C35.6187 16.36 35.9961 21.6742 35.9961 27C35.9961 32.3258 35.6187 37.64 34.8752 42.908Z" fill="#454F5B"/>
<path d="M43.9344 11.1035C42.6991 11.2537 41.8184 12.3858 41.9671 13.6335C42.4932 18.0698 42.7563 22.5291 42.7563 27C42.7563 31.4709 42.4932 35.9302 41.9671 40.3664C41.8184 41.6141 42.6991 42.7463 43.9344 42.8965C45.1698 43.0467 46.2907 42.1571 46.4394 40.9094C46.9884 36.2883 47.263 31.6442 47.263 27C47.263 22.3558 46.9884 17.7116 46.4394 13.0906C46.2907 11.8429 45.1698 10.9649 43.9344 11.1035Z" fill="#FF4748"/>
<path d="M53.1879 13.0905C53.0393 11.8428 51.9183 10.9533 50.683 11.1035C49.4476 11.2536 48.5669 12.3858 48.7156 13.6335C49.2418 18.0697 49.5048 22.5291 49.5048 26.9999C49.5048 31.4708 49.2418 35.9302 48.7156 40.3664C48.5669 41.6141 49.4476 42.7462 50.683 42.8964C51.9183 43.0466 53.0393 42.1571 53.1879 40.9094C53.737 36.2883 54.0115 31.6441 54.0115 26.9999C54.0115 22.3558 53.737 17.7116 53.1879 13.0905Z" fill="#FF4748"/>
<path d="M15.7504 17.908C14.5036 17.908 13.4971 18.9246 13.4971 20.1838V33.816C13.4971 35.0752 14.5036 36.0919 15.7504 36.0919C16.9972 36.0919 18.0037 35.0752 18.0037 33.816V20.1838C18.0037 18.9246 16.9972 17.908 15.7504 17.908Z" fill="#00AB55"/>
</g>
<defs>
<clipPath id="clip0_141_5365">
<rect width="54" height="50" fill="white" transform="translate(0 2)"/>
</clipPath>
</defs>
</svg>
