<svg width="54" height="54" viewBox="0 0 54 54" fill="none" xmlns="http://www.w3.org/2000/svg">
<g clip-path="url(#clip0_138_5234)">
<g clip-path="url(#clip1_138_5234)">
<path d="M51.6824 16.6762C50.5868 16.7815 49.7809 17.7665 49.7809 18.8673V47.6793C49.7809 48.8433 48.8381 49.7862 47.674 49.7862H31.1085C29.9444 49.7862 29.0016 48.8433 29.0016 47.6793V6.32599C29.0016 5.16192 29.9444 4.21908 31.1085 4.21908H35.238C36.3389 4.21908 37.3238 3.41319 37.4292 2.3176C37.5503 1.05872 36.5654 0 35.3275 0H2.10691C0.94284 0 0 0.94284 0 2.10691V51.8878C0 53.0519 0.94284 53.9947 2.10691 53.9947H51.8878C53.0519 53.9947 53.9947 53.0519 53.9947 51.8878V18.7725C53.9947 17.54 52.936 16.555 51.6771 16.6709L51.6824 16.6762ZM24.7825 48.2007C24.7825 49.0751 24.0767 49.7809 23.2023 49.7809H5.79926C4.92489 49.7809 4.21908 49.0751 4.21908 48.2007V26.4733C4.21908 25.5989 4.92489 24.8931 5.79926 24.8931H23.2076C24.0819 24.8931 24.7877 25.5989 24.7877 26.4733V48.2007H24.7825ZM24.7825 19.0938C24.7825 19.9682 24.0767 20.674 23.2023 20.674H5.79926C4.92489 20.674 4.21908 19.9682 4.21908 19.0938V5.79926C4.21908 4.92489 4.92489 4.21908 5.79926 4.21908H23.2076C24.0819 4.21908 24.7877 4.92489 24.7877 5.79926V19.0938H24.7825Z" fill="white"/>
<path d="M39.5255 36.7023C38.4246 36.7023 37.5134 35.8595 37.4238 34.7639C37.3396 33.7315 37.1974 33.1679 35.0641 32.6675C34.1107 32.4411 33.4365 31.593 33.4365 30.6133C33.4365 29.6336 34.1107 28.7856 35.0641 28.5591C37.2395 28.0482 37.3975 27.4108 37.4765 26.41C37.5661 25.3144 38.4773 24.4717 39.5782 24.4717C40.679 24.4717 41.5902 25.3144 41.6798 26.41C41.7588 27.4161 41.9168 28.064 44.0395 28.5591C44.9929 28.7856 45.6671 29.6336 45.6671 30.6133C45.6671 31.593 44.9929 32.4411 44.0395 32.6675C41.8589 33.1785 41.7061 33.7684 41.6271 34.7639C41.5376 35.8595 40.6263 36.7023 39.5255 36.7023Z" fill="#FF4748"/>
<path d="M43.7709 20.3527C42.67 20.3527 41.7588 19.51 41.6693 18.4144C41.3796 14.8432 39.8257 13.3525 35.2748 12.2833C34.3214 12.0568 33.6472 11.2087 33.6472 10.229C33.6472 9.24932 34.3214 8.40129 35.2748 8.1748C39.7888 7.11608 41.4902 5.48322 41.7746 1.93835C41.8589 0.842763 42.7754 0 43.8762 0C44.9771 0 45.8883 0.842763 45.9779 1.93835C46.2676 5.54643 47.8846 7.12134 52.3723 8.1748C53.3257 8.40129 53.9999 9.24932 53.9999 10.229C53.9999 11.2087 53.3257 12.0568 52.3723 12.2833C47.7951 13.3578 46.157 14.9064 45.8725 18.4144C45.783 19.51 44.8665 20.3527 43.7709 20.3527Z" fill="#00AB55"/>
<path d="M41.522 10.2184C42.3647 10.7609 43.139 11.4246 43.7869 12.2463C44.0555 11.9145 44.3505 11.6037 44.6665 11.3087C45.1037 10.9084 45.5883 10.5397 46.1256 10.1973C45.5936 9.8497 45.1195 9.47045 44.6876 9.05961C44.3821 8.76991 44.1029 8.45914 43.8501 8.13257C43.1759 8.9806 42.3805 9.66008 41.522 10.2131V10.2184Z" fill="white"/>
</g>
</g>
<defs>
<clipPath id="clip0_138_5234">
<rect width="54" height="54" fill="white"/>
</clipPath>
<clipPath id="clip1_138_5234">
<rect width="54" height="54" fill="white"/>
</clipPath>
</defs>
</svg>
