<?xml version="1.0" standalone="no"?>
<!DOCTYPE svg PUBLIC "-//W3C//DTD SVG 20010904//EN"
 "http://www.w3.org/TR/2001/REC-SVG-20010904/DTD/svg10.dtd">
<svg version="1.0" xmlns="http://www.w3.org/2000/svg"
 width="700.000000pt" height="700.000000pt" viewBox="0 0 700.000000 700.000000"
 preserveAspectRatio="xMidYMid meet">
<metadata>
Created by potrace 1.14, written by Peter Selinger 2001-2017
</metadata>
<g transform="translate(0.000000,700.000000) scale(0.100000,-0.100000)"
fill="#000000" stroke="none">
<path d="M1270 6875 c-609 -104 -1082 -538 -1224 -1122 -47 -195 -47 -204 -44
-2373 l3 -2045 23 -108 c67 -313 194 -551 416 -773 182 -181 379 -302 611
-373 213 -65 189 -64 1098 -68 l828 -4 -4 398 c-4 439 -5 444 -73 591 -98 214
-279 370 -509 441 -44 14 -120 26 -205 32 -164 11 -231 27 -335 79 -146 71
-246 172 -320 319 -75 148 -70 46 -70 1586 0 1552 -6 1426 77 1595 33 68 59
102 127 171 71 71 102 94 181 133 165 81 66 77 1623 74 l1382 -3 80 -27 c109
-37 196 -90 275 -168 128 -126 194 -275 210 -479 11 -132 20 -172 62 -255 64
-126 212 -232 358 -255 39 -7 261 -11 553 -11 l488 0 -4 688 c-3 664 -4 690
-25 784 -67 295 -201 538 -411 748 -210 210 -430 333 -731 408 l-105 27 -2130
1 c-1696 2 -2145 0 -2205 -11z"/>
<path d="M5793 3675 c-118 -32 -225 -112 -295 -219 -74 -115 -71 -89 -78 -786
l-6 -625 -27 -80 c-71 -212 -222 -369 -429 -447 l-83 -32 -350 -7 c-310 -6
-359 -9 -430 -28 -241 -64 -429 -217 -535 -436 -81 -168 -82 -176 -87 -618
l-5 -388 1054 4 c1025 3 1056 4 1149 24 598 131 1028 549 1177 1143 l26 105 3
1203 4 1202 -518 -1 c-413 0 -529 -3 -570 -14z"/>
</g>
</svg>
