<svg width="79" height="79" viewBox="0 0 79 79" fill="none" xmlns="http://www.w3.org/2000/svg">
<g clip-path="url(#clip0_1_4211)">
<path d="M39.37 78.66C61.0914 78.66 78.7 61.0514 78.7 39.33C78.7 17.6086 61.0914 0 39.37 0C17.6487 0 0.0400085 17.6086 0.0400085 39.33C0.0400085 61.0514 17.6487 78.66 39.37 78.66Z" fill="white"/>
<path d="M40.38 54.4899C39.51 54.4899 38.94 54.1999 38.36 53.6199L26.23 41.4899C25.07 40.3299 25.07 38.5999 26.23 37.4499C27.39 36.2999 29.12 36.2899 30.27 37.4499L40.38 47.5599L62.9 25.0399C64.06 23.8799 65.79 23.8799 66.94 25.0399C68.09 26.1999 68.1 27.9299 66.94 29.0799L42.39 53.6299C42.1 54.2099 41.23 54.4999 40.37 54.4999L40.38 54.4899Z" fill="#454F5B"/>
<path d="M25.95 54.4901C25.08 54.4901 24.51 54.2001 23.93 53.6201L11.8 41.4901C10.64 40.3301 10.64 38.6001 11.8 37.4501C12.96 36.2901 14.69 36.2901 15.84 37.4501L27.97 49.5801C29.13 50.7401 29.13 52.4701 27.97 53.6201C27.68 54.2001 26.81 54.4901 25.95 54.4901Z" fill="#FF4748"/>
<path d="M41.25 39.4799C40.38 39.4799 39.81 39.1899 39.23 38.6099C38.07 37.4499 38.07 35.7199 39.23 34.5699L48.47 25.0399C49.63 23.8799 51.36 23.8799 52.51 25.0399C53.66 26.1999 53.67 27.9299 52.51 29.0799L43.27 38.6099C42.69 39.1899 42.11 39.4799 41.25 39.4799Z" fill="#00AB55"/>
</g>
<defs>
<clipPath id="clip0_1_4211">
<rect width="78.67" height="78.67" fill="white" transform="translate(0.0400085)"/>
</clipPath>
</defs>
</svg>
