<svg width="54" height="54" viewBox="0 0 54 54" fill="none" xmlns="http://www.w3.org/2000/svg">
<g clip-path="url(#clip0_7_4382)">
<path d="M51.6824 16.6762C50.5868 16.7815 49.7809 17.7665 49.7809 18.8673V47.6793C49.7809 48.8433 48.8381 49.7862 47.674 49.7862H31.1085C29.9444 49.7862 29.0016 48.8433 29.0016 47.6793V6.32599C29.0016 5.16192 29.9444 4.21908 31.1085 4.21908H35.238C36.3389 4.21908 37.3238 3.41319 37.4292 2.3176C37.5503 1.05872 36.5654 0 35.3275 0H2.10691C0.94284 0 0 0.94284 0 2.10691V51.8878C0 53.0519 0.94284 53.9947 2.10691 53.9947H51.8878C53.0519 53.9947 53.9947 53.0519 53.9947 51.8878V18.7725C53.9947 17.54 52.936 16.555 51.6771 16.6709L51.6824 16.6762ZM24.7825 48.2007C24.7825 49.0751 24.0767 49.7809 23.2023 49.7809H5.79926C4.92489 49.7809 4.21908 49.0751 4.21908 48.2007V26.4733C4.21908 25.5989 4.92489 24.8931 5.79926 24.8931H23.2076C24.0819 24.8931 24.7877 25.5989 24.7877 26.4733V48.2007H24.7825ZM24.7825 19.0938C24.7825 19.9682 24.0767 20.674 23.2023 20.674H5.79926C4.92489 20.674 4.21908 19.9682 4.21908 19.0938V5.79926C4.21908 4.92489 4.92489 4.21908 5.79926 4.21908H23.2076C24.0819 4.21908 24.7877 4.92489 24.7877 5.79926V19.0938H24.7825Z" fill="#454F5B"/>
<path d="M39.5256 36.7023C38.4247 36.7023 37.5135 35.8595 37.4239 34.7639C37.3396 33.7315 37.1974 33.1679 35.0642 32.6675C34.1108 32.4411 33.4366 31.593 33.4366 30.6133C33.4366 29.6336 34.1108 28.7856 35.0642 28.5591C37.2396 28.0482 37.3976 27.4108 37.4766 26.41C37.5661 25.3144 38.4774 24.4717 39.5782 24.4717C40.6791 24.4717 41.5903 25.3144 41.6799 26.41C41.7589 27.4161 41.9169 28.064 44.0396 28.5591C44.993 28.7856 45.6672 29.6336 45.6672 30.6133C45.6672 31.593 44.993 32.4411 44.0396 32.6675C41.859 33.1785 41.7062 33.7684 41.6272 34.7639C41.5377 35.8595 40.6264 36.7023 39.5256 36.7023Z" fill="#FF4748"/>
<path d="M43.771 20.3527C42.6701 20.3527 41.7589 19.51 41.6693 18.4144C41.3796 14.8432 39.8258 13.3525 35.2749 12.2833C34.3215 12.0568 33.6473 11.2087 33.6473 10.229C33.6473 9.24932 34.3215 8.40129 35.2749 8.1748C39.7889 7.11608 41.4902 5.48322 41.7747 1.93835C41.859 0.842763 42.7755 0 43.8763 0C44.9772 0 45.8884 0.842763 45.978 1.93835C46.2677 5.54643 47.8847 7.12134 52.3724 8.1748C53.3258 8.40129 54 9.24932 54 10.229C54 11.2087 53.3258 12.0568 52.3724 12.2833C47.7952 13.3578 46.157 14.9064 45.8726 18.4144C45.7831 19.51 44.8666 20.3527 43.771 20.3527Z" fill="#00AB55"/>
<path d="M41.5219 10.2184C42.3646 10.7609 43.1389 11.4246 43.7868 12.2463C44.0554 11.9145 44.3504 11.6037 44.6664 11.3087C45.1036 10.9084 45.5882 10.5397 46.1254 10.1973C45.5934 9.8497 45.1194 9.47045 44.6875 9.05961C44.382 8.76991 44.1028 8.45914 43.85 8.13257C43.1758 8.9806 42.3804 9.66008 41.5219 10.2131V10.2184Z" fill="white"/>
</g>
<defs>
<clipPath id="clip0_7_4382">
<rect width="54" height="54" fill="white"/>
</clipPath>
</defs>
</svg>
