<svg width="284" height="284" viewBox="0 0 284 284" fill="none" xmlns="http://www.w3.org/2000/svg">
<g clip-path="url(#clip0_114_9659)">
<path d="M284 61.8366V109.873H244.227C232.823 109.873 223.572 100.622 223.572 89.217C223.572 73.3183 210.685 60.4302 194.786 60.4302H89.2245C73.3265 60.4302 60.4279 73.3183 60.4279 89.2279V194.783C60.4279 210.682 73.3155 223.57 89.2135 223.57C107.902 223.57 123.053 238.721 123.053 257.411V284H61.8452C27.7419 284 0 256.257 0 222.163V61.8366C0 27.743 27.7419 0 61.8452 0H222.155C256.258 0 284 27.743 284 61.8366Z" fill="#00AB55"/>
<path d="M244.271 132.104C232.834 132.104 223.572 141.378 223.572 152.805V194.783C223.572 210.682 210.685 223.57 194.786 223.57H177.102C158.413 223.57 143.263 238.721 143.263 257.411V284H222.155C256.258 284 284 256.257 284 222.163V132.104H244.271Z" fill="#FF2D2E"/>
</g>
<defs>
<clipPath id="clip0_114_9659">
<rect width="284" height="284" fill="white"/>
</clipPath>
</defs>
</svg>
