<svg width="168" height="168" viewBox="0 0 168 168" fill="none" xmlns="http://www.w3.org/2000/svg">
<g clip-path="url(#clip0_108_6033)">
<path d="M168 36.5794V64.9954H144.473C137.726 64.9954 132.254 59.5227 132.254 52.7762C132.254 43.3714 124.63 35.7474 115.226 35.7474H52.7807C43.3762 35.7474 35.7461 43.3714 35.7461 52.7827V115.224C35.7461 124.629 43.3697 132.253 52.7742 132.253C63.8295 132.253 72.792 141.215 72.792 152.271V168H36.5845C16.4107 168 0 151.589 0 131.421V36.5794C0 16.4113 16.4107 0 36.5845 0H131.416C151.589 0 168 16.4113 168 36.5794Z" fill="white" fill-opacity="0.6"/>
<path d="M144.499 78.1464C137.733 78.1464 132.254 83.632 132.254 90.3915V115.224C132.254 124.629 124.63 132.253 115.226 132.253H104.765C93.7093 132.253 84.7468 141.215 84.7468 152.271V168H131.415C151.589 168 168 151.589 168 131.421V78.1464H144.499Z" fill="white" fill-opacity="0.3"/>
</g>
<defs>
<clipPath id="clip0_108_6033">
<rect width="168" height="168" fill="white"/>
</clipPath>
</defs>
</svg>
