<svg width="569" height="404" viewBox="0 0 569 404" fill="none" xmlns="http://www.w3.org/2000/svg">
<path d="M63.9773 365.805H48.1016V373.393H63.9773V365.805Z" fill="#637381"/>
<path d="M60.5359 333.291V331.019H44.6602V353.892H60.5359V349.182H110.782V333.291H60.5359ZM69.0506 338.771H65.8095V335.069H69.0506V338.771ZM101.754 346.158H88.8266V342.455H101.754V346.158Z" fill="#637381"/>
<path d="M62.2566 315.403H46.3809V328.178H62.2566V315.403Z" fill="#637381"/>
<path d="M66.5593 306.313H50.6836V308.274H66.5593V306.313Z" fill="#637381"/>
<path d="M42.4077 282.01H36.5664V283.971H42.4077V282.01Z" fill="#637381"/>
<path d="M117.849 285.712H112.008V287.673H117.849V285.712Z" fill="#637381"/>
<path d="M113.71 336.389H107.869V338.35H113.71V336.389Z" fill="#637381"/>
<path d="M123.251 341.466H117.41V343.427H123.251V341.466Z" fill="#637381"/>
<path d="M73.0795 320.352H67.2383V322.313H73.0795V320.352Z" fill="#637381"/>
<path d="M289.04 368.609H283.199V370.57H289.04V368.609Z" fill="#637381"/>
<path d="M483.98 369.599H478.139V371.56H483.98V369.599Z" fill="#637381"/>
<path d="M248.591 369.599H242.75V371.56H248.591V369.599Z" fill="#637381"/>
<path d="M87.6718 325.026H50.4453V325.942H87.6718V325.026Z" fill="#637381"/>
<path d="M76.1191 298.908H38.8926V299.825H76.1191V298.908Z" fill="#637381"/>
<path d="M91.7011 384.206H54.4746V385.122H91.7011V384.206Z" fill="#637381"/>
<path d="M145.096 357.997H107.869V358.914H145.096V357.997Z" fill="#637381"/>
<path d="M76.832 357.997H39.6055V358.914H76.832V357.997Z" fill="#637381"/>
<path d="M365.727 357.539H328.5V358.455H365.727V357.539Z" fill="#637381"/>
<path d="M347.123 391.372H309.896V392.289H347.123V391.372Z" fill="#637381"/>
<path d="M438.33 381.42H401.104V382.337H438.33V381.42Z" fill="#637381"/>
<path d="M482.992 382.813H445.766V383.729H482.992V382.813Z" fill="#637381"/>
<path d="M305.758 384.664H268.531V385.581H305.758V384.664Z" fill="#637381"/>
<path d="M282.906 336.462H245.68V337.379H282.906V336.462Z" fill="#637381"/>
<path d="M449.758 311.39H412.531V312.306H449.758V311.39Z" fill="#637381"/>
<path d="M478.506 297.992H441.279V298.908H478.506V297.992Z" fill="#637381"/>
<path d="M436.5 287.05H399.273V287.967H436.5V287.05Z" fill="#637381"/>
<path d="M350.254 288.077H313.027V288.993H350.254V288.077Z" fill="#637381"/>
<path d="M256.189 298.45H218.963V299.367H256.189V298.45Z" fill="#637381"/>
<path d="M189.445 284.393H152.219V285.309H189.445V284.393Z" fill="#637381"/>
<path d="M160.039 284.851H122.812V285.767H160.039V284.851Z" fill="#637381"/>
<path d="M525.309 321.342H488.082V322.258H525.309V321.342Z" fill="#637381"/>
<path d="M484.713 336.462H447.486V337.379H484.713V336.462Z" fill="#637381"/>
<path d="M60.5359 295.738H110.782V294.29H44.6602V302.629H60.5359V295.738Z" fill="#637381"/>
<path d="M110.782 397.035H44.6602V402.699H110.782V397.035Z" fill="#637381"/>
<path d="M44.6602 389.448V394.195H110.782V389.448H44.6602ZM87.673 393.663H81.2092V389.961H87.673V393.663Z" fill="#637381"/>
<path d="M44.6602 279.847V291.449H110.782V279.847H44.6602ZM59.4922 286.684H53.5044V282.981H59.4922V286.684Z" fill="#637381"/>
<path d="M60.5359 379.917H44.6602V386.607H60.5359V379.917Z" fill="#637381"/>
<path d="M151.194 365.805H135.318V373.393H151.194V365.805Z" fill="#637381"/>
<path d="M149.473 315.403H133.598V328.178H149.473V315.403Z" fill="#637381"/>
<path d="M153.794 306.313H137.918V308.274H153.794V306.313Z" fill="#637381"/>
<path d="M147.751 302.629V295.829H162.253C168.955 295.829 174.76 298.102 179.649 302.629H199.48C197.96 299.696 196.056 296.911 193.767 294.29H131.875V302.629H147.751Z" fill="#637381"/>
<path d="M178.533 389.448L181.5 394.213H200.543L197.467 389.448H178.533Z" fill="#637381"/>
<path d="M207.886 308.292C207.666 307.632 207.428 306.973 207.172 306.331H189.025C189.501 306.973 189.959 307.632 190.362 308.292H207.886Z" fill="#637381"/>
<path d="M190.509 373.393L185.583 365.805H167.217L171.959 373.393H190.509Z" fill="#637381"/>
<path d="M147.751 389.448H131.875V394.213H147.751V389.448Z" fill="#637381"/>
<path d="M147.751 379.917H131.875V386.607H147.751V379.917Z" fill="#637381"/>
<path d="M186.241 331.019C184.978 334.263 183.037 337.214 180.382 339.853C175.346 344.893 169.304 347.422 162.236 347.422H147.733V331.019H131.857V353.892H188.878C189.776 353.067 190.709 352.169 191.698 351.179C197.521 345.333 201.238 338.607 202.905 331.019H186.241ZM141.416 340.604H138.193V336.902H141.416V340.604ZM184.319 347.99V344.288H192.119V347.99H184.319Z" fill="#637381"/>
<path d="M147.751 397.035H131.875V402.699H147.751V397.035Z" fill="#637381"/>
<path d="M186.809 402.699H206.054L202.392 397.035H183.275L186.809 402.699Z" fill="#637381"/>
<path d="M205.212 315.403H188.989C189.447 317.346 189.685 319.399 189.685 321.543C189.685 323.871 189.41 326.088 188.879 328.196H205.157C205.469 326.052 205.634 323.834 205.634 321.543C205.634 319.435 205.487 317.401 205.212 315.403Z" fill="#637381"/>
<path d="M172.582 379.917L176.757 386.607H195.636L191.278 379.917H172.582Z" fill="#637381"/>
<path d="M166.703 279.847H131.875V291.449H191.075C184.391 285.016 176.261 281.13 166.703 279.847Z" fill="#637381"/>
<path d="M237.587 389.448H221.711V394.213H237.587V389.448Z" fill="#637381"/>
<path d="M276.626 402.699H295.889L292.209 397.035H273.092L276.626 402.699Z" fill="#637381"/>
<path d="M278.695 328.178H294.974C295.285 326.033 295.45 323.816 295.45 321.525C295.45 319.417 295.304 317.383 295.029 315.385H278.805C279.263 317.328 279.501 319.38 279.501 321.525C279.501 323.852 279.226 326.07 278.695 328.178Z" fill="#637381"/>
<path d="M268.35 389.448L271.334 394.213H290.378L287.283 389.448H268.35Z" fill="#637381"/>
<path d="M256.539 279.847H221.711V291.449H280.911C274.227 285.016 266.097 281.13 256.539 279.847ZM252.382 286.684V282.981H258.846V286.684H252.382Z" fill="#637381"/>
<path d="M241.028 365.805H225.152V373.393H241.028V365.805Z" fill="#637381"/>
<path d="M243.61 306.313H227.734V308.274H243.61V306.313Z" fill="#637381"/>
<path d="M297.72 308.292C297.5 307.632 297.262 306.973 297.006 306.331H278.859C279.335 306.973 279.793 307.632 280.196 308.292H297.72Z" fill="#637381"/>
<path d="M262.398 379.917L266.592 386.607H285.452L281.112 379.917H262.398Z" fill="#637381"/>
<path d="M237.587 379.917H221.711V386.607H237.587V379.917Z" fill="#637381"/>
<path d="M276.077 331.019C274.813 334.263 272.872 337.214 270.235 339.853C265.2 344.893 259.139 347.422 252.089 347.422H237.587V331.019H221.711V353.892H278.732C279.629 353.067 280.563 352.169 281.552 351.179C287.356 345.333 291.092 338.607 292.74 331.019H276.077ZM234.712 338.753H231.471V335.051H234.712V338.753ZM280.178 342.455V338.753H283.419V342.455H280.178Z" fill="#637381"/>
<path d="M280.325 373.393L275.399 365.805H257.033L261.776 373.393H280.325Z" fill="#637381"/>
<path d="M237.587 302.629V295.829H252.089C258.791 295.829 264.596 298.102 269.485 302.629H289.316C287.796 299.696 285.891 296.911 283.603 294.29H221.711V302.629H237.587Z" fill="#637381"/>
<path d="M239.307 315.403H223.432V328.178H239.307V315.403Z" fill="#637381"/>
<path d="M237.587 397.035H221.711V402.699H237.587V397.035Z" fill="#637381"/>
<path d="M409.838 373.393H429.962C431.463 370.937 432.745 368.407 433.862 365.805H415.789C414.104 368.462 412.127 370.992 409.838 373.393Z" fill="#637381"/>
<path d="M421.906 379.917H398.871C394.384 383.07 389.532 385.306 384.295 386.607H415.772C416.138 386.259 416.504 385.929 416.852 385.562C418.683 383.729 420.35 381.842 421.906 379.899V379.917Z" fill="#637381"/>
<path d="M345.09 308.292C345.181 308.201 345.273 308.091 345.364 307.999C345.932 307.431 346.518 306.863 347.104 306.331H326.01C325.57 306.973 325.149 307.632 324.746 308.292H345.071H345.09Z" fill="#637381"/>
<path d="M422.144 302.629C420.515 300.576 418.775 298.597 416.852 296.672C416.028 295.848 415.204 295.06 414.344 294.29H372.43C382.519 294.29 391.437 297.076 399.219 302.629H422.144Z" fill="#637381"/>
<path d="M322.733 302.629H345.659C353.423 297.076 362.358 294.29 372.43 294.29H330.515C329.673 295.06 328.831 295.848 328.007 296.672C326.084 298.597 324.326 300.595 322.715 302.629H322.733Z" fill="#637381"/>
<path d="M322.971 379.917C324.528 381.86 326.194 383.748 328.025 385.581C328.392 385.947 328.758 386.277 329.106 386.625H360.619C355.382 385.306 350.53 383.07 346.043 379.936H322.953L322.971 379.917Z" fill="#637381"/>
<path d="M372.428 278.235C357.761 278.235 344.907 282.652 333.865 291.449H410.992C399.95 282.652 387.096 278.235 372.428 278.235ZM379.881 288.535V284.833H386.345V288.535H379.881Z" fill="#637381"/>
<path d="M321.816 373.393H341.977C339.688 370.992 337.692 368.462 336.007 365.805H317.916C319.033 368.407 320.333 370.955 321.816 373.393Z" fill="#637381"/>
<path d="M312.57 328.178H329.069C330.332 323.633 332.273 319.362 334.928 315.403H316.635C314.804 319.472 313.449 323.724 312.57 328.178Z" fill="#637381"/>
<path d="M325.643 341.117C325.643 337.598 325.991 334.244 326.669 331.019H310.372C309.877 334.281 309.621 337.653 309.621 341.117C309.621 345.534 310.024 349.786 310.811 353.874H327.31C326.211 349.841 325.643 345.589 325.643 341.117ZM318.264 338.753H315.023V335.051H318.264V338.753Z" fill="#637381"/>
<path d="M372.429 404C383.068 404 392.773 401.672 401.507 397.035H343.369C352.104 401.672 361.79 404 372.447 404H372.429Z" fill="#637381"/>
<path d="M431.683 315.403H413.391C416.064 319.362 418.005 323.633 419.269 328.178H435.767C434.888 323.724 433.533 319.472 431.702 315.403H431.683ZM431.574 323.633H428.333V319.93H431.574V323.633Z" fill="#637381"/>
<path d="M411.578 307.981C411.67 308.072 411.761 308.182 411.853 308.274H432.178C431.757 307.614 431.354 306.954 430.915 306.313H409.82C410.406 306.844 410.992 307.412 411.56 307.981H411.578Z" fill="#637381"/>
<path d="M434.523 331.019H418.226C418.904 334.263 419.252 337.617 419.252 341.117C419.252 345.608 418.684 349.86 417.604 353.874H434.084C434.871 349.786 435.274 345.534 435.274 341.117C435.274 337.653 435.017 334.281 434.541 331.019H434.523ZM428.48 344.306H423.793V340.604H428.48V344.306Z" fill="#637381"/>
<path d="M332.236 389.448C334.287 391.189 336.411 392.765 338.59 394.195H406.287C408.466 392.765 410.59 391.189 412.641 389.448H332.236ZM379.955 393.663H376.732V389.961H379.955V393.663Z" fill="#637381"/>
<path d="M458.162 315.403V328.178H474.038V315.403H458.162ZM472.756 325.484H468.068V321.781H472.756V325.484Z" fill="#637381"/>
<path d="M496.506 373.393H515.055L510.148 365.805H491.764L496.506 373.393Z" fill="#637381"/>
<path d="M478.341 306.313H462.465V308.274H478.341V306.313Z" fill="#637381"/>
<path d="M510.807 331.019C509.544 334.263 507.603 337.214 504.966 339.853C499.93 344.893 493.869 347.422 486.82 347.422H472.317V331.019H456.441V353.892H513.462C514.36 353.067 515.293 352.169 516.282 351.179C522.087 345.333 525.822 338.607 527.47 331.019H510.807ZM463.4 346.139H460.159V342.437H463.4V346.139ZM512.931 344.288V340.586H517.619V344.288H512.931Z" fill="#637381"/>
<path d="M514.927 308.292H532.45C532.231 307.632 531.993 306.973 531.736 306.331H513.59C514.066 306.973 514.524 307.632 514.927 308.292Z" fill="#637381"/>
<path d="M472.317 379.917H456.441V386.607H472.317V379.917Z" fill="#637381"/>
<path d="M515.843 379.917H497.129L501.304 386.607H520.164L515.825 379.917H515.843ZM513.243 385.104H510.02V381.402H513.243V385.104Z" fill="#637381"/>
<path d="M514.231 321.543C514.231 323.871 513.957 326.088 513.426 328.196H529.704C530.016 326.052 530.18 323.834 530.18 321.543C530.18 319.435 530.034 317.401 529.778 315.403H513.554C514.012 317.346 514.25 319.399 514.25 321.543H514.231Z" fill="#637381"/>
<path d="M456.441 302.629H472.317V295.829H486.82C493.521 295.829 499.326 298.102 504.215 302.629H524.046C522.526 299.696 520.622 296.911 518.333 294.29H456.441V302.629Z" fill="#637381"/>
<path d="M511.356 402.699H530.62L526.957 397.035H507.822L511.356 402.699Z" fill="#637381"/>
<path d="M506.063 394.213H525.106L522.03 389.448H503.078L506.063 394.213Z" fill="#637381"/>
<path d="M472.317 397.035H456.441V402.699H472.317V397.035Z" fill="#637381"/>
<path d="M472.317 389.448H456.441V394.213H472.317V389.448Z" fill="#637381"/>
<path d="M475.759 365.805H459.883V373.393H475.759V365.805Z" fill="#637381"/>
<path d="M491.269 279.847H456.441V291.449H515.641C508.958 285.016 500.828 281.13 491.269 279.847ZM466.714 287.49H462.026V283.788H466.714V287.49Z" fill="#637381"/>
<path d="M115.946 291.449H49.8242V294.29H115.946V291.449Z" fill="#637381"/>
<path d="M198.949 294.29C198.29 293.538 197.613 292.787 196.899 292.072C196.697 291.871 196.477 291.669 196.276 291.467H137.076V294.308H198.968L198.949 294.29Z" fill="#637381"/>
<path d="M288.766 294.29C288.107 293.538 287.429 292.787 286.715 292.072C286.514 291.871 286.294 291.669 286.092 291.467H226.893V294.308H288.784L288.766 294.29Z" fill="#637381"/>
<path d="M377.611 294.29H419.526C418.427 293.3 417.31 292.365 416.175 291.449H339.048C337.913 292.347 336.796 293.282 335.697 294.29H377.611Z" fill="#637381"/>
<path d="M523.496 294.29C522.837 293.538 522.16 292.787 521.445 292.072C521.244 291.871 521.024 291.669 520.823 291.467H461.623V294.308H523.515L523.496 294.29Z" fill="#637381"/>
<path d="M56.2136 328.178H40.3379V331.019H56.2136V328.178Z" fill="#637381"/>
<path d="M182.835 328.178C182.597 329.149 182.285 330.084 181.938 331.019H198.601C198.802 330.084 198.985 329.149 199.132 328.178H182.853H182.835Z" fill="#637381"/>
<path d="M143.448 328.178H127.572V331.019H143.448V328.178Z" fill="#637381"/>
<path d="M272.671 328.178C272.433 329.149 272.121 330.084 271.773 331.019H288.437C288.638 330.084 288.821 329.149 288.968 328.178H272.689H272.671Z" fill="#637381"/>
<path d="M233.264 328.178H217.389V331.019H233.264V328.178Z" fill="#637381"/>
<path d="M306.052 331.019H322.348C322.55 330.066 322.77 329.113 323.026 328.178H306.528C306.344 329.113 306.18 330.066 306.033 331.019H306.052Z" fill="#637381"/>
<path d="M413.903 331.019H430.2C430.053 330.066 429.888 329.113 429.705 328.178H413.207C413.463 329.113 413.701 330.047 413.885 331.019H413.903Z" fill="#637381"/>
<path d="M506.484 331.019H523.148C523.349 330.084 523.532 329.149 523.678 328.178H507.4C507.162 329.149 506.851 330.084 506.503 331.019H506.484Z" fill="#637381"/>
<path d="M467.995 328.178H452.119V331.019H467.995V328.178Z" fill="#637381"/>
<path d="M55.3543 302.629H39.4785V306.313H55.3543V302.629Z" fill="#637381"/>
<path d="M177.818 306.313H195.964C195.47 305.048 194.92 303.82 194.298 302.629H174.467C174.723 302.867 174.98 303.105 175.218 303.344C176.17 304.297 177.049 305.286 177.818 306.313Z" fill="#637381"/>
<path d="M142.569 302.629H126.693V306.313H142.569V302.629Z" fill="#637381"/>
<path d="M232.403 302.629H216.527V306.313H232.403V302.629Z" fill="#637381"/>
<path d="M267.654 306.313H285.8C285.306 305.048 284.756 303.82 284.134 302.629H264.303C264.559 302.867 264.815 303.105 265.053 303.344C266.006 304.297 266.885 305.286 267.654 306.313Z" fill="#637381"/>
<path d="M335.916 306.313C337.399 304.957 338.919 303.747 340.494 302.629H317.568C316.616 303.839 315.682 305.067 314.84 306.313H335.934H335.916Z" fill="#637381"/>
<path d="M419.709 306.313C418.848 305.067 417.932 303.839 416.98 302.629H394.055C395.629 303.747 397.149 304.975 398.632 306.313H419.727H419.709Z" fill="#637381"/>
<path d="M499.784 303.344C500.736 304.297 501.615 305.286 502.384 306.313H520.53C520.036 305.048 519.487 303.82 518.864 302.629H499.033C499.29 302.867 499.546 303.105 499.784 303.344Z" fill="#637381"/>
<path d="M467.134 302.629H451.258V306.313H467.134V302.629Z" fill="#637381"/>
<path d="M60.5359 362.103H44.6602V365.787H60.5359V362.103Z" fill="#637381"/>
<path d="M147.751 363.386H162.253L163.755 365.805H182.121L179.74 362.103H131.875V365.805H147.751V363.386Z" fill="#637381"/>
<path d="M237.587 363.386H252.089L253.591 365.805H271.957L269.558 362.103H221.711V365.805H237.587V363.386Z" fill="#637381"/>
<path d="M314.456 365.805H332.547C331.778 364.595 331.082 363.367 330.46 362.121H313.027C313.467 363.367 313.943 364.595 314.456 365.805Z" fill="#637381"/>
<path d="M412.348 365.805H430.421C430.933 364.595 431.41 363.367 431.849 362.121H414.435C413.794 363.386 413.098 364.614 412.348 365.805Z" fill="#637381"/>
<path d="M456.441 362.103V365.805H472.317V363.386H486.82L488.321 365.805H506.687L504.288 362.103H456.441Z" fill="#637381"/>
<path d="M66.5593 377.095H50.6836V379.936H66.5593V377.095Z" fill="#637381"/>
<path d="M195.488 377.095H176.848L178.606 379.917H197.319L195.488 377.095Z" fill="#637381"/>
<path d="M153.794 377.095H137.918V379.936H153.794V377.095Z" fill="#637381"/>
<path d="M266.664 377.095L268.44 379.917H287.154L285.305 377.095H266.664Z" fill="#637381"/>
<path d="M243.61 377.095H227.734V379.936H243.61V377.095Z" fill="#637381"/>
<path d="M329.013 379.917H352.104C350.859 379.037 349.65 378.103 348.46 377.076H326.871C327.549 378.029 328.263 378.982 329.013 379.917Z" fill="#637381"/>
<path d="M427.949 379.917C428.7 378.982 429.414 378.048 430.092 377.076H408.558C407.368 378.084 406.159 379.037 404.914 379.917H427.949Z" fill="#637381"/>
<path d="M501.412 377.095L503.17 379.917H521.884L520.053 377.095H501.412Z" fill="#637381"/>
<path d="M478.341 377.095H462.465V379.936H478.341V377.095Z" fill="#637381"/>
<path d="M60.5359 373.393H44.6602V377.076H60.5359V373.393Z" fill="#637381"/>
<path d="M147.751 373.393H131.875V377.076H147.751V373.393Z" fill="#637381"/>
<path d="M187.047 373.393H168.498L170.805 377.095H189.446L187.047 373.393Z" fill="#637381"/>
<path d="M237.587 373.393H221.711V377.076H237.587V373.393Z" fill="#637381"/>
<path d="M258.332 373.393L260.639 377.095H279.28L276.881 373.393H258.332Z" fill="#637381"/>
<path d="M405.535 374.291C404.546 375.28 403.539 376.197 402.514 377.095H424.048C424.908 375.885 425.75 374.657 426.501 373.411H406.377C406.084 373.704 405.81 374.016 405.517 374.309L405.535 374.291Z" fill="#637381"/>
<path d="M320.827 377.095H342.416C341.391 376.215 340.365 375.28 339.377 374.291C339.084 373.997 338.809 373.686 338.516 373.393H318.355C319.125 374.639 319.949 375.867 320.809 377.076L320.827 377.095Z" fill="#637381"/>
<path d="M495.37 377.095H514.01L511.612 373.393H493.062L495.37 377.095Z" fill="#637381"/>
<path d="M472.317 373.393H456.441V377.076H472.317V373.393Z" fill="#637381"/>
<path d="M115.946 394.213H49.8242V397.054H115.946V394.213Z" fill="#637381"/>
<path d="M186.682 394.213L188.44 397.035H207.556L205.725 394.213H186.682Z" fill="#637381"/>
<path d="M152.934 394.213H137.059V397.054H152.934V394.213Z" fill="#637381"/>
<path d="M276.498 394.213L278.274 397.035H297.391L295.56 394.213H276.498Z" fill="#637381"/>
<path d="M242.749 394.213H226.873V397.054H242.749V394.213Z" fill="#637381"/>
<path d="M343.771 394.213C345.328 395.239 346.921 396.192 348.551 397.054H406.689C408.318 396.192 409.911 395.239 411.468 394.213H343.771Z" fill="#637381"/>
<path d="M477.479 394.213H461.604V397.054H477.479V394.213Z" fill="#637381"/>
<path d="M513.003 397.035H532.12L530.288 394.213H511.227L513.003 397.035Z" fill="#637381"/>
<path d="M108.2 386.735H57.9539V386.607H42.0781V389.448H108.2V386.735Z" fill="#637381"/>
<path d="M145.171 386.607H129.295V389.448H145.171V386.607Z" fill="#637381"/>
<path d="M174.174 386.607L175.932 389.448H194.884L193.034 386.607H174.174Z" fill="#637381"/>
<path d="M263.99 386.607L265.766 389.448H284.7L282.869 386.607H263.99Z" fill="#637381"/>
<path d="M234.985 386.607H219.109V389.448H234.985V386.607Z" fill="#637381"/>
<path d="M381.695 386.607C377.941 387.542 373.986 388.018 369.848 388.018C365.709 388.018 361.791 387.542 358.037 386.607H326.523C327.549 387.597 328.593 388.531 329.655 389.448H410.059C411.121 388.55 412.165 387.597 413.19 386.607H381.713H381.695Z" fill="#637381"/>
<path d="M469.716 386.607H453.84V389.448H469.716V386.607Z" fill="#637381"/>
<path d="M500.498 389.448H519.432L517.601 386.607H498.74L500.498 389.448Z" fill="#637381"/>
<path d="M67.4383 353.892H51.5625V362.103H67.4383V353.892Z" fill="#637381"/>
<path d="M185.729 360.691C188.183 360.105 191.534 357.832 195.8 353.892H138.779V362.103H186.645L185.729 360.691Z" fill="#637381"/>
<path d="M285.617 353.892H228.596V362.103H276.443L275.545 360.691C277.999 360.105 281.35 357.832 285.617 353.874V353.892ZM258.718 359.848H255.495V356.146H258.718V359.848Z" fill="#637381"/>
<path d="M424.47 353.892C423.701 356.751 422.639 359.482 421.32 362.103H438.734C439.668 359.445 440.401 356.714 440.95 353.892H424.47ZM433.479 359.848H428.791V356.146H433.479V359.848Z" fill="#637381"/>
<path d="M319.931 362.103H337.363C336.044 359.482 334.982 356.733 334.213 353.892H317.715C318.264 356.714 318.997 359.445 319.931 362.103Z" fill="#637381"/>
<path d="M463.326 362.103H511.191L510.276 360.691C512.73 360.105 516.081 357.832 520.347 353.892H463.326V362.103Z" fill="#637381"/>
<path d="M60.5359 308.292H44.6602V315.422H60.5359V308.292Z" fill="#637381"/>
<path d="M147.751 308.292H131.875V315.422H147.751V308.292Z" fill="#637381"/>
<path d="M201.842 308.292H184.318C185.673 310.51 186.662 312.874 187.248 315.422H203.472C203.142 312.966 202.575 310.583 201.824 308.292H201.842Z" fill="#637381"/>
<path d="M237.587 308.292H221.711V315.422H237.587V308.292Z" fill="#637381"/>
<path d="M293.324 315.403C292.994 312.948 292.427 310.565 291.676 308.274H274.152C275.507 310.492 276.496 312.856 277.082 315.403H293.306H293.324Z" fill="#637381"/>
<path d="M429.962 315.403C428.864 312.966 427.6 310.583 426.153 308.274H405.828C408.044 310.528 410.003 312.911 411.669 315.403H429.962Z" fill="#637381"/>
<path d="M333.207 315.403C334.873 312.911 336.832 310.547 339.048 308.274H318.723C317.276 310.583 316.013 312.948 314.914 315.403H333.207Z" fill="#637381"/>
<path d="M472.317 308.292H456.441V315.422H472.317V308.292Z" fill="#637381"/>
<path d="M511.831 315.403H528.055C527.725 312.948 527.157 310.565 526.407 308.274H508.883C510.238 310.492 511.227 312.856 511.813 315.403H511.831Z" fill="#637381"/>
<g clip-path="url(#clip0_26_4986)">
<path d="M133.379 13.4777H96.3519L95.0566 15.7154H133.379V13.4777Z" fill="#637381"/>
<path d="M137.135 142.488V139.529H105.789V142.488H61.101L62.8589 139.529H26.5722L14.0078 161.055H158.489V142.488H137.135ZM49.0178 158.096H41.9122V155.988H49.0178V158.096ZM135.747 154.527H128.641V150.311H135.747V154.527Z" fill="#637381"/>
<path d="M71.2601 116.542V118.65H75.331L69.8908 127.749H33.4375L44.503 108.793H49.0181V106.685H45.7243L51.072 97.5304H87.9509L76.5893 116.542H71.2601Z" fill="#637381"/>
<path d="M67.9669 130.985H31.5506L30.0703 133.519H66.4496L67.9669 130.985Z" fill="#637381"/>
<path d="M175.254 164.051H29.0338L28.5527 164.847H175.254V164.051Z" fill="#637381"/>
<path d="M137.135 173.816H158.489V169.84H8.88231L6.55078 173.816H105.77V193.641H137.135V173.816Z" fill="#637381"/>
<path d="M137.134 204.977H105.77V217.701H137.134V204.977Z" fill="#637381"/>
<path d="M105.769 67.7005V70.2526H137.134V56.549H74.9782L66.9844 70.2526H104.252L105.769 67.7005Z" fill="#637381"/>
<path d="M137.134 -3H109.711L102.568 9.26116H137.134V-3Z" fill="#637381"/>
<path d="M96.3144 83.5494H59.232L57.9922 85.6577H95.0561L96.3144 83.5494Z" fill="#637381"/>
<path d="M137.134 199.651H105.77V201.741H137.134V199.651Z" fill="#637381"/>
<path d="M92.5219 89.8741H55.532L52.9414 94.2941H89.8758L92.5219 89.8741Z" fill="#637381"/>
<path d="M94.0566 23.8525L79.7344 48.4118H137.153V23.8525H94.0751H94.0566ZM119.852 46.618H112.949V43.0118H119.852V46.618Z" fill="#637381"/>
<path d="M137.134 89.8741H105.77V94.3126H137.134V89.8741Z" fill="#637381"/>
<path d="M137.134 226.948H105.77V239.227H137.134V226.948Z" fill="#637381"/>
<path d="M137.134 97.5304H105.77V127.749H137.134V97.5304Z" fill="#637381"/>
<path d="M137.134 83.5494H105.77V85.6577H137.134V83.5494Z" fill="#637381"/>
<path d="M137.134 130.985H105.77V133.519H137.134V130.985Z" fill="#637381"/>
<path d="M368.585 89.8741H336.48V94.3126H368.585V89.8741Z" fill="#00AB55"/>
<path d="M228.472 157.024V139.529H196.367V157.024C196.367 158.374 196.404 159.724 196.46 161.055H228.639C228.546 159.724 228.491 158.392 228.491 157.024H228.472Z" fill="#00AB55"/>
<path d="M228.472 89.8741H196.367V94.3126H228.472V89.8741Z" fill="#00AB55"/>
<path d="M245.661 164.051H213.408C213.427 164.31 213.445 164.588 213.464 164.847H245.754C245.717 164.588 245.698 164.31 245.661 164.051Z" fill="#00AB55"/>
<path d="M228.472 130.985H196.367V133.519H228.472V130.985Z" fill="#00AB55"/>
<path d="M244.294 44.9906C254.841 34.4863 267.553 29.2526 282.394 29.2526C297.234 29.2526 310.095 34.5048 320.642 44.9906C321.771 46.1002 322.807 47.2468 323.806 48.4118H361.555C357.65 39.5535 352.099 31.3609 344.919 23.8525H219.979C212.799 31.3609 207.248 39.5535 203.344 48.4118H241.092C242.092 47.2468 243.146 46.1002 244.257 44.9906H244.294Z" fill="#00AB55"/>
<path d="M229.897 169.84H197.219C198.385 178.254 200.735 186.188 204.269 193.641H242.813C236.263 186.65 231.951 178.717 229.879 169.84H229.897Z" fill="#00AB55"/>
<path d="M368.585 130.985H336.48V133.519H368.585V130.985Z" fill="#00AB55"/>
<path d="M335.055 70.2526H367.734C367.086 65.5368 366.05 60.9689 364.644 56.549H329.615C332.095 60.8394 333.908 65.4073 335.037 70.2526H335.055Z" fill="#00AB55"/>
<path d="M235.318 56.549H200.289C198.902 60.9689 197.847 65.5368 197.199 70.2526H229.878C231.006 65.4073 232.82 60.8394 235.299 56.549H235.318Z" fill="#00AB55"/>
<path d="M368.585 83.5494H336.48V85.6577H368.585V83.5494Z" fill="#00AB55"/>
<path d="M330.245 15.7154C329.301 14.9386 328.358 14.1989 327.396 13.4777H225.715C224.753 14.1989 223.809 14.9571 222.865 15.7154H330.245Z" fill="#00AB55"/>
<path d="M322.103 193.641H360.647C364.181 186.188 366.531 178.254 367.697 169.84H335.018C332.946 178.717 328.634 186.65 322.084 193.641H322.103Z" fill="#00AB55"/>
<path d="M232.209 226.948C246.735 237.637 263.463 243 282.392 243C301.322 243 318.18 237.637 332.724 226.948H232.209ZM270.476 233.087H264.425V228.871H270.476V233.087Z" fill="#00AB55"/>
<path d="M352.727 164.847H385.016C385.035 164.588 385.053 164.31 385.072 164.051H352.819C352.782 164.31 352.764 164.588 352.727 164.847Z" fill="#637381"/>
<path d="M320.16 221.104H352.45C352.469 220.845 352.487 220.567 352.506 220.308H320.253C320.216 220.567 320.197 220.845 320.16 221.104Z" fill="#00AB55"/>
<path d="M228.472 83.5494H196.367V85.6577H228.472V83.5494Z" fill="#00AB55"/>
<path d="M368.585 97.5304H336.48V127.749H368.585V97.5304Z" fill="#00AB55"/>
<path d="M336.48 157.024C336.48 158.392 336.425 159.724 336.332 161.055H368.511C368.566 159.724 368.603 158.392 368.603 157.024V139.529H336.499V157.024H336.48Z" fill="#00AB55"/>
<path d="M249.363 199.651H207.488C207.895 200.354 208.302 201.057 208.747 201.741H252.194C251.251 201.075 250.307 200.391 249.382 199.651H249.363Z" fill="#00AB55"/>
<path d="M312.758 201.741H356.206C356.631 201.057 357.057 200.354 357.464 199.651H315.57C314.645 200.373 313.702 201.075 312.758 201.741Z" fill="#00AB55"/>
<path d="M196.367 97.5304V127.749H228.491V97.5304H196.367ZM216.278 109.847H209.172V105.631H216.278V109.847Z" fill="#00AB55"/>
<path d="M307.41 204.977C299.898 208.935 291.552 210.914 282.393 210.914C273.233 210.914 264.999 208.935 257.505 204.977H210.855C213.909 209.416 217.443 213.669 221.477 217.701H343.457C347.472 213.669 351.025 209.434 354.078 204.977H307.41ZM336.462 213.059H319.494V208.843H336.462V213.059Z" fill="#00AB55"/>
<path d="M282.393 -3C265.85 -3 250.991 1.08705 237.816 9.26116H327.099C313.906 1.10555 298.991 -3 282.393 -3Z" fill="#00AB55"/>
<path d="M406.316 173.816H505.518V193.641H536.882V173.816H558.236V169.84H408.629L406.316 173.816Z" fill="#637381"/>
<path d="M536.882 89.8741H505.518V94.3126H536.882V89.8741Z" fill="#637381"/>
<path d="M536.882 97.5304H505.518V127.749H536.882V97.5304Z" fill="#637381"/>
<path d="M428.316 164.847H574.999V164.051H428.779L428.316 164.847Z" fill="#637381"/>
<path d="M439.068 211.746H514.751V210.932H439.531L439.068 211.746Z" fill="#637381"/>
<path d="M47.834 181.269H123.516V180.474H48.3151L47.834 181.269Z" fill="#637381"/>
<path d="M88.543 208.732H164.225V207.936H89.0056L88.543 208.732Z" fill="#637381"/>
<path d="M175.568 176.424H251.251V175.628H176.031L175.568 176.424Z" fill="#00AB55"/>
<path d="M90.8008 107.276H132.195V106.463H91.0598L90.8008 107.276Z" fill="#637381"/>
<path d="M309.557 72.9157H350.951V72.1205H309.816L309.557 72.9157Z" fill="#00AB55"/>
<path d="M225.066 77.7054H266.46V76.8917H225.307L225.066 77.7054Z" fill="#00AB55"/>
<path d="M458.775 110.254H500.169V109.459H459.034L458.775 110.254Z" fill="#637381"/>
<path d="M435.516 63.7984H476.91V63.0032H435.756L435.516 63.7984Z" fill="#637381"/>
<path d="M505.516 142.488H460.847L462.605 139.529H426.318L413.754 161.037H558.235V142.488H536.881V139.529H505.516V142.488Z" fill="#637381"/>
<path d="M536.882 130.985H505.518V133.519H536.882V130.985Z" fill="#637381"/>
<path d="M466.732 70.2526H504L505.517 67.7005V70.2526H536.882V56.549H474.726L466.732 70.2526Z" fill="#637381"/>
<path d="M492.619 15.7154H530.96V13.4777H493.933L492.619 15.7154Z" fill="#637381"/>
<path d="M536.882 199.651H505.518V201.741H536.882V199.651Z" fill="#637381"/>
<path d="M536.882 83.5494H505.518V85.6577H536.882V83.5494Z" fill="#637381"/>
<path d="M493.785 23.8525L479.463 48.4118H536.882V23.8525H493.785ZM493.785 42.1981H490.195V37.9815H493.785V42.1981ZM526.889 30.1773H519.691V25.9608H526.889V30.1773Z" fill="#637381"/>
<path d="M494.802 85.6577L496.06 83.5494H458.978L457.738 85.6577H494.802Z" fill="#637381"/>
<path d="M536.882 204.977H505.518V217.701H536.882V204.977Z" fill="#637381"/>
<path d="M536.882 -3H509.459L502.316 9.26116H536.882V-3Z" fill="#637381"/>
<path d="M536.882 226.948H505.518V239.227H536.882V226.948Z" fill="#637381"/>
<path d="M452.705 94.2941H489.621L492.286 89.8741H455.277L452.705 94.2941Z" fill="#637381"/>
<path d="M433.184 127.749H469.637L487.697 97.5304H450.818L433.184 127.749Z" fill="#637381"/>
<path d="M429.816 133.519H466.196L467.713 130.985H431.297L429.816 133.519Z" fill="#637381"/>
<path d="M142.056 9.26111H107.49L105.029 13.4776H142.056V9.26111Z" fill="#637381"/>
<path d="M338.238 13.4776C336.221 11.9612 334.149 10.5557 332.039 9.26111H242.757C240.647 10.5557 238.593 11.9612 236.576 13.4776H338.257H338.238Z" fill="#00AB55"/>
<path d="M541.804 13.4776V9.26111H507.238L504.777 13.4776H541.804Z" fill="#637381"/>
<path d="M102.938 85.6576H65.8927L63.4316 89.8741H100.422L102.938 85.6576Z" fill="#637381"/>
<path d="M145.037 85.6576H113.672V89.8741H145.037V85.6576Z" fill="#637381"/>
<path d="M236.355 85.6576H204.25V89.8741H236.355V85.6576Z" fill="#00AB55"/>
<path d="M376.468 85.6576H344.363V89.8741H376.468V85.6576Z" fill="#00AB55"/>
<path d="M463.18 89.8741H500.17L502.686 85.6576H465.641L463.18 89.8741Z" fill="#637381"/>
<path d="M544.783 85.6576H513.418V89.8741H544.783V85.6576Z" fill="#637381"/>
<path d="M62.9892 127.749H26.5359L24.6484 130.985H61.0647L62.9892 127.749Z" fill="#637381"/>
<path d="M130.232 127.749H98.8672V130.985H130.232V127.749Z" fill="#637381"/>
<path d="M361.683 127.749H329.578V130.985H361.683V127.749Z" fill="#00AB55"/>
<path d="M221.55 127.749H189.445V130.985H221.55V127.749Z" fill="#00AB55"/>
<path d="M424.395 130.985H460.811L462.735 127.749H426.282L424.395 130.985Z" fill="#637381"/>
<path d="M529.98 127.749H498.615V130.985H529.98V127.749Z" fill="#637381"/>
<path d="M149.607 164.847H2.92367L0 169.84H149.607V164.847Z" fill="#637381"/>
<path d="M220.108 164.847H187.818C187.948 166.53 188.133 168.194 188.355 169.84H221.033C220.645 168.212 220.349 166.548 220.127 164.847H220.108Z" fill="#00AB55"/>
<path d="M326.174 169.84H358.852C359.074 168.194 359.259 166.53 359.389 164.847H327.099C326.877 166.548 326.562 168.212 326.192 169.84H326.174Z" fill="#00AB55"/>
<path d="M399.746 169.84H549.353V164.847H402.67L399.746 169.84Z" fill="#637381"/>
<path d="M133.193 94.2941H101.828V97.5304H133.193V94.2941Z" fill="#637381"/>
<path d="M85.9332 94.2941H48.9988L47.1113 97.5304H84.0087L85.9332 94.2941Z" fill="#637381"/>
<path d="M364.644 94.2941H332.539V97.5304H364.644V94.2941Z" fill="#00AB55"/>
<path d="M224.511 94.2941H192.406V97.5304H224.511V94.2941Z" fill="#00AB55"/>
<path d="M532.941 94.2941H501.576V97.5304H532.941V94.2941Z" fill="#637381"/>
<path d="M446.857 97.5304H483.755L485.679 94.2941H448.745L446.857 97.5304Z" fill="#637381"/>
<path d="M143.056 223.711H111.691V226.948H143.056V223.711Z" fill="#637381"/>
<path d="M233.967 223.711C235.336 224.839 236.724 225.912 238.13 226.948H338.645C340.051 225.912 341.439 224.839 342.809 223.711H233.967Z" fill="#00AB55"/>
<path d="M542.802 223.711H511.438V226.948H542.802V223.711Z" fill="#637381"/>
<path d="M144.037 201.741H112.672V204.977H144.037V201.741Z" fill="#637381"/>
<path d="M314.313 204.977H360.981C361.721 203.905 362.424 202.832 363.091 201.741H319.643C317.903 202.943 316.127 204.016 314.295 204.977H314.313Z" fill="#00AB55"/>
<path d="M259.077 201.741H215.629C216.314 202.832 217.017 203.905 217.738 204.977H264.388C262.556 204.016 260.798 202.943 259.058 201.741H259.077Z" fill="#00AB55"/>
<path d="M543.802 201.741H512.438V204.977H543.802V201.741Z" fill="#637381"/>
<path d="M108.195 70.2526H70.9271L63.1738 83.5494H100.256L108.195 70.2526Z" fill="#637381"/>
<path d="M141.076 70.2526H109.711V83.5494H141.076V70.2526Z" fill="#637381"/>
<path d="M340.423 82.9946V83.5494H372.528V82.9946C372.528 78.6301 372.232 74.3951 371.676 70.2526H338.998C339.942 74.3026 340.423 78.5376 340.423 82.9946Z" fill="#00AB55"/>
<path d="M232.413 82.9946C232.413 78.5561 232.895 74.3211 233.838 70.2526H201.16C200.586 74.3766 200.309 78.6301 200.309 82.9946V83.5494H232.413V82.9946Z" fill="#00AB55"/>
<path d="M500.002 83.5494L507.941 70.2526H470.673L462.92 83.5494H500.002Z" fill="#637381"/>
<path d="M540.841 70.2526H509.477V83.5494H540.841V70.2526Z" fill="#637381"/>
<path d="M144.037 48.4119H86.6179L81.8809 56.549H144.037V48.4119Z" fill="#637381"/>
<path d="M337.516 56.549H372.545C371.675 53.775 370.639 51.0564 369.473 48.4119H331.725C333.945 51.0009 335.888 53.7195 337.535 56.549H337.516Z" fill="#00AB55"/>
<path d="M249.012 48.4119H211.263C210.097 51.0564 209.061 53.775 208.191 56.549H243.22C244.867 53.7195 246.791 51.0009 249.03 48.4119H249.012Z" fill="#00AB55"/>
<path d="M482.609 56.549H544.765V48.4119H487.365L482.609 56.549Z" fill="#637381"/>
<path d="M132.212 193.641H100.848V199.651H132.212V193.641Z" fill="#637381"/>
<path d="M239.371 195.176C238.872 194.677 238.391 194.159 237.91 193.659H199.365C200.327 195.712 201.419 197.709 202.566 199.67H244.442C242.702 198.301 241 196.803 239.371 195.176Z" fill="#00AB55"/>
<path d="M315.719 195.176C314.09 196.803 312.388 198.283 310.648 199.67H352.542C353.689 197.691 354.762 195.694 355.743 193.659H317.199C316.718 194.177 316.237 194.677 315.737 195.176H315.719Z" fill="#00AB55"/>
<path d="M531.958 193.641H500.594V199.651H531.958V193.641Z" fill="#637381"/>
<path d="M143.056 133.519H111.691V139.529H143.056V133.519Z" fill="#637381"/>
<path d="M72.3697 133.519H35.9904L32.4746 139.529H68.7799L72.3697 133.519Z" fill="#637381"/>
<path d="M234.374 133.519H202.27V139.529H234.374V133.519Z" fill="#00AB55"/>
<path d="M374.507 133.519H342.402V139.529H374.507V133.519Z" fill="#00AB55"/>
<path d="M542.802 133.519H511.438V139.529H542.802V133.519Z" fill="#637381"/>
<path d="M435.738 133.519L432.24 139.529H468.527L472.117 133.519H435.738Z" fill="#637381"/>
<path d="M165.39 161.037H20.9093L19.1699 164.051H165.39V161.037Z" fill="#637381"/>
<path d="M342.958 164.051H375.211C375.285 163.053 375.359 162.054 375.396 161.037H343.217C343.143 162.054 343.05 163.053 342.939 164.051H342.958Z" fill="#00AB55"/>
<path d="M235.523 161.037H203.344C203.381 162.054 203.455 163.053 203.529 164.051H235.782C235.671 163.053 235.578 162.054 235.504 161.037H235.523Z" fill="#00AB55"/>
<path d="M418.916 164.051H565.136V161.037H420.674L418.916 164.051Z" fill="#637381"/>
<path d="M134.173 217.701H102.809V223.711H134.173V217.701Z" fill="#637381"/>
<path d="M121.888 208.732H90.5234V214.742H121.888V208.732Z" fill="#637381"/>
<path d="M142.891 230.073H126.385V236.083H142.891V230.073Z" fill="#637381"/>
<path d="M340.515 217.701H218.535C218.535 217.701 218.609 217.775 218.628 217.812C220.737 219.92 222.884 221.88 225.104 223.73H333.946C336.166 221.899 338.313 219.92 340.422 217.812C340.459 217.775 340.496 217.738 340.515 217.701Z" fill="#00AB55"/>
<path d="M533.939 217.701H502.574V223.711H533.939V217.701Z" fill="#637381"/>
<path d="M137.135 15.7153H98.7946L94.0391 23.8525H137.135V15.7153Z" fill="#637381"/>
<path d="M343.364 22.2065C341.032 19.8764 338.627 17.7126 336.166 15.7153H228.767C226.306 17.7311 223.9 19.8764 221.569 22.2065C221.032 22.7428 220.514 23.2977 219.996 23.8525H344.937C344.418 23.2977 343.9 22.7428 343.364 22.2065ZM307.484 21.8921H293.273V17.6756H307.484V21.8921Z" fill="#00AB55"/>
<path d="M493.803 23.8525H536.881V15.7153H498.54L493.803 23.8525Z" fill="#637381"/>
<path d="M155.417 23.8525H115.596V25.5909H155.417V23.8525Z" fill="#637381"/>
<path d="M228.102 35.2075H188.281V36.9459H228.102V35.2075Z" fill="#00AB55"/>
<path d="M394.417 106.87H354.596V108.608H394.417V106.87Z" fill="#00AB55"/>
<path d="M449.727 117.781H409.906V119.519H449.727V117.781Z" fill="#637381"/>
<path d="M513.714 180.88H473.893V182.619H513.714V180.88Z" fill="#637381"/>
<path d="M562.714 31.5088H522.893V33.2472H562.714V31.5088Z" fill="#637381"/>
<path d="M496.819 27.1998H456.998V28.9382H496.819V27.1998Z" fill="#637381"/>
<path d="M103.086 36.0952H72.3691V40.3117H103.086V36.0952Z" fill="#637381"/>
<path d="M43.9104 115.488H13.1934V119.704H43.9104V115.488Z" fill="#637381"/>
<path d="M352.45 21.7443H312.629V25.9608H352.45V21.7443Z" fill="#00AB55"/>
<path d="M242.831 117.596H224.549V119.704H242.831V117.596Z" fill="#00AB55"/>
<path d="M161.709 48.4119H154.492V56.549H161.709V48.4119Z" fill="#637381"/>
<path d="M146.314 111.419H129.863V119.556H146.314V111.419Z" fill="#637381"/>
<path d="M556.719 48.4119H549.502V56.549H556.719V48.4119Z" fill="#637381"/>
<path d="M376.135 29.1971H368.918V37.3343H376.135V29.1971Z" fill="#00AB55"/>
</g>
<defs>
<clipPath id="clip0_26_4986">
<rect width="575" height="246" fill="white" transform="translate(0 -3)"/>
</clipPath>
</defs>
</svg>
