<svg width="344" height="344" viewBox="0 0 344 344" fill="none" xmlns="http://www.w3.org/2000/svg">
<g clip-path="url(#clip0_63_1775)">
<path d="M344 74.9006V133.086H295.825C282.011 133.086 270.806 121.88 270.806 108.066C270.806 88.8081 255.195 73.1972 235.939 73.1972H108.075C88.818 73.1972 73.1943 88.8081 73.1943 108.079V235.934C73.1943 255.192 88.8047 270.803 108.061 270.803C130.698 270.803 149.05 289.155 149.05 311.793V344H74.9111C33.6028 344 0 310.396 0 269.099V74.9006C0 33.6041 33.6028 0 74.9111 0H269.089C310.397 0 344 33.6041 344 74.9006Z" fill="#00AB55"/>
<path d="M295.878 160.014C282.024 160.014 270.806 171.246 270.806 185.087V235.934C270.806 255.192 255.195 270.803 235.939 270.803H214.518C191.881 270.803 173.529 289.155 173.529 311.793V344H269.089C310.397 344 344 310.396 344 269.099V160.014H295.878Z" fill="#FF2D2E"/>
</g>
<defs>
<clipPath id="clip0_63_1775">
<rect width="344" height="344" fill="white"/>
</clipPath>
</defs>
</svg>
