<svg width="105" height="105" viewBox="0 0 105 105" fill="none" xmlns="http://www.w3.org/2000/svg">
<g clip-path="url(#clip0_283_2739)">
<path d="M105 22.8621V40.6221H90.2954C86.079 40.6221 82.6587 37.2017 82.6587 32.9851C82.6587 27.1071 77.8939 22.3422 72.0161 22.3422H32.9879C27.1101 22.3422 22.3413 27.1071 22.3413 32.9892V72.0149C22.3413 77.8929 27.1061 82.6578 32.9839 82.6578C39.8934 82.6578 45.495 88.2596 45.495 95.1694V105H22.8653C10.2567 105 0 94.7429 0 82.1379V22.8621C0 10.2571 10.2567 0 22.8653 0H82.1347C94.7433 0 105 10.2571 105 22.8621Z" fill="white" fill-opacity="0.6"/>
<path d="M90.3116 48.8418C86.083 48.8418 82.6587 52.2703 82.6587 56.495V72.0152C82.6587 77.8932 77.8939 82.6582 72.0161 82.6582H65.4779C58.5684 82.6582 52.9668 88.26 52.9668 95.1698V105H82.1347C94.7433 105 105 94.7433 105 82.1382V48.8418H90.3116Z" fill="white" fill-opacity="0.3"/>
</g>
<defs>
<clipPath id="clip0_283_2739">
<rect width="105" height="105" fill="white"/>
</clipPath>
</defs>
</svg>
