<svg width="37" height="37" viewBox="0 0 37 37" fill="none" xmlns="http://www.w3.org/2000/svg">
<g clip-path="url(#clip0_11_543)">
<path d="M36.3869 8.48005V14.6346H31.2911C29.8299 14.6346 28.6447 13.4493 28.6447 11.9881C28.6447 9.95112 26.9935 8.29986 24.9566 8.29986H11.4317C9.39479 8.29986 7.74219 9.95112 7.74219 11.9895V25.5135C7.74219 27.5505 9.39338 29.2017 11.4303 29.2017C13.8247 29.2017 15.7659 31.143 15.7659 33.5375V36.9442H7.92378C3.55437 36.9442 0 33.3897 0 29.0216V8.48005C0 4.11188 3.55437 0.557373 7.92378 0.557373H28.4631C32.8325 0.557373 36.3869 4.11188 36.3869 8.48005Z" fill="#00AB55"/>
<path d="M31.2968 17.4829C29.8314 17.4829 28.6447 18.671 28.6447 20.1351V25.5135C28.6447 27.5504 26.9935 29.2017 24.9566 29.2017H22.6908C20.2964 29.2017 18.3552 31.1429 18.3552 33.5375V36.9442H28.4631C32.8325 36.9442 36.3869 33.3897 36.3869 29.0215V17.4829H31.2968Z" fill="#FF2D2E"/>
</g>
<defs>
<clipPath id="clip0_11_543">
<rect width="36.3869" height="36.3869" fill="white" transform="translate(0 0.557373)"/>
</clipPath>
</defs>
</svg>
