<svg width="272" height="57" viewBox="0 0 272 57" fill="none" xmlns="http://www.w3.org/2000/svg">
<path d="M66.2737 11.0106C66.2737 9.96927 66.7973 9.44556 67.8476 9.44556H81.0577C82.1049 9.44556 82.6316 9.96621 82.6316 11.0106V11.8712C82.6316 12.9156 82.108 13.4362 81.0577 13.4362H70.9153V35.2515C70.9153 36.2928 70.3917 36.8166 69.3414 36.8166H67.8476C66.8004 36.8166 66.2737 36.2959 66.2737 35.2515V11.0106Z" fill="white"/>
<path d="M107.989 35.2515C107.989 36.2928 107.466 36.8166 106.416 36.8166H104.922C103.875 36.8166 103.348 36.2959 103.348 35.2515V13.4362H92.6541V29.8551C92.6541 32.3573 92.0997 34.1551 90.994 35.2515C89.8852 36.3449 88.148 36.8931 85.7733 36.8931H85.7333C85.3144 36.8931 84.9541 36.7461 84.6522 36.4521C84.3504 36.1581 84.1995 35.7722 84.1995 35.2883V34.4675C84.1995 33.4262 84.566 32.9025 85.299 32.9025C86.2569 32.9025 86.9468 32.6758 87.3719 32.2195C87.7969 31.7632 88.0094 30.9761 88.0094 29.8551V11.0106C88.0094 9.96927 88.533 9.44556 89.5833 9.44556H106.412C107.46 9.44556 107.986 9.96621 107.986 11.0106V35.2515H107.989Z" fill="white"/>
<path d="M136.258 35.0157C136.455 35.5517 136.436 35.9835 136.208 36.3143C135.977 36.6481 135.577 36.8135 135.001 36.8135H133.252C132.346 36.8135 131.752 36.3908 131.462 35.5425L129.614 30.2073H119.231L117.387 35.5455C117.069 36.3908 116.413 36.8165 115.421 36.8165H113.5C112.865 36.8165 112.428 36.6358 112.184 36.2714C111.941 35.9069 111.92 35.4322 112.117 34.8472L121.119 10.5297C121.434 9.80999 122.037 9.45166 122.927 9.45166H125.444C126.334 9.45166 126.938 9.86818 127.252 10.7012L136.255 35.0188L136.258 35.0157ZM120.608 26.2197H128.709L124.658 14.4928L120.608 26.2197Z" fill="white"/>
<path d="M142.902 36.8135C141.854 36.8135 141.328 36.2928 141.328 35.2485V11.0106C141.328 9.96927 141.851 9.44556 142.902 9.44556H151.393C153.909 9.44556 155.862 10.101 157.251 11.4087C158.64 12.7195 159.333 14.5265 159.333 16.8327C159.333 19.4268 158.258 21.2123 156.109 22.1893C157.473 22.5537 158.613 23.3286 159.53 24.5138C160.448 25.6991 160.907 27.1385 160.907 28.8353C160.907 31.2211 160.183 33.1444 158.736 34.6114C157.285 36.0785 155.323 36.8104 152.847 36.8104H142.898L142.902 36.8135ZM153.654 19.7667C154.298 19.1419 154.618 18.2415 154.618 17.0685C154.618 15.8955 154.298 14.9951 153.654 14.3703C153.013 13.7455 152.154 13.4331 151.079 13.4331H145.966V20.7039H151.079C152.154 20.7039 153.013 20.3915 153.654 19.7667ZM156.192 28.6821C156.192 27.405 155.847 26.3943 155.16 25.6532C154.473 24.9089 153.571 24.5384 152.459 24.5384H145.972V32.8259H152.459C153.571 32.8259 154.473 32.4523 155.16 31.7019C155.85 30.9516 156.192 29.947 156.192 28.6821Z" fill="white"/>
<path d="M171.465 10.8453C173.708 9.60183 176.19 8.97705 178.916 8.97705C181.642 8.97705 184.124 9.59877 186.367 10.8453C188.609 12.0887 190.371 13.7946 191.655 15.9569C192.939 18.1191 193.58 20.511 193.58 23.1296C193.58 25.7482 192.939 28.1401 191.655 30.3024C190.371 32.4646 188.609 34.1705 186.367 35.4139C184.124 36.6574 181.642 37.2791 178.916 37.2791C176.19 37.2791 173.708 36.6574 171.465 35.4139C169.223 34.1705 167.461 32.4646 166.177 30.3024C164.893 28.1401 164.249 25.7482 164.249 23.1296C164.249 20.511 164.893 18.1191 166.177 15.9569C167.461 13.7946 169.223 12.0887 171.465 10.8453ZM171.86 30.3054C173.785 32.2472 176.138 33.218 178.916 33.218C181.694 33.218 184.047 32.2472 185.972 30.3054C187.897 28.3637 188.861 25.9718 188.861 23.1327C188.861 20.2936 187.897 17.9016 185.972 15.9599C184.047 14.0182 181.694 13.0473 178.916 13.0473C176.138 13.0473 173.785 14.0182 171.86 15.9599C169.932 17.9016 168.971 20.2936 168.971 23.1327C168.971 25.9718 169.935 28.3637 171.86 30.3054Z" fill="white"/>
<path d="M202.94 21.0592H204.613L211.749 10.4624C212.205 9.78551 212.83 9.44862 213.625 9.44862H215.365C216.003 9.44862 216.425 9.62932 216.628 9.99071C216.831 10.3521 216.748 10.7962 216.381 11.326L208.497 22.9611L217.777 34.9116C218.183 35.4292 218.291 35.8763 218.1 36.253C217.909 36.6297 217.487 36.8166 216.831 36.8166H215.023C214.238 36.8166 213.594 36.5072 213.095 35.8886L204.751 25.0498H202.943V35.2546C202.943 36.2959 202.42 36.8196 201.369 36.8196H199.876C198.828 36.8196 198.302 36.299 198.302 35.2546V11.0106C198.302 9.96927 198.825 9.44556 199.876 9.44556H201.369C202.417 9.44556 202.943 9.96621 202.943 11.0106V21.0592H202.94Z" fill="white"/>
<path d="M222.202 11.0106C222.202 9.96927 222.726 9.44556 223.776 9.44556H225.27C226.317 9.44556 226.844 9.96621 226.844 11.0106V21.0592H238.955V11.0106C238.955 9.96927 239.478 9.44556 240.528 9.44556H242.022C243.069 9.44556 243.596 9.96621 243.596 11.0106V35.2515C243.596 36.2928 243.073 36.8166 242.022 36.8166H240.528C239.478 36.8166 238.955 36.2959 238.955 35.2515V25.0468H226.844V35.2515C226.844 36.2928 226.32 36.8166 225.27 36.8166H223.776C222.729 36.8166 222.202 36.2959 222.202 35.2515V11.0106Z" fill="white"/>
<path d="M271.861 35.0157C272.058 35.5517 272.043 35.9835 271.812 36.3143C271.581 36.6481 271.18 36.8135 270.601 36.8135H268.852C267.946 36.8135 267.352 36.3908 267.063 35.5425L265.215 30.2073H254.832L252.987 35.5455C252.67 36.3908 252.014 36.8165 251.022 36.8165H249.1C248.465 36.8165 248.028 36.6358 247.785 36.2714C247.541 35.9069 247.52 35.4322 247.717 34.8472L256.72 10.5297C257.034 9.80999 257.638 9.45166 258.528 9.45166H261.044C261.934 9.45166 262.538 9.86818 262.852 10.7012L271.855 35.0188L271.861 35.0157ZM256.212 26.2197H264.312L260.262 14.4928L256.212 26.2197Z" fill="white"/>
<path d="M65.9934 52.185V47.0122H69.9605V52.185H69.4492V47.4685H66.5047V52.185H65.9934Z" fill="white"/>
<path d="M74.4143 52.185V47.0122H76.213C76.6812 47.0122 77.0662 47.1531 77.368 47.4379C77.6699 47.7227 77.8208 48.0995 77.8208 48.5711C77.8208 49.0428 77.6699 49.4286 77.368 49.7196C77.0662 50.0075 76.6812 50.1545 76.213 50.1545H74.9256V52.185H74.4143ZM74.9256 49.6982H76.1453C76.4964 49.6982 76.7736 49.5971 76.98 49.395C77.1863 49.1928 77.291 48.9202 77.291 48.5711C77.291 48.222 77.1894 47.9586 76.983 47.7626C76.7767 47.5665 76.5026 47.4685 76.1514 47.4685H74.9225V49.6982H74.9256Z" fill="white"/>
<path d="M81.4336 49.5604C81.4336 48.8254 81.6892 48.2006 82.2036 47.6922C82.718 47.1807 83.3432 46.9265 84.0824 46.9265C84.8216 46.9265 85.4499 47.1807 85.9612 47.6891C86.4725 48.1975 86.7312 48.8192 86.7312 49.5604C86.7312 50.3016 86.4756 50.9631 85.9612 51.4868C85.4468 52.0105 84.8216 52.2739 84.0824 52.2739C83.3432 52.2739 82.7149 52.0105 82.2036 51.4868C81.6892 50.9631 81.4336 50.3199 81.4336 49.5604ZM81.9664 49.5604C81.9664 50.1882 82.1728 50.7181 82.5855 51.1499C82.9982 51.5818 83.4972 51.7992 84.0824 51.7992C84.6676 51.7992 85.1758 51.5818 85.5854 51.1499C85.9951 50.7181 86.1984 50.1882 86.1984 49.5604C86.1984 48.9326 85.9951 48.4395 85.5854 48.026C85.1758 47.6126 84.6768 47.4043 84.0824 47.4043C83.488 47.4043 82.9952 47.6126 82.5855 48.026C82.1728 48.4395 81.9664 48.9509 81.9664 49.5604Z" fill="white"/>
<path d="M90.8462 52.1849V47.0121H91.3575V50.7332L91.3144 51.4315H91.3298C91.5115 51.1283 91.6624 50.8894 91.7825 50.7179L94.4159 47.009H94.9118V52.1819H94.4005V48.4577L94.4436 47.7594H94.4282C94.2558 48.0534 94.111 48.2862 93.9909 48.4577L91.3421 52.1819H90.8462V52.1849Z" fill="white"/>
<path d="M98.8508 51.6061L99.1557 51.2386C99.3036 51.404 99.4915 51.5418 99.7194 51.646C99.9473 51.7501 100.181 51.8052 100.422 51.8052C100.782 51.8052 101.078 51.7072 101.309 51.5112C101.54 51.3152 101.657 51.0518 101.657 50.7241C101.657 50.4148 101.552 50.1728 101.343 49.9952C101.133 49.8176 100.871 49.7318 100.554 49.7318H99.895V49.2908H100.422C100.717 49.2908 100.97 49.202 101.176 49.0213C101.383 48.8436 101.487 48.6139 101.487 48.3322C101.487 48.0504 101.401 47.8391 101.229 47.6584C101.056 47.4807 100.794 47.3889 100.443 47.3889C99.9997 47.3889 99.5993 47.5359 99.2451 47.8299L99.0079 47.4317C99.4206 47.0948 99.9165 46.9233 100.496 46.9233C100.964 46.9233 101.333 47.0458 101.604 47.2909C101.875 47.5359 102.011 47.8636 102.011 48.277C102.011 48.8161 101.752 49.2081 101.235 49.447V49.4623C101.524 49.5419 101.758 49.692 101.931 49.9156C102.103 50.1391 102.19 50.4117 102.19 50.7364C102.19 51.1988 102.023 51.5694 101.694 51.8512C101.364 52.1329 100.945 52.2738 100.443 52.2738C100.141 52.2738 99.8487 52.2156 99.5592 52.0992C99.2697 51.9798 99.0356 51.8175 98.8539 51.6061H98.8508Z" fill="white"/>
<path d="M106.301 52.185V47.0122H108.076C108.491 47.0122 108.827 47.1286 109.089 47.3644C109.351 47.6002 109.48 47.9157 109.48 48.3138C109.48 48.8437 109.261 49.2173 108.821 49.4409V49.4562C109.086 49.5297 109.298 49.6828 109.458 49.9187C109.616 50.1545 109.696 50.4271 109.696 50.7364C109.696 51.1836 109.548 51.5358 109.252 51.7961C108.956 52.0564 108.584 52.185 108.134 52.185H106.298H106.301ZM106.813 49.2571H108.079C108.34 49.2571 108.553 49.1744 108.716 49.006C108.879 48.8376 108.959 48.6201 108.959 48.3506C108.959 48.0811 108.879 47.8728 108.719 47.7105C108.559 47.5482 108.34 47.4685 108.063 47.4685H106.813V49.2571ZM106.813 51.7287H108.143C108.457 51.7287 108.707 51.6368 108.892 51.4561C109.073 51.2754 109.166 51.0304 109.166 50.7211C109.166 50.4118 109.07 50.1637 108.882 49.9769C108.692 49.79 108.445 49.6982 108.14 49.6982H106.816V51.7287H106.813Z" fill="white"/>
<path d="M113.469 49.5604C113.469 48.8254 113.724 48.2006 114.239 47.6922C114.753 47.1807 115.378 46.9265 116.118 46.9265C116.857 46.9265 117.485 47.1807 117.996 47.6891C118.508 48.1975 118.766 48.8192 118.766 49.5604C118.766 50.3016 118.511 50.9631 117.996 51.4868C117.482 52.0105 116.857 52.2739 116.118 52.2739C115.378 52.2739 114.75 52.0105 114.239 51.4868C113.724 50.9631 113.469 50.3199 113.469 49.5604ZM114.002 49.5604C114.002 50.1882 114.208 50.7181 114.621 51.1499C115.033 51.5818 115.532 51.7992 116.118 51.7992C116.703 51.7992 117.211 51.5818 117.621 51.1499C118.03 50.7181 118.234 50.1882 118.234 49.5604C118.234 48.9326 118.03 48.4395 117.621 48.026C117.211 47.6126 116.712 47.4043 116.118 47.4043C115.523 47.4043 115.03 47.6126 114.621 48.026C114.208 48.4395 114.002 48.9509 114.002 49.5604Z" fill="white"/>
<path d="M121.985 51.7316H122.512C122.863 51.2661 123.094 50.724 123.208 50.1054C123.322 49.4867 123.377 48.7945 123.377 48.0228V47.0151H126.232V51.7316H126.818V53.217H126.337V52.188H122.475V53.217H121.985V51.7316ZM123.057 51.7316H125.721V47.4715H123.87V48.0381C123.87 49.7256 123.599 50.9568 123.057 51.7316Z" fill="white"/>
<path d="M130.433 49.5665C130.433 48.8101 130.68 48.1822 131.169 47.6799C131.659 47.1777 132.284 46.9265 133.045 46.9265C133.806 46.9265 134.456 47.1501 134.924 47.5972L134.65 47.9739C134.447 47.7963 134.203 47.6585 133.917 47.5574C133.63 47.4564 133.344 47.4074 133.057 47.4074C132.435 47.4074 131.93 47.6126 131.545 48.0229C131.157 48.4333 130.963 48.9448 130.963 49.5635C130.963 50.1821 131.157 50.7211 131.548 51.153C131.936 51.5848 132.448 51.8023 133.079 51.8023C133.71 51.8023 134.289 51.5756 134.758 51.1193L135.053 51.4807C134.505 52.0167 133.843 52.2831 133.064 52.2831C132.284 52.2831 131.65 52.0258 131.163 51.5083C130.673 50.9907 130.43 50.3475 130.43 49.5757L130.433 49.5665Z" fill="white"/>
<path d="M140.29 52.185V47.4685H138.426V47.0122H142.674V47.4685H140.801V52.185H140.29Z" fill="white"/>
<path d="M146.505 52.185V47.0122H148.279C148.695 47.0122 149.03 47.1286 149.292 47.3644C149.554 47.6002 149.683 47.9157 149.683 48.3138C149.683 48.8437 149.465 49.2173 149.024 49.4409V49.4562C149.289 49.5297 149.502 49.6828 149.662 49.9187C149.819 50.1545 149.899 50.4271 149.899 50.7364C149.899 51.1836 149.751 51.5358 149.455 51.7961C149.16 52.0564 148.787 52.185 148.337 52.185H146.502H146.505ZM147.016 49.2571H148.282C148.544 49.2571 148.756 49.1744 148.92 49.006C149.083 48.8376 149.163 48.6201 149.163 48.3506C149.163 48.0811 149.083 47.8728 148.923 47.7105C148.762 47.5482 148.544 47.4685 148.267 47.4685H147.016V49.2571ZM147.016 51.7287H148.347C148.661 51.7287 148.91 51.6368 149.095 51.4561C149.277 51.2754 149.369 51.0304 149.369 50.7211C149.369 50.4118 149.274 50.1637 149.086 49.9769C148.895 49.79 148.648 49.6982 148.344 49.6982H147.019V51.7287H147.016Z" fill="white"/>
<path d="M154.02 52.185V47.0122H156.943V47.4685H154.531V49.3521H156.506V49.8084H154.531V51.7287H157.085V52.185H154.02Z" fill="white"/>
<path d="M161.123 52.185V47.0122H161.634V49.3674H164.646V47.0122H165.164V52.185H164.646V49.8237H161.634V52.185H161.123Z" fill="white"/>
<path d="M169.608 52.185V47.0122H170.119V49.3674H173.131V47.0122H173.649V52.185H173.131V49.8237H170.119V52.185H169.608Z" fill="white"/>
<path d="M177.748 49.5604C177.748 48.8254 178.004 48.2006 178.518 47.6922C179.033 47.1807 179.658 46.9265 180.397 46.9265C181.136 46.9265 181.765 47.1807 182.276 47.6891C182.787 48.1975 183.046 48.8192 183.046 49.5604C183.046 50.3016 182.79 50.9631 182.276 51.4868C181.762 52.0105 181.136 52.2739 180.397 52.2739C179.658 52.2739 179.03 52.0105 178.518 51.4868C178.004 50.9631 177.748 50.3199 177.748 49.5604ZM178.281 49.5604C178.281 50.1882 178.488 50.7181 178.9 51.1499C179.313 51.5818 179.812 51.7992 180.397 51.7992C180.982 51.7992 181.491 51.5818 181.9 51.1499C182.31 50.7181 182.513 50.1882 182.513 49.5604C182.513 48.9326 182.31 48.4395 181.9 48.026C181.491 47.6126 180.992 47.4043 180.397 47.4043C179.803 47.4043 179.31 47.6126 178.9 48.026C178.488 48.4395 178.281 48.9509 178.281 49.5604Z" fill="white"/>
<path d="M187.158 52.185V47.0122H190.081V47.4685H187.669V49.3521H189.644V49.8084H187.669V51.7287H190.223V52.185H187.158Z" fill="white"/>
<path d="M198.936 51.9583L199.179 51.5693C199.416 51.7347 199.62 51.8205 199.786 51.8205C199.943 51.8205 200.069 51.7653 200.159 51.652C200.251 51.5387 200.344 51.3641 200.436 51.1222L198.372 47.0182H198.942L200.371 49.9002L200.667 50.577H200.682C200.762 50.3381 200.836 50.1146 200.91 49.9063L201.991 47.0151H202.54L200.839 51.3702C200.602 51.9736 200.254 52.2737 199.795 52.2737C199.524 52.2737 199.238 52.1696 198.936 51.9583Z" fill="white"/>
<path d="M206.371 52.185V47.0122H210.338V52.185H209.827V47.4685H206.882V52.185H206.371Z" fill="white"/>
<path d="M214.792 52.185V47.0122H216.59C217.059 47.0122 217.444 47.1531 217.745 47.4379C218.047 47.7227 218.198 48.0995 218.198 48.5711C218.198 49.0428 218.047 49.4286 217.745 49.7196C217.444 50.0075 217.059 50.1545 216.59 50.1545H215.303V52.185H214.792ZM215.303 49.6982H216.523C216.874 49.6982 217.151 49.5971 217.357 49.395C217.564 49.1928 217.668 48.9202 217.668 48.5711C217.668 48.222 217.567 47.9586 217.36 47.7626C217.154 47.5665 216.88 47.4685 216.529 47.4685H215.3V49.6982H215.303Z" fill="white"/>
<path d="M221.281 52.185L223.191 47.0122H223.739L225.649 52.185H225.11L224.509 50.5373H222.415L221.823 52.185H221.284H221.281ZM222.569 50.0963H224.352L223.671 48.222L223.471 47.5451H223.456C223.382 47.8361 223.314 48.0596 223.256 48.222L222.569 50.0963Z" fill="white"/>
<path d="M229.508 52.185V47.0122H231.282C231.698 47.0122 232.034 47.1286 232.296 47.3644C232.557 47.6002 232.687 47.9157 232.687 48.3138C232.687 48.8437 232.468 49.2173 232.028 49.4409V49.4562C232.293 49.5297 232.505 49.6828 232.665 49.9187C232.822 50.1545 232.902 50.4271 232.902 50.7364C232.902 51.1836 232.755 51.5358 232.459 51.7961C232.163 52.0564 231.79 52.185 231.341 52.185H229.505H229.508ZM230.019 49.2571H231.285C231.547 49.2571 231.76 49.1744 231.923 49.006C232.086 48.8376 232.166 48.6201 232.166 48.3506C232.166 48.0811 232.086 47.8728 231.926 47.7105C231.766 47.5482 231.547 47.4685 231.27 47.4685H230.019V49.2571ZM230.019 51.7287H231.35C231.664 51.7287 231.914 51.6368 232.098 51.4561C232.28 51.2754 232.373 51.0304 232.373 50.7211C232.373 50.4118 232.277 50.1637 232.089 49.9769C231.898 49.79 231.652 49.6982 231.347 49.6982H230.023V51.7287H230.019Z" fill="white"/>
<path d="M236.294 51.7684C236.759 51.7041 237.079 51.3672 237.261 50.7516C237.439 50.1391 237.532 49.2417 237.532 48.0595V47.0151H240.387V52.188H239.87V47.4715H238.028V48.0687C238.028 48.7272 238.003 49.2846 237.954 49.7501C237.905 50.2126 237.818 50.6383 237.695 51.0211C237.572 51.407 237.393 51.701 237.162 51.9031C236.931 52.1053 236.642 52.2217 236.297 52.2462V51.7684H236.294Z" fill="white"/>
<path d="M244.831 52.185V47.0122H247.754V47.4685H245.343V49.3521H247.317V49.8084H245.343V51.7287H247.896V52.185H244.831Z" fill="white"/>
<path d="M251.934 52.185V47.0122H252.445V49.3674H255.457V47.0122H255.975V52.185H255.457V49.8237H252.445V52.185H251.934Z" fill="white"/>
<path d="M260.419 52.1849V47.0121H260.93V50.7332L260.887 51.4315H260.903C261.084 51.1283 261.235 50.8894 261.356 50.7179L263.989 47.009H264.485V52.1819H263.974V48.4577L264.017 47.7594H264.001C263.829 48.0534 263.684 48.2862 263.564 48.4577L260.915 52.1819H260.419V52.1849Z" fill="white"/>
<path d="M268.936 52.185V47.0122H271.858V47.4685H269.447V49.3521H271.421V49.8084H269.447V51.7287H272V52.185H268.936Z" fill="white"/>
<g clip-path="url(#clip0_42_36)">
<path d="M55.2918 12.9896V22.3418H47.5485C45.3282 22.3418 43.5271 20.5407 43.5271 18.3203C43.5271 15.225 41.018 12.7158 37.9229 12.7158H17.3711C14.2759 12.7158 11.7647 15.225 11.7647 18.3224V38.8729C11.7647 41.9682 14.2737 44.4773 17.3689 44.4773C21.0074 44.4773 23.9571 47.4272 23.9571 51.0658V56.2425H12.0406C5.40105 56.2425 0 50.8412 0 44.2035V12.9896C0 6.35194 5.40105 0.950684 12.0406 0.950684H43.2512C49.8907 0.950684 55.2918 6.35194 55.2918 12.9896Z" fill="#00CD66"/>
<path d="M47.5569 26.6699C45.3302 26.6699 43.527 28.4753 43.527 30.7V38.8728C43.527 41.9681 41.0179 44.4772 37.9228 44.4772H34.4798C30.8413 44.4772 27.8916 47.4271 27.8916 51.0657V56.2424H43.2511C49.8906 56.2424 55.2917 50.8411 55.2917 44.2034V26.6699H47.5569Z" fill="#FF2D2E"/>
</g>
<defs>
<clipPath id="clip0_42_36">
<rect width="55.2918" height="55.2918" fill="white" transform="translate(0 0.950684)"/>
</clipPath>
</defs>
</svg>
