<svg width="179" height="37" viewBox="0 0 179 37" fill="none" xmlns="http://www.w3.org/2000/svg">
<path d="M43.6138 7.17787C43.6138 6.4926 43.9583 6.14795 44.6495 6.14795H53.343C54.0321 6.14795 54.3787 6.49058 54.3787 7.17787V7.74423C54.3787 8.43151 54.0342 8.77415 53.343 8.77415H46.6683V23.1306C46.6683 23.8158 46.3238 24.1605 45.6326 24.1605H44.6495C43.9604 24.1605 43.6138 23.8179 43.6138 23.1306V7.17787Z" fill="#454F5B"/>
<path d="M71.0666 23.1306C71.0666 23.8158 70.722 24.1605 70.0308 24.1605H69.0478C68.3586 24.1605 68.012 23.8179 68.012 23.1306V8.77415H60.9745V19.5793C60.9745 21.2259 60.6097 22.409 59.882 23.1306C59.1523 23.8501 58.0092 24.2109 56.4464 24.2109H56.4201C56.1444 24.2109 55.9072 24.1141 55.7086 23.9206C55.51 23.7272 55.4106 23.4732 55.4106 23.1548V22.6146C55.4106 21.9293 55.6518 21.5847 56.1343 21.5847C56.7646 21.5847 57.2187 21.4355 57.4984 21.1352C57.7781 20.8349 57.9179 20.3169 57.9179 19.5793V7.17787C57.9179 6.4926 58.2625 6.14795 58.9537 6.14795H70.0288C70.7179 6.14795 71.0645 6.49058 71.0645 7.17787V23.1306H71.0666Z" fill="#454F5B"/>
<path d="M89.6693 22.9755C89.7991 23.3282 89.7869 23.6124 89.6369 23.8301C89.4849 24.0498 89.2214 24.1586 88.8423 24.1586H87.6911C87.0951 24.1586 86.7039 23.8804 86.5134 23.3222L85.2973 19.8112H78.4645L77.2504 23.3242C77.0416 23.8804 76.6099 24.1606 75.9572 24.1606H74.6924C74.2749 24.1606 73.9871 24.0417 73.8269 23.8018C73.6668 23.562 73.6526 23.2496 73.7823 22.8646L79.707 6.86156C79.9138 6.38791 80.311 6.1521 80.8968 6.1521H82.5528C83.1386 6.1521 83.5359 6.42621 83.7426 6.97442L89.6673 22.9775L89.6693 22.9755ZM79.3706 17.187H84.7013L82.036 9.46961L79.3706 17.187Z" fill="#454F5B"/>
<path d="M94.0416 24.1585C93.3525 24.1585 93.0059 23.8158 93.0059 23.1285V7.17787C93.0059 6.4926 93.3504 6.14795 94.0416 6.14795H99.6298C101.286 6.14795 102.571 6.57927 103.485 7.43989C104.399 8.30252 104.855 9.49167 104.855 11.0093C104.855 12.7165 104.148 13.8915 102.733 14.5345C103.631 14.7743 104.381 15.2842 104.985 16.0642C105.589 16.8442 105.891 17.7915 105.891 18.9081C105.891 20.4782 105.415 21.7439 104.462 22.7093C103.507 23.6747 102.216 24.1565 100.587 24.1565H94.0396L94.0416 24.1585ZM101.118 12.9402C101.541 12.529 101.752 11.9365 101.752 11.1645C101.752 10.3926 101.541 9.80004 101.118 9.38888C100.696 8.97771 100.13 8.77213 99.4231 8.77213H96.0584V13.5569H99.4231C100.13 13.5569 100.696 13.3514 101.118 12.9402ZM102.788 18.8073C102.788 17.9668 102.561 17.3017 102.109 16.814C101.657 16.3242 101.063 16.0803 100.331 16.0803H96.0624V21.5343H100.331C101.063 21.5343 101.657 21.2884 102.109 20.7946C102.563 20.3008 102.788 19.6397 102.788 18.8073Z" fill="#454F5B"/>
<path d="M112.839 7.06906C114.315 6.25076 115.948 5.8396 117.742 5.8396C119.536 5.8396 121.17 6.24875 122.645 7.06906C124.121 7.88735 125.28 9.00998 126.126 10.4329C126.971 11.8559 127.392 13.43 127.392 15.1532C127.392 16.8765 126.971 18.4506 126.126 19.8735C125.28 21.2965 124.121 22.4191 122.645 23.2374C121.17 24.0557 119.536 24.4648 117.742 24.4648C115.948 24.4648 114.315 24.0557 112.839 23.2374C111.364 22.4191 110.204 21.2965 109.359 19.8735C108.514 18.4506 108.09 16.8765 108.09 15.1532C108.09 13.43 108.514 11.8559 109.359 10.4329C110.204 9.00998 111.364 7.88735 112.839 7.06906ZM113.099 19.8756C114.365 21.1534 115.914 21.7923 117.742 21.7923C119.571 21.7923 121.119 21.1534 122.386 19.8756C123.653 18.5977 124.287 17.0236 124.287 15.1552C124.287 13.2869 123.653 11.7128 122.386 10.4349C121.119 9.15712 119.571 8.5182 117.742 8.5182C115.914 8.5182 114.365 9.15712 113.099 10.4349C111.83 11.7128 111.197 13.2869 111.197 15.1552C111.197 17.0236 111.832 18.5977 113.099 19.8756Z" fill="#454F5B"/>
<path d="M133.553 13.7907H134.653L139.35 6.8171C139.65 6.37167 140.061 6.14996 140.584 6.14996H141.729C142.149 6.14996 142.426 6.26888 142.56 6.50671C142.694 6.74454 142.639 7.03679 142.398 7.38547L137.209 15.0424L143.316 22.9068C143.584 23.2475 143.655 23.5417 143.529 23.7896C143.403 24.0375 143.126 24.1605 142.694 24.1605H141.504C140.987 24.1605 140.564 23.9569 140.235 23.5498L134.744 16.4169H133.555V23.1326C133.555 23.8179 133.21 24.1625 132.519 24.1625H131.536C130.847 24.1625 130.5 23.8199 130.5 23.1326V7.17787C130.5 6.4926 130.845 6.14795 131.536 6.14795H132.519C133.208 6.14795 133.555 6.49058 133.555 7.17787V13.7907H133.553Z" fill="#454F5B"/>
<path d="M146.229 7.17787C146.229 6.4926 146.573 6.14795 147.264 6.14795H148.247C148.936 6.14795 149.283 6.49058 149.283 7.17787V13.7907H157.253V7.17787C157.253 6.4926 157.598 6.14795 158.289 6.14795H159.272C159.961 6.14795 160.307 6.49058 160.307 7.17787V23.1306C160.307 23.8158 159.963 24.1605 159.272 24.1605H158.289C157.598 24.1605 157.253 23.8179 157.253 23.1306V16.4149H149.283V23.1306C149.283 23.8158 148.939 24.1605 148.247 24.1605H147.264C146.575 24.1605 146.229 23.8179 146.229 23.1306V7.17787Z" fill="#454F5B"/>
<path d="M178.908 22.9755C179.038 23.3282 179.028 23.6124 178.876 23.8301C178.724 24.0498 178.46 24.1586 178.079 24.1586H176.928C176.332 24.1586 175.941 23.8804 175.75 23.3222L174.534 19.8112H167.702L166.487 23.3242C166.279 23.8804 165.847 24.1606 165.194 24.1606H163.929C163.512 24.1606 163.224 24.0417 163.064 23.8018C162.904 23.562 162.89 23.2496 163.019 22.8646L168.944 6.86156C169.151 6.38791 169.548 6.1521 170.134 6.1521H171.79C172.376 6.1521 172.773 6.42621 172.98 6.97442L178.904 22.9775L178.908 22.9755ZM168.61 17.187H173.94L171.275 9.46961L168.61 17.187Z" fill="#454F5B"/>
<path d="M43.4297 34.2741V30.8699H46.0404V34.2741H45.7039V31.1702H43.7662V34.2741H43.4297Z" fill="#454F5B"/>
<path d="M48.9709 34.2741V30.8699H50.1547C50.4628 30.8699 50.7161 30.9626 50.9148 31.15C51.1134 31.3375 51.2127 31.5854 51.2127 31.8958C51.2127 32.2061 51.1134 32.4601 50.9148 32.6516C50.7161 32.841 50.4628 32.9378 50.1547 32.9378H49.3074V34.2741H48.9709ZM49.3074 32.6375H50.1101C50.3411 32.6375 50.5236 32.571 50.6594 32.4379C50.7952 32.3049 50.8641 32.1255 50.8641 31.8958C50.8641 31.666 50.7972 31.4927 50.6614 31.3637C50.5256 31.2347 50.3452 31.1702 50.1141 31.1702H49.3054V32.6375H49.3074Z" fill="#454F5B"/>
<path d="M53.5908 32.5468C53.5908 32.0631 53.7591 31.6519 54.0975 31.3174C54.436 30.9808 54.8475 30.8135 55.334 30.8135C55.8204 30.8135 56.2339 30.9808 56.5704 31.3153C56.9069 31.6499 57.0771 32.0591 57.0771 32.5468C57.0771 33.0346 56.9089 33.4699 56.5704 33.8146C56.2319 34.1592 55.8204 34.3325 55.334 34.3325C54.8475 34.3325 54.434 34.1592 54.0975 33.8146C53.7591 33.4699 53.5908 33.0467 53.5908 32.5468ZM53.9415 32.5468C53.9415 32.96 54.0773 33.3087 54.3489 33.5929C54.6205 33.877 54.9489 34.0201 55.334 34.0201C55.7191 34.0201 56.0535 33.877 56.3231 33.5929C56.5927 33.3087 56.7265 32.96 56.7265 32.5468C56.7265 32.1336 56.5927 31.8091 56.3231 31.537C56.0535 31.2649 55.7252 31.1279 55.334 31.1279C54.9428 31.1279 54.6185 31.2649 54.3489 31.537C54.0773 31.8091 53.9415 32.1457 53.9415 32.5468Z" fill="#454F5B"/>
<path d="M59.7849 34.274V30.8698H60.1214V33.3186L60.093 33.7782H60.1031C60.2227 33.5786 60.322 33.4214 60.4011 33.3086L62.1341 30.8678H62.4604V34.272H62.124V31.8211L62.1524 31.3616H62.1422C62.0287 31.5551 61.9334 31.7083 61.8544 31.8211L60.1112 34.272H59.7849V34.274Z" fill="#454F5B"/>
<path d="M65.0527 33.8932L65.2534 33.6514C65.3507 33.7602 65.4743 33.8509 65.6243 33.9194C65.7743 33.988 65.9284 34.0242 66.0865 34.0242C66.3236 34.0242 66.5182 33.9597 66.6702 33.8307C66.8222 33.7018 66.8993 33.5284 66.8993 33.3128C66.8993 33.1092 66.8303 32.95 66.6925 32.8331C66.5547 32.7162 66.3824 32.6597 66.1736 32.6597H65.7399V32.3695H66.0865C66.281 32.3695 66.4473 32.3111 66.5831 32.1921C66.7189 32.0752 66.7878 31.9241 66.7878 31.7387C66.7878 31.5532 66.731 31.4142 66.6175 31.2952C66.504 31.1783 66.3317 31.1179 66.1007 31.1179C65.8088 31.1179 65.5453 31.2146 65.3122 31.4081L65.1561 31.1461C65.4277 30.9244 65.754 30.8115 66.1351 30.8115C66.4432 30.8115 66.6864 30.8921 66.8648 31.0534C67.0432 31.2146 67.1324 31.4303 67.1324 31.7024C67.1324 32.0571 66.9621 32.3151 66.6216 32.4723V32.4824C66.8121 32.5348 66.9661 32.6335 67.0797 32.7807C67.1932 32.9278 67.2499 33.1072 67.2499 33.3208C67.2499 33.6252 67.1405 33.869 66.9236 34.0545C66.7067 34.2399 66.431 34.3326 66.1007 34.3326C65.902 34.3326 65.7095 34.2943 65.5189 34.2177C65.3284 34.1391 65.1744 34.0323 65.0548 33.8932H65.0527Z" fill="#454F5B"/>
<path d="M69.9559 34.2741V30.8699H71.1234C71.397 30.8699 71.618 30.9465 71.7902 31.1017C71.9625 31.2568 72.0477 31.4644 72.0477 31.7265C72.0477 32.0751 71.9038 32.321 71.6139 32.4682V32.4782C71.7882 32.5266 71.9281 32.6274 72.0335 32.7826C72.1369 32.9378 72.1895 33.1172 72.1895 33.3207C72.1895 33.615 72.0923 33.8468 71.8977 34.0181C71.7031 34.1894 71.4578 34.2741 71.1619 34.2741H69.9539H69.9559ZM70.2924 32.3472H71.1254C71.2977 32.3472 71.4376 32.2928 71.545 32.182C71.6524 32.0711 71.7051 31.928 71.7051 31.7506C71.7051 31.5733 71.6524 31.4362 71.547 31.3294C71.4416 31.2226 71.2977 31.1702 71.1153 31.1702H70.2924V32.3472ZM70.2924 33.9737H71.168C71.3747 33.9737 71.5389 33.9133 71.6605 33.7944C71.7801 33.6755 71.8409 33.5142 71.8409 33.3106C71.8409 33.1071 71.7781 32.9438 71.6544 32.8209C71.5288 32.6979 71.3666 32.6375 71.166 32.6375H70.2944V33.9737H70.2924Z" fill="#454F5B"/>
<path d="M74.6726 32.5468C74.6726 32.0631 74.8408 31.6519 75.1793 31.3174C75.5178 30.9808 75.9293 30.8135 76.4158 30.8135C76.9022 30.8135 77.3157 30.9808 77.6522 31.3153C77.9886 31.6499 78.1589 32.0591 78.1589 32.5468C78.1589 33.0346 77.9907 33.4699 77.6522 33.8146C77.3137 34.1592 76.9022 34.3325 76.4158 34.3325C75.9293 34.3325 75.5158 34.1592 75.1793 33.8146C74.8408 33.4699 74.6726 33.0467 74.6726 32.5468ZM75.0233 32.5468C75.0233 32.96 75.1591 33.3087 75.4307 33.5929C75.7023 33.877 76.0306 34.0201 76.4158 34.0201C76.8009 34.0201 77.1353 33.877 77.4049 33.5929C77.6745 33.3087 77.8083 32.96 77.8083 32.5468C77.8083 32.1336 77.6745 31.8091 77.4049 31.537C77.1353 31.2649 76.807 31.1279 76.4158 31.1279C76.0246 31.1279 75.7003 31.2649 75.4307 31.537C75.1591 31.8091 75.0233 32.1457 75.0233 32.5468Z" fill="#454F5B"/>
<path d="M80.2771 33.9758H80.6237C80.8548 33.6695 81.0068 33.3127 81.0818 32.9056C81.1568 32.4985 81.1933 32.043 81.1933 31.535V30.8719H83.0722V33.9758H83.4573V34.9533H83.1411V34.2761H80.5994V34.9533H80.2771V33.9758ZM80.9825 33.9758H82.7358V31.1723H81.5176V31.5451C81.5176 32.6557 81.3392 33.4659 80.9825 33.9758Z" fill="#454F5B"/>
<path d="M85.8367 32.5508C85.8367 32.053 85.9989 31.6398 86.3212 31.3093C86.6435 30.9787 87.0549 30.8135 87.5556 30.8135C88.0562 30.8135 88.4839 30.9606 88.792 31.2549L88.6116 31.5028C88.4778 31.3859 88.3177 31.2952 88.1292 31.2287C87.9407 31.1622 87.7522 31.1299 87.5637 31.1299C87.1542 31.1299 86.8218 31.2649 86.5685 31.535C86.3131 31.8051 86.1854 32.1417 86.1854 32.5488C86.1854 32.956 86.3131 33.3107 86.5705 33.5949C86.8259 33.8791 87.1623 34.0222 87.5779 34.0222C87.9934 34.0222 88.3744 33.873 88.6825 33.5727L88.8771 33.8105C88.5163 34.1632 88.0805 34.3386 87.5677 34.3386C87.0549 34.3386 86.6374 34.1693 86.3171 33.8287C85.9948 33.488 85.8347 33.0648 85.8347 32.5569L85.8367 32.5508Z" fill="#454F5B"/>
<path d="M92.3227 34.2741V31.1702H91.0964V30.8699H93.8916V31.1702H92.6592V34.2741H92.3227Z" fill="#454F5B"/>
<path d="M96.4134 34.2741V30.8699H97.5809C97.8545 30.8699 98.0755 30.9465 98.2478 31.1017C98.4201 31.2568 98.5052 31.4644 98.5052 31.7265C98.5052 32.0751 98.3613 32.321 98.0714 32.4682V32.4782C98.2457 32.5266 98.3856 32.6274 98.491 32.7826C98.5944 32.9378 98.6471 33.1172 98.6471 33.3207C98.6471 33.615 98.5498 33.8468 98.3552 34.0181C98.1606 34.1894 97.9154 34.2741 97.6194 34.2741H96.4114H96.4134ZM96.7499 32.3472H97.5829C97.7552 32.3472 97.8951 32.2928 98.0025 32.182C98.1099 32.0711 98.1626 31.928 98.1626 31.7506C98.1626 31.5733 98.1099 31.4362 98.0045 31.3294C97.8991 31.2226 97.7552 31.1702 97.5728 31.1702H96.7499V32.3472ZM96.7499 33.9737H97.6255C97.8323 33.9737 97.9964 33.9133 98.118 33.7944C98.2376 33.6755 98.2984 33.5142 98.2984 33.3106C98.2984 33.1071 98.2356 32.9438 98.112 32.8209C97.9863 32.6979 97.8241 32.6375 97.6235 32.6375H96.7519V33.9737H96.7499Z" fill="#454F5B"/>
<path d="M101.359 34.2741V30.8699H103.282V31.1702H101.695V32.4097H102.995V32.71H101.695V33.9737H103.376V34.2741H101.359Z" fill="#454F5B"/>
<path d="M106.033 34.2741V30.8699H106.369V32.4198H108.352V30.8699H108.692V34.2741H108.352V32.7201H106.369V34.2741H106.033Z" fill="#454F5B"/>
<path d="M111.617 34.2741V30.8699H111.954V32.4198H113.936V30.8699H114.276V34.2741H113.936V32.7201H111.954V34.2741H111.617Z" fill="#454F5B"/>
<path d="M116.974 32.5468C116.974 32.0631 117.142 31.6519 117.481 31.3174C117.819 30.9808 118.231 30.8135 118.717 30.8135C119.204 30.8135 119.617 30.9808 119.954 31.3153C120.29 31.6499 120.46 32.0591 120.46 32.5468C120.46 33.0346 120.292 33.4699 119.954 33.8146C119.615 34.1592 119.204 34.3325 118.717 34.3325C118.231 34.3325 117.817 34.1592 117.481 33.8146C117.142 33.4699 116.974 33.0467 116.974 32.5468ZM117.325 32.5468C117.325 32.96 117.461 33.3087 117.732 33.5929C118.004 33.877 118.332 34.0201 118.717 34.0201C119.102 34.0201 119.437 33.877 119.706 33.5929C119.976 33.3087 120.11 32.96 120.11 32.5468C120.11 32.1336 119.976 31.8091 119.706 31.537C119.437 31.2649 119.108 31.1279 118.717 31.1279C118.326 31.1279 118.002 31.2649 117.732 31.537C117.461 31.8091 117.325 32.1457 117.325 32.5468Z" fill="#454F5B"/>
<path d="M123.167 34.2741V30.8699H125.09V31.1702H123.503V32.4097H124.802V32.71H123.503V33.9737H125.184V34.2741H123.167Z" fill="#454F5B"/>
<path d="M130.917 34.125L131.077 33.869C131.234 33.9778 131.367 34.0343 131.477 34.0343C131.58 34.0343 131.663 33.998 131.722 33.9234C131.783 33.8488 131.844 33.734 131.904 33.5747L130.546 30.874H130.921L131.862 32.7706L132.056 33.216H132.067C132.119 33.0588 132.168 32.9116 132.217 32.7746L132.928 30.8719H133.289L132.17 33.738C132.014 34.135 131.785 34.3326 131.483 34.3326C131.304 34.3326 131.116 34.264 130.917 34.125Z" fill="#454F5B"/>
<path d="M135.811 34.2741V30.8699H138.421V34.2741H138.085V31.1702H136.147V34.2741H135.811Z" fill="#454F5B"/>
<path d="M141.352 34.2741V30.8699H142.536C142.844 30.8699 143.097 30.9626 143.296 31.15C143.495 31.3375 143.594 31.5854 143.594 31.8958C143.594 32.2061 143.495 32.4601 143.296 32.6516C143.097 32.841 142.844 32.9378 142.536 32.9378H141.689V34.2741H141.352ZM141.689 32.6375H142.491C142.722 32.6375 142.905 32.571 143.04 32.4379C143.176 32.3049 143.245 32.1255 143.245 31.8958C143.245 31.666 143.178 31.4927 143.043 31.3637C142.907 31.2347 142.726 31.1702 142.495 31.1702H141.686V32.6375H141.689Z" fill="#454F5B"/>
<path d="M145.623 34.2741L146.88 30.8699H147.241L148.497 34.2741H148.143L147.747 33.1897H146.369L145.98 34.2741H145.625H145.623ZM146.47 32.8995H147.644L147.196 31.666L147.064 31.2206H147.054C147.005 31.412 146.961 31.5592 146.922 31.666L146.47 32.8995Z" fill="#454F5B"/>
<path d="M151.037 34.2741V30.8699H152.204C152.478 30.8699 152.699 30.9465 152.871 31.1017C153.044 31.2568 153.129 31.4644 153.129 31.7265C153.129 32.0751 152.985 32.321 152.695 32.4682V32.4782C152.869 32.5266 153.009 32.6274 153.115 32.7826C153.218 32.9378 153.271 33.1172 153.271 33.3207C153.271 33.615 153.173 33.8468 152.979 34.0181C152.784 34.1894 152.539 34.2741 152.243 34.2741H151.035H151.037ZM151.373 32.3472H152.206C152.379 32.3472 152.519 32.2928 152.626 32.182C152.733 32.0711 152.786 31.928 152.786 31.7506C152.786 31.5733 152.733 31.4362 152.628 31.3294C152.523 31.2226 152.379 31.1702 152.196 31.1702H151.373V32.3472ZM151.373 33.9737H152.249C152.456 33.9737 152.62 33.9133 152.742 33.7944C152.861 33.6755 152.922 33.5142 152.922 33.3106C152.922 33.1071 152.859 32.9438 152.735 32.8209C152.61 32.6979 152.448 32.6375 152.247 32.6375H151.375V33.9737H151.373Z" fill="#454F5B"/>
<path d="M155.502 34C155.808 33.9577 156.019 33.736 156.139 33.3309C156.256 32.9278 156.317 32.3372 156.317 31.5592V30.8719H158.196V34.2761H157.855V31.1723H156.643V31.5653C156.643 31.9986 156.627 32.3654 156.595 32.6718C156.562 32.9761 156.506 33.2563 156.424 33.5082C156.343 33.7622 156.226 33.9557 156.074 34.0887C155.922 34.2217 155.731 34.2983 155.504 34.3144V34H155.502Z" fill="#454F5B"/>
<path d="M161.121 34.2741V30.8699H163.044V31.1702H161.457V32.4097H162.756V32.71H161.457V33.9737H163.137V34.2741H161.121Z" fill="#454F5B"/>
<path d="M165.794 34.2741V30.8699H166.131V32.4198H168.113V30.8699H168.454V34.2741H168.113V32.7201H166.131V34.2741H165.794Z" fill="#454F5B"/>
<path d="M171.379 34.274V30.8698H171.715V33.3186L171.687 33.7782H171.697C171.817 33.5786 171.916 33.4214 171.995 33.3086L173.728 30.8678H174.054V34.272H173.718V31.8211L173.746 31.3616H173.736C173.623 31.5551 173.527 31.7083 173.448 31.8211L171.705 34.272H171.379V34.274Z" fill="#454F5B"/>
<path d="M176.983 34.2741V30.8699H178.907V31.1702H177.32V32.4097H178.619V32.71H177.32V33.9737H179V34.2741H176.983Z" fill="#454F5B"/>
<g clip-path="url(#clip0_11_506)">
<path d="M36.3869 8.48005V14.6346H31.2911C29.8299 14.6346 28.6447 13.4493 28.6447 11.9881C28.6447 9.95112 26.9935 8.29986 24.9566 8.29986H11.4317C9.39479 8.29986 7.74219 9.95112 7.74219 11.9895V25.5135C7.74219 27.5505 9.39338 29.2017 11.4303 29.2017C13.8247 29.2017 15.7659 31.143 15.7659 33.5375V36.9442H7.92378C3.55437 36.9442 0 33.3897 0 29.0216V8.48005C0 4.11188 3.55437 0.557373 7.92378 0.557373H28.4631C32.8325 0.557373 36.3869 4.11188 36.3869 8.48005Z" fill="#00AB55"/>
<path d="M31.2968 17.4829C29.8314 17.4829 28.6447 18.671 28.6447 20.1351V25.5135C28.6447 27.5504 26.9935 29.2017 24.9566 29.2017H22.6908C20.2964 29.2017 18.3552 31.1429 18.3552 33.5375V36.9442H28.4631C32.8325 36.9442 36.3869 33.3897 36.3869 29.0215V17.4829H31.2968Z" fill="#FF2D2E"/>
</g>
<defs>
<clipPath id="clip0_11_506">
<rect width="36.3869" height="36.3869" fill="white" transform="translate(0 0.557373)"/>
</clipPath>
</defs>
</svg>
